<svg version="1.0" xmlns="http://www.w3.org/2000/svg"
viewBox="0 0 512.000000 512.000000"
 preserveAspectRatio="xMidYMid meet">

<g transform="translate(0.000000,512.000000) scale(0.100000,-0.100000)"
 stroke="none">
<path d="M1464 5019 c-58 -17 -126 -71 -156 -126 -120 -215 81 -462 316 -388
l57 18 203 -201 202 -202 420 0 421 0 11 -25 c7 -14 12 -47 12 -73 0 -88 -58
-145 -159 -158 -75 -9 -125 -56 -135 -126 l-7 -48 -274 0 -273 0 -13 37 c-17
53 -94 126 -154 146 -127 44 -261 -4 -325 -116 -63 -111 -47 -233 43 -324 131
-130 339 -100 423 62 l29 55 272 0 271 0 7 -42 c8 -48 36 -92 68 -110 12 -6
46 -15 76 -19 61 -9 95 -30 129 -80 20 -28 23 -44 20 -91 -7 -95 27 -88 -451
-88 l-421 0 -201 -200 -201 -200 -48 16 c-143 49 -301 -32 -343 -175 -30 -104
-2 -203 77 -275 58 -52 103 -69 180 -69 77 0 122 17 180 69 81 73 108 173 75
279 l-18 57 179 179 179 179 367 0 367 0 7 -22 c10 -33 183 -208 221 -224 53
-23 85 -17 153 29 55 37 70 42 117 41 85 0 144 -59 157 -155 8 -60 34 -103 78
-125 24 -12 59 -15 178 -12 142 3 150 4 175 28 37 35 48 57 56 118 9 68 45
115 103 137 54 21 100 15 147 -20 75 -55 127 -67 177 -41 15 8 70 59 124 113
112 114 123 142 89 214 -11 24 -30 56 -42 70 -32 40 -35 105 -7 159 27 53 66
77 144 90 60 10 95 33 120 82 21 41 19 278 -3 325 -21 45 -60 69 -126 77 -69
10 -111 37 -138 92 -29 60 -22 111 26 179 70 102 57 151 -72 276 -99 97 -118
109 -169 109 -31 0 -55 -10 -102 -41 -58 -39 -65 -41 -120 -37 -36 2 -68 11
-85 23 -32 24 -67 91 -67 129 0 42 -30 96 -64 117 -27 16 -52 19 -185 19
l-153 0 -38 -38 c-32 -31 -39 -47 -45 -94 -11 -90 -53 -141 -127 -157 -47 -10
-93 2 -144 39 -48 34 -97 46 -141 35 -34 -8 -229 -198 -237 -231 l-6 -24 -368
0 -367 0 -179 179 -179 179 18 57 c65 207 -125 404 -331 344z m155 -157 c58
-43 64 -140 12 -193 -76 -75 -204 -30 -217 77 -14 110 115 183 205 116z m2251
-290 c0 -90 88 -211 182 -252 99 -42 236 -23 306 42 l23 22 73 -73 74 -73 -33
-43 c-85 -112 -66 -283 42 -387 41 -39 114 -77 150 -78 50 0 53 -6 53 -109 l0
-97 -58 -12 c-168 -35 -277 -211 -232 -374 6 -20 26 -59 44 -87 l33 -49 -71
-70 -71 -70 -39 29 c-172 128 -424 29 -468 -183 l-12 -58 -103 0 -103 0 0 28
c0 88 -73 192 -168 239 -102 50 -239 34 -317 -38 -21 -18 -22 -18 -95 56 l-74
74 21 23 c40 43 63 108 63 183 0 154 -105 276 -258 301 l-42 7 0 97 0 98 53
12 c111 23 177 75 223 174 44 94 27 225 -39 311 -15 19 -12 24 55 92 l71 72
32 -24 c52 -41 105 -58 177 -58 148 0 280 111 296 250 l5 43 103 0 c94 0 104
-2 104 -18z m-1969 -837 c16 -9 39 -30 49 -48 78 -128 -93 -262 -199 -156
-103 103 20 271 150 204z m-300 -1140 c92 -48 89 -183 -5 -226 -52 -24 -61
-23 -112 1 -92 45 -98 167 -11 220 39 24 87 25 128 5z"/>
<path d="M3655 4190 c-117 -24 -243 -96 -320 -183 -57 -64 -120 -191 -136
-275 -16 -84 -6 -221 21 -299 75 -215 278 -370 509 -389 273 -22 537 174 602
446 20 83 16 214 -9 296 -75 244 -307 416 -557 413 -38 -1 -88 -5 -110 -9z
m226 -146 c82 -24 127 -51 190 -111 258 -246 122 -678 -233 -744 -112 -21
-247 14 -345 88 -96 73 -163 214 -163 343 0 288 280 504 551 424z"/>
<path d="M2390 1816 c-30 -7 -287 -106 -570 -219 l-515 -207 -247 0 -248 0 0
100 c0 151 28 140 -358 140 l-319 0 -21 -23 -22 -23 0 -725 0 -726 23 -21 c23
-22 29 -22 340 -22 385 0 357 -11 357 140 l0 100 59 0 c85 0 358 -25 776 -70
476 -52 660 -67 962 -82 527 -24 956 33 1215 163 35 17 182 107 328 198 146
92 379 239 518 327 268 168 301 194 335 258 30 57 30 165 0 221 -56 106 -190
161 -298 123 -22 -8 -271 -148 -553 -311 -282 -163 -517 -297 -522 -297 -9 0
-841 288 -846 293 -1 1 3 10 10 19 10 14 70 26 287 58 321 48 332 50 395 93
132 88 152 274 43 387 -78 80 -75 80 -500 80 -294 0 -385 3 -415 14 -61 21
-153 26 -214 12z m197 -157 c163 -78 201 -300 72 -428 -165 -165 -450 -49
-452 184 -1 128 81 233 208 266 43 11 124 1 172 -22z m803 -24 c59 -30 79
-119 38 -170 -32 -41 -68 -52 -290 -85 -112 -16 -217 -32 -234 -35 l-31 -5 5
54 c5 64 -11 143 -45 209 l-23 47 275 0 c227 0 281 -3 305 -15z m-1319 -154
c-20 -126 22 -255 114 -347 112 -112 272 -150 417 -99 l43 15 453 -157 c341
-118 452 -161 451 -172 0 -9 -21 -92 -47 -186 l-47 -170 -100 -17 c-184 -31
-476 -43 -752 -29 -289 13 -426 25 -965 83 l-397 42 57 61 c180 193 189 498
20 690 -21 24 -38 46 -38 49 0 3 12 6 28 6 15 1 194 68 397 150 204 81 371
147 373 145 2 -1 -2 -30 -7 -64z m-1401 -74 l0 -82 -36 -20 c-52 -28 -157
-144 -188 -208 -74 -150 -75 -314 -4 -465 33 -70 124 -174 187 -212 l40 -25 1
-82 0 -83 -220 0 -220 0 0 630 0 630 220 0 220 0 0 -83z m4179 -93 c38 -32 50
-84 28 -129 -13 -26 -101 -86 -511 -344 -273 -172 -500 -310 -505 -307 -10 6
-121 203 -121 215 0 7 953 562 999 583 35 15 80 8 110 -18z m-3868 -74 c124
-23 229 -105 283 -220 28 -58 31 -75 31 -160 0 -87 -3 -101 -32 -160 -59 -120
-163 -199 -288 -218 -172 -27 -335 60 -408 217 -102 217 19 472 253 535 67 18
92 19 161 6z m2738 -748 l20 -40 -55 -21 c-31 -11 -60 -21 -64 -21 -5 0 -3 21
5 48 7 26 19 67 25 91 l12 44 18 -31 c11 -17 28 -49 39 -70z"/>
<path d="M2409 1481 c-37 -37 -38 -79 -3 -120 21 -25 33 -31 65 -31 86 0 123
100 58 154 -41 35 -83 34 -120 -3z"/>
<path d="M857 930 c-66 -52 -27 -160 58 -160 39 0 65 18 81 56 36 87 -65 162
-139 104z"/>
</g>
</svg>
