<svg version="1.0" xmlns="http://www.w3.org/2000/svg"
 width="1024.000000pt" height="1024.000000pt" viewBox="0 0 1024.000000 1024.000000"
 preserveAspectRatio="xMidYMid meet">

<g transform="translate(0.000000,1024.000000) scale(0.100000,-0.100000)"
 stroke="none">
<path d="M1933 8735 c-205 -37 -385 -134 -524 -283 -79 -84 -126 -159 -174
-277 -64 -158 -60 25 -60 -2465 l0 -2275 23 -78 c46 -160 111 -274 227 -396
117 -123 254 -207 417 -254 72 -21 89 -21 1053 -24 539 -2 985 -5 992 -7 8 -3
3 -31 -17 -93 -16 -48 -60 -191 -99 -318 -38 -126 -73 -238 -76 -247 -7 -17
65 -18 1415 -18 1173 0 1421 2 1417 13 -15 39 -207 652 -207 661 0 3 444 7
988 8 1098 4 1017 -1 1192 73 228 95 422 304 505 544 57 163 56 77 52 2458 -2
2070 -4 2192 -21 2263 -83 346 -312 587 -662 697 l-89 28 -3140 2 c-2545 1
-3154 -1 -3212 -12z m6292 -440 c135 -35 246 -117 315 -234 79 -134 73 68 75
-2316 1 -1171 -2 -2159 -7 -2195 -26 -194 -200 -378 -401 -425 -59 -13 -410
-15 -3129 -13 l-3063 3 -65 25 c-85 34 -170 91 -221 149 -48 56 -103 167 -118
239 -8 37 -11 678 -11 2190 0 2358 -5 2188 63 2316 41 79 146 185 217 219 124
60 -111 56 3225 56 2718 1 3067 -1 3120 -14z"/>
<path d="M2015 8097 c-83 -33 -143 -87 -187 -169 l-23 -43 0 -1825 0 -1825 27
-58 c15 -32 51 -81 81 -111 45 -45 66 -58 123 -75 l69 -21 3030 2 3030 3 63
34 c72 39 121 91 160 171 l27 55 3 1807 2 1807 -21 58 c-28 75 -112 160 -184
186 -47 16 -217 17 -3110 16 -2320 0 -3067 -3 -3090 -12z m3314 -368 c85 -21
216 -81 289 -131 172 -118 308 -336 346 -553 46 -263 -9 -498 -164 -704 -107
-142 -235 -233 -405 -290 -315 -105 -650 -35 -883 184 -191 180 -272 367 -275
630 -4 363 168 642 500 810 162 82 397 104 592 54z m-2254 -329 c190 -31 344
-186 389 -392 l6 -28 343 -2 342 -3 3 -67 3 -68 -348 0 -348 -1 -39 -82 c-49
-104 -132 -189 -231 -238 -68 -33 -73 -34 -190 -34 -115 0 -123 1 -187 33 -83
40 -162 112 -207 186 -39 65 -71 171 -71 233 0 169 109 342 265 419 102 50
167 61 270 44z m4216 0 c158 -30 301 -151 357 -300 81 -221 -24 -471 -244
-580 -62 -31 -79 -35 -171 -38 -76 -3 -114 0 -151 12 -64 22 -155 81 -210 137
-41 42 -112 166 -112 195 0 12 -60 14 -344 14 l-344 0 -4 66 c-1 36 -1 68 1
70 2 2 156 4 341 4 l337 0 11 56 c48 239 297 409 533 364z m-1235 -1230 l157
-159 41 29 c22 16 59 34 81 40 28 8 213 10 625 8 l585 -3 55 -31 c32 -18 70
-51 91 -79 68 -88 69 -97 69 -574 0 -499 1 -491 -89 -582 -93 -92 -65 -89
-729 -89 -398 0 -586 3 -612 11 -55 17 -130 77 -165 133 l-30 49 -3 491 -3
490 -160 163 -161 163 43 49 c24 28 45 50 46 51 1 0 72 -72 159 -160z m-1688
102 l40 -49 -159 -159 -159 -159 0 -466 c0 -518 -1 -532 -65 -606 -20 -23 -62
-55 -97 -72 l-61 -31 -586 0 c-562 0 -588 1 -630 20 -66 31 -114 73 -147 132
l-29 53 0 470 0 470 27 51 c15 28 48 70 73 92 84 73 69 72 706 72 615 0 613 0
686 -56 l34 -26 37 34 c20 19 91 89 156 156 66 67 123 122 126 122 4 0 25 -22
48 -48z m802 -586 l0 -244 48 -12 c152 -38 285 -165 332 -319 70 -225 -45
-460 -275 -562 -238 -105 -533 43 -615 309 -24 76 -25 147 -5 225 44 171 163
298 320 343 l65 19 0 242 0 243 65 0 65 0 0 -244z"/>
<path d="M5043 7486 c-100 -32 -157 -110 -156 -210 1 -76 26 -130 84 -179 133
-114 333 -32 363 149 26 153 -140 289 -291 240z"/>
<path d="M4680 7091 c-77 -16 -126 -57 -161 -135 -41 -93 -7 -210 79 -270 34
-24 55 -31 107 -34 80 -5 116 8 173 62 81 77 92 189 29 283 -49 72 -142 111
-227 94z"/>
<path d="M5445 7091 c-204 -53 -240 -311 -58 -418 100 -58 239 -20 299 83 45
76 41 170 -9 245 -46 68 -154 110 -232 90z"/>
<path d="M5027 6980 c-66 -57 -71 -145 -12 -205 100 -100 270 4 226 138 -19
56 -62 90 -124 95 -49 4 -57 2 -90 -28z"/>
<path d="M5010 6678 c-92 -47 -147 -167 -120 -265 20 -70 98 -146 168 -162 70
-17 136 -1 191 46 72 61 101 141 81 223 -34 144 -193 222 -320 158z"/>
<path d="M6403 5863 c-64 -32 -65 -35 -61 -470 l3 -392 29 -30 30 -31 533 0
c571 0 576 0 603 49 13 26 14 790 0 825 -5 14 -24 35 -42 46 -32 19 -50 20
-548 19 -448 0 -519 -2 -547 -16z m605 -128 c101 -43 140 -142 92 -235 -29
-57 -73 -84 -145 -88 -54 -3 -64 -1 -101 26 -116 85 -93 249 43 297 50 18 66
18 111 0z m-239 -319 c104 -54 131 -182 55 -265 -64 -72 -166 -75 -237 -8 -67
63 -73 157 -14 224 53 60 134 80 196 49z m501 -6 c98 -50 120 -176 44 -259
-86 -96 -234 -66 -280 55 -54 140 100 273 236 204z"/>
<path d="M2754 5870 c-12 -4 -31 -21 -43 -36 -21 -26 -21 -33 -21 -425 0 -428
1 -439 51 -465 53 -27 74 -19 161 64 46 42 89 83 96 90 19 17 22 16 68 -21 22
-17 59 -47 81 -65 l41 -32 148 140 c82 77 152 140 155 140 3 0 61 -69 128
-154 67 -85 129 -160 136 -166 24 -20 74 -2 96 33 18 30 19 55 19 425 0 353
-2 397 -17 423 -35 59 -33 59 -580 58 -274 0 -508 -4 -519 -9z m1002 -104 c29
-29 34 -41 34 -79 0 -29 -7 -53 -20 -70 -23 -29 -81 -52 -112 -44 -22 6 -47
-13 -258 -192 -52 -44 -101 -81 -107 -81 -7 0 -41 14 -77 32 l-64 31 -122
-108 c-67 -59 -126 -118 -130 -131 -32 -84 -150 -57 -150 35 0 34 48 81 83 81
13 0 49 26 88 63 36 34 98 93 139 131 l73 69 74 -38 74 -38 34 29 c19 16 84
70 144 119 100 81 110 93 111 124 0 51 55 101 110 101 34 0 48 -6 76 -34z"/>
<path d="M5054 3736 c-59 -19 -98 -52 -128 -106 -33 -61 -33 -111 0 -179 48
-96 156 -136 259 -97 72 28 135 115 135 186 0 61 -60 154 -119 184 -41 21
-102 26 -147 12z"/>
<path d="M3120 1801 c-90 -29 -142 -60 -205 -125 -54 -55 -112 -146 -129 -201
-6 -20 -1 -20 2319 -21 l2326 -2 -7 22 c-13 45 -69 139 -108 183 -53 61 -144
118 -224 143 -63 20 -96 20 -1991 19 -1818 0 -1929 -1 -1981 -18z"/>
</g>
</svg>
