<svg version="1.0" xmlns="http://www.w3.org/2000/svg"
viewBox="0 0 512.000000 512.000000"
 preserveAspectRatio="xMidYMid meet">

<g transform="translate(0.000000,512.000000) scale(0.100000,-0.100000)"
 stroke="none">
<path d="M720 5027 c-49 -16 -133 -102 -148 -153 -17 -59 -17 -1689 0 -1748
16 -55 99 -138 154 -154 24 -7 100 -12 178 -12 l136 0 0 -255 0 -256 25 -24
c16 -16 35 -25 57 -25 29 0 60 28 313 280 l280 280 441 0 c508 0 505 0 577 80
24 26 49 66 55 88 17 56 17 1688 0 1744 -6 22 -31 62 -55 88 -76 85 -12 80
-1057 79 -641 -1 -932 -4 -956 -12z m1895 -172 l25 -24 0 -831 0 -831 -25 -24
-24 -25 -473 0 -472 0 -223 -222 -223 -222 0 197 c0 265 18 247 -240 247 -189
0 -191 0 -215 25 l-25 24 0 831 0 831 25 24 24 25 911 0 911 0 24 -25z"/>
<path d="M1511 4703 c-40 -20 -69 -63 -77 -116 -6 -33 -13 -41 -68 -70 -33
-17 -63 -31 -66 -30 -135 57 -177 35 -286 -157 -31 -54 -54 -106 -54 -123 0
-44 29 -96 66 -120 33 -21 34 -24 34 -87 0 -63 -1 -66 -34 -87 -37 -24 -66
-76 -66 -120 0 -16 22 -68 51 -118 61 -107 92 -150 124 -171 30 -20 104 -20
141 -1 26 14 32 13 88 -19 54 -29 61 -37 71 -77 27 -108 64 -127 245 -127 181
0 218 19 245 127 10 40 17 48 71 77 57 32 61 33 89 18 38 -19 109 -18 140 2
32 21 63 64 124 171 29 50 51 102 51 118 0 44 -29 96 -66 120 -33 21 -34 24
-34 87 0 63 1 66 34 87 37 24 66 76 66 120 0 17 -23 69 -54 123 -109 192 -151
214 -286 157 -3 -1 -33 13 -66 30 -55 29 -62 37 -68 70 -8 54 -38 97 -79 116
-50 24 -287 24 -336 0z m259 -174 c0 -53 35 -96 109 -134 36 -20 82 -44 101
-55 41 -24 87 -26 135 -6 l35 15 40 -67 40 -67 -30 -23 c-51 -40 -60 -69 -60
-192 0 -123 9 -152 60 -192 l30 -23 -40 -67 -40 -67 -35 15 c-48 20 -94 18
-135 -6 -19 -11 -66 -36 -103 -55 -74 -39 -107 -79 -107 -132 l0 -33 -90 0
-90 0 0 31 c0 53 -35 96 -109 134 -36 20 -82 44 -101 55 -41 24 -87 26 -135 6
l-35 -15 -40 67 -40 67 30 23 c51 40 60 69 60 192 0 123 -9 152 -60 192 l-30
23 40 67 40 67 35 -15 c48 -20 94 -18 135 6 19 11 66 36 103 55 74 39 107 79
107 133 l0 32 90 0 90 0 0 -31z"/>
<path d="M1589 4264 c-95 -29 -175 -131 -186 -237 -18 -173 130 -322 302 -304
178 18 291 188 241 362 -14 45 -29 69 -69 109 -80 79 -180 104 -288 70z m175
-183 c26 -27 31 -39 31 -81 0 -43 -5 -54 -33 -82 -28 -28 -39 -33 -82 -33 -43
0 -54 5 -82 33 -28 28 -33 39 -33 81 0 52 25 92 70 112 37 16 96 3 129 -30z"/>
<path d="M105 3095 l-25 -24 0 -1271 0 -1271 25 -24 24 -25 299 0 300 0 6 -34
c13 -67 74 -171 134 -228 192 -183 472 -183 664 0 60 57 121 161 134 228 l6
34 888 0 888 0 6 -34 c13 -67 74 -171 134 -228 192 -183 472 -183 664 0 60 57
121 161 134 228 l6 34 300 0 299 0 24 25 25 24 0 728 c0 688 -1 730 -18 758
-53 87 -736 1073 -754 1088 -19 16 -65 17 -664 17 l-644 0 0 -80 0 -80 240 0
240 0 0 -800 0 -800 -80 0 -80 0 0 295 0 296 -25 24 c-20 21 -34 25 -80 25
l-55 0 0 295 0 296 -25 24 -24 25 -351 0 -351 0 -24 -25 -25 -24 0 -296 0
-295 -215 0 c-216 0 -216 0 -240 -25 l-25 -24 0 -296 0 -295 -800 0 -800 0 0
800 0 800 80 0 80 0 0 80 0 80 -135 0 c-131 0 -137 -1 -160 -25z m3735 -670
l0 -536 25 -24 24 -25 496 0 495 0 0 -600 0 -600 -244 0 -244 0 -6 34 c-13 67
-74 171 -134 228 -192 183 -472 183 -664 0 -60 -57 -121 -161 -134 -228 l-6
-34 -888 0 -888 0 -6 34 c-13 67 -74 171 -134 228 -192 183 -472 183 -664 0
-60 -57 -121 -161 -134 -228 l-6 -34 -244 0 -244 0 0 280 0 280 1655 0 1656 0
24 25 25 24 0 856 0 855 120 0 120 0 0 -535z m597 160 c141 -203 289 -418 329
-477 l75 -108 -421 0 -420 0 0 480 0 481 91 -3 92 -3 254 -370z m-1797 -185
l0 -80 80 0 80 0 0 80 0 80 80 0 80 0 0 -240 0 -240 -240 0 -240 0 0 240 0
240 80 0 80 0 0 -80z m-480 -640 l0 -80 80 0 80 0 0 80 0 80 80 0 80 0 0 -240
0 -240 -240 0 -240 0 0 240 0 240 80 0 80 0 0 -80z m640 0 l0 -80 80 0 80 0 0
80 0 80 80 0 80 0 0 -240 0 -240 -240 0 -240 0 0 240 0 240 80 0 80 0 0 -80z
m-1465 -911 c63 -30 123 -90 155 -154 20 -41 25 -65 25 -135 -1 -77 -4 -91
-34 -148 -38 -70 -70 -101 -145 -140 -43 -22 -64 -26 -136 -26 -70 -1 -94 4
-135 24 -260 128 -238 495 35 594 63 23 170 16 235 -15z m2720 0 c63 -30 123
-90 155 -154 20 -41 25 -65 25 -135 -1 -77 -4 -91 -34 -148 -38 -70 -70 -101
-145 -140 -43 -22 -64 -26 -136 -26 -70 -1 -94 4 -135 24 -260 128 -238 495
35 594 63 23 170 16 235 -15z"/>
</g>
</svg>
