<svg version="1.0" xmlns="http://www.w3.org/2000/svg"
 width="566.000000pt" height="529.000000pt" viewBox="0 0 566.000000 529.000000"
 preserveAspectRatio="xMidYMid meet">

<g transform="translate(0.000000,529.000000) scale(0.100000,-0.100000)"
 stroke="none">
<path d="M1065 5260 c-246 -52 -448 -162 -625 -339 -167 -168 -283 -384 -336
-631 -23 -106 -26 -401 -5 -495 94 -428 473 -1024 906 -1427 129 -119 294
-251 309 -245 36 14 260 210 396 346 234 236 404 446 553 686 262 422 344 717
292 1060 -39 258 -154 494 -337 690 -169 182 -420 317 -666 360 -123 22 -372
19 -487 -5z m436 -454 c213 -46 412 -185 504 -355 33 -62 46 -76 75 -85 70
-22 129 -193 130 -372 0 -312 -152 -600 -408 -773 -230 -155 -559 -186 -815
-76 -208 89 -362 233 -459 430 -70 141 -98 261 -98 424 0 199 24 267 110 306
35 16 47 30 83 99 150 288 550 471 878 402z"/>
<path d="M1267 4732 c-18 -19 -22 -59 -9 -79 24 -39 113 -28 127 16 6 21 -9
60 -29 73 -21 14 -73 8 -89 -10z"/>
<path d="M1204 4677 c-3 -10 -1 -70 4 -135 6 -64 19 -197 28 -296 12 -133 13
-185 5 -203 -19 -42 -13 -73 23 -109 49 -49 77 -45 204 25 59 32 134 73 167
90 45 23 52 30 30 26 -41 -6 -277 -26 -280 -23 -2 2 -26 104 -55 228 -53 230
-92 374 -109 400 -9 12 -11 12 -17 -3z"/>
<path d="M580 4047 c-13 -7 -29 -25 -34 -40 -19 -54 50 -106 104 -77 48 26 44
96 -7 119 -30 14 -32 14 -63 -2z"/>
<path d="M1981 4034 c-12 -15 -21 -34 -21 -44 0 -33 39 -70 74 -70 41 0 66 26
66 68 0 66 -79 96 -119 46z"/>
<path d="M1276 3359 c-52 -41 -22 -129 45 -129 69 0 98 81 45 127 -33 28 -56
29 -90 2z"/>
<path d="M3634 4716 l-34 -34 0 -399 c0 -367 1 -401 18 -433 32 -60 66 -70
235 -70 l147 0 0 485 0 485 -166 0 -166 0 -34 -34z"/>
<path d="M4052 4268 l3 -483 73 -3 72 -3 0 486 0 485 -75 0 -75 0 2 -482z"/>
<path d="M4250 4265 l0 -485 140 0 c169 0 210 12 240 71 19 36 20 61 20 406 0
220 -4 383 -10 405 -6 20 -24 48 -41 62 -30 26 -33 26 -190 26 l-159 0 0 -485z"/>
<path d="M2717 3988 c-9 -203 -54 -385 -139 -572 -195 -424 -566 -916 -920
-1218 -136 -116 -337 -268 -355 -268 -12 0 -156 109 -263 199 -171 143 -425
413 -572 606 -71 95 -216 313 -259 390 -21 39 -45 79 -54 90 -15 20 -15 20
-35 -4 -20 -23 -20 -34 -18 -760 3 -718 3 -737 23 -763 11 -15 37 -36 57 -48
36 -20 47 -21 355 -17 277 3 325 6 373 22 45 15 85 19 215 19 139 -1 171 -4
245 -25 l85 -24 827 5 c815 5 827 5 854 26 15 11 37 33 48 48 21 27 21 32 21
1179 l0 1152 -23 36 c-38 62 -65 69 -274 69 l-185 0 -6 -142z"/>
<path d="M3345 2773 c2 -340 0 -753 -3 -918 -6 -264 -9 -304 -25 -328 l-17
-27 -820 0 c-451 0 -820 -3 -820 -6 0 -4 26 -34 58 -68 115 -123 189 -263 226
-426 l23 -105 747 -3 c592 -2 747 0 750 10 2 7 9 46 15 86 23 150 119 337 228
447 109 109 273 198 417 224 86 16 241 14 337 -5 271 -51 494 -244 600 -519
17 -44 36 -109 41 -145 6 -36 12 -71 14 -78 2 -9 34 -12 112 -12 125 0 153 13
172 78 8 25 10 239 8 682 -3 643 -3 645 -25 693 -26 57 -1 24 -399 522 -171
215 -330 407 -354 429 -23 21 -63 48 -89 60 -45 21 -58 21 -622 24 l-577 3 3
-618z m1357 135 c314 -392 429 -540 438 -563 6 -15 6 -34 1 -48 -13 -33 -65
-74 -109 -87 -23 -6 -242 -10 -595 -10 -462 0 -564 2 -592 14 l-34 15 97 98
c118 120 619 665 647 704 11 15 22 26 26 23 3 -2 58 -68 121 -146z"/>
<path d="M957 1524 c-136 -33 -291 -129 -372 -231 -60 -75 -121 -196 -140
-276 -8 -34 -15 -108 -15 -164 0 -93 2 -104 20 -115 13 -8 28 -40 41 -83 42
-140 125 -268 231 -355 35 -29 64 -56 66 -60 3 -8 -60 -33 -123 -49 -49 -12
-218 -41 -468 -80 -104 -16 -192 -32 -195 -35 -3 -3 -2 -9 2 -13 10 -11 4425
-17 5046 -8 276 4 486 11 475 16 -11 4 -139 24 -285 44 -490 67 -616 93 -626
130 -2 6 21 27 51 48 128 88 245 285 271 453 7 46 8 47 16 22 6 -16 13 -28 17
-28 14 0 19 130 9 203 -21 153 -83 272 -208 397 -148 149 -297 205 -520 198
-187 -7 -315 -63 -450 -198 -82 -82 -129 -154 -168 -258 -20 -55 -26 -90 -30
-203 -4 -131 -4 -136 16 -141 15 -4 25 -22 38 -64 41 -143 119 -268 214 -341
27 -21 49 -41 50 -45 0 -5 -542 -8 -1205 -8 -663 0 -1205 3 -1205 8 0 4 17 18
37 32 93 63 193 228 228 378 16 63 19 70 31 55 11 -16 13 -16 19 10 4 16 5 70
3 120 -16 292 -240 565 -524 637 -92 24 -258 26 -347 4z m367 -162 c39 -18 89
-49 113 -68 45 -37 129 -141 121 -149 -2 -3 -28 16 -58 41 -99 85 -211 124
-355 124 -213 0 -379 -107 -475 -305 -36 -75 -49 -121 -68 -255 l-9 -55 -14
45 c-8 27 -14 87 -14 151 0 105 0 106 44 195 71 143 188 242 351 296 44 14 80
17 175 15 111 -3 125 -5 189 -35z m3109 17 c80 -27 147 -70 197 -127 44 -49
53 -74 18 -48 -53 39 -176 89 -252 103 -291 51 -535 -124 -616 -441 -11 -44
-20 -87 -20 -98 0 -10 -4 -18 -9 -18 -15 0 -24 83 -19 175 4 74 10 95 46 168
66 133 180 230 330 283 92 31 236 33 325 3z m-3037 -365 c65 -66 94 -138 94
-232 0 -127 -85 -252 -213 -313 -53 -25 -74 -29 -143 -29 -48 0 -100 7 -128
16 -87 30 -181 138 -211 242 -5 18 -3 22 18 22 44 0 163 69 235 135 39 36 103
108 142 160 l72 94 41 -21 c23 -11 65 -45 93 -74z m3075 68 c105 -67 159 -169
159 -301 0 -67 -4 -87 -30 -138 -37 -74 -111 -146 -186 -180 -50 -23 -66 -25
-142 -21 -106 5 -165 32 -235 107 -40 43 -87 124 -87 150 0 4 26 18 58 31 31
13 80 39 109 57 66 43 196 181 248 261 22 34 45 62 51 62 5 0 30 -13 55 -28z"/>
<path d="M1390 652 c-29 -13 -72 -16 -237 -17 -189 0 -203 -1 -203 -18 0 -31
93 -114 141 -127 87 -24 191 11 270 90 38 38 79 93 67 89 -2 0 -19 -8 -38 -17z"/>
<path d="M4530 652 c-27 -12 -80 -17 -228 -21 l-193 -6 33 -47 c87 -124 243
-123 369 2 46 46 77 91 62 89 -4 0 -24 -8 -43 -17z"/>
<path d="M5530 1335 c0 -151 2 -175 15 -175 25 0 92 38 99 55 3 9 6 64 6 121
0 118 -10 145 -62 163 -60 21 -58 26 -58 -164z"/>
<path d="M110 1481 c-6 -12 -10 -117 -10 -271 l0 -252 29 -29 c27 -26 36 -29
98 -29 l69 0 17 88 c34 183 109 326 233 447 l67 65 -246 0 c-233 0 -247 -1
-257 -19z"/>
</g>
</svg>
