<svg version="1.0" xmlns="http://www.w3.org/2000/svg"
 width="513.000000pt" height="513.000000pt" viewBox="0 0 513.000000 513.000000"
 preserveAspectRatio="xMidYMid meet">
<g transform="translate(0.000000,513.000000) scale(0.100000,-0.100000)"
 stroke="none">
<path d="M2364 4919 c-16 -5 -41 -20 -55 -35 -21 -22 -25 -37 -29 -120 l-5
-95 -82 -33 -82 -33 -48 49 c-60 62 -90 78 -145 78 -41 0 -46 -4 -190 -148
l-148 -148 0 -53 c0 -52 2 -55 63 -118 l63 -65 -35 -84 -36 -84 -78 0 c-95 0
-139 -18 -161 -65 -23 -48 -23 -392 0 -440 22 -48 66 -65 163 -65 69 0 82 -3
87 -17 3 -10 18 -48 33 -85 l29 -66 -50 -49 c-66 -64 -81 -95 -75 -151 5 -43
13 -54 149 -189 l144 -143 53 0 c52 0 55 2 118 63 l65 63 84 -35 84 -36 0 -78
c0 -95 18 -139 65 -161 48 -23 392 -23 440 0 47 22 65 66 65 161 l0 78 84 36
84 36 60 -60 c57 -57 64 -60 117 -65 l57 -5 150 151 151 150 -5 57 c-4 53 -8
60 -66 118 l-61 62 19 35 c11 19 26 56 35 83 l17 47 80 0 c97 0 140 17 163 66
14 29 16 66 13 234 l-3 200 -32 32 c-31 31 -36 32 -126 36 l-93 4 -35 83 -35
83 63 65 c61 63 63 66 63 118 l0 53 -143 144 c-135 136 -146 144 -189 149 -56
6 -87 -9 -151 -75 l-48 -49 -82 33 -82 33 -5 95 c-8 153 -32 166 -290 165 -91
0 -179 -5 -196 -10z m366 -228 c0 -121 1 -123 70 -141 25 -6 82 -29 127 -51
45 -21 94 -39 108 -39 20 0 47 19 99 70 l72 69 109 -109 110 -110 -73 -73
c-46 -47 -72 -80 -72 -95 0 -12 15 -53 34 -90 18 -37 43 -98 56 -135 27 -83
35 -87 166 -87 l95 0 -3 -157 -3 -158 -95 -2 c-138 -4 -135 -2 -160 -79 -12
-37 -37 -98 -56 -135 -19 -38 -34 -79 -34 -91 0 -15 26 -48 72 -95 l73 -73
-111 -111 -111 -111 -75 71 c-46 43 -84 71 -97 71 -12 0 -50 -14 -84 -32 -34
-17 -96 -43 -137 -57 l-75 -26 -5 -115 -5 -115 -160 0 -160 0 -5 115 -5 115
-85 30 c-47 17 -108 43 -137 58 -29 15 -63 27 -75 27 -15 0 -48 -25 -95 -72
l-73 -73 -110 110 -109 109 69 72 c80 83 84 97 43 177 -15 29 -41 90 -58 137
l-30 85 -113 3 -112 3 0 159 0 160 89 0 c125 0 134 5 161 87 13 37 38 98 56
135 19 37 34 78 34 90 0 15 -26 48 -72 95 l-73 73 110 110 109 109 72 -69 c84
-82 102 -86 185 -41 30 16 83 39 119 51 107 36 100 26 100 150 l0 110 165 0
165 0 0 -109z"/>
<path d="M2425 4334 c-225 -48 -403 -226 -450 -449 -19 -91 -19 -215 0 -290
43 -171 164 -320 316 -393 101 -48 162 -62 274 -62 112 0 173 14 274 62 154
73 272 220 316 393 19 75 19 199 0 290 -68 323 -390 521 -730 449z m221 -115
c191 -35 354 -197 394 -394 30 -147 -43 -351 -162 -448 -62 -51 -160 -94 -244
-108 -179 -29 -381 63 -473 215 -124 206 -98 430 68 597 119 119 263 166 417
138z"/>
<path d="M750 2581 c-114 -36 -167 -96 -274 -310 l-85 -170 -33 10 c-43 12
-284 12 -308 -1 -29 -15 -40 -63 -30 -126 9 -53 48 -135 71 -149 6 -4 0 -20
-17 -42 -70 -92 -79 -192 -39 -424 22 -125 25 -174 25 -374 0 -210 2 -233 20
-262 36 -60 59 -68 214 -72 84 -2 155 1 177 8 38 12 99 71 99 96 0 13 47 15
335 15 l335 0 0 -223 c0 -211 1 -225 23 -267 35 -71 69 -84 220 -89 177 -4
230 3 272 40 19 17 40 46 47 65 l12 34 837 0 837 0 6 -31 c8 -42 54 -85 106
-99 27 -7 100 -10 194 -8 171 4 198 12 238 75 22 37 23 47 26 271 l4 232 246
0 247 0 20 -37 c38 -70 59 -78 222 -81 174 -5 218 7 255 66 22 36 23 48 29
322 5 205 11 309 23 370 25 125 24 235 -3 295 -12 27 -32 63 -45 80 l-23 30
29 35 c32 40 58 115 58 172 0 28 -7 46 -25 63 -23 24 -28 25 -162 24 -76 -1
-149 -4 -163 -8 -24 -7 -29 0 -119 172 -101 193 -136 238 -217 278 l-49 24
-541 3 c-530 3 -543 2 -598 -18 -65 -25 -143 -95 -175 -158 l-21 -42 -483 0
-482 0 -30 51 c-35 59 -87 109 -147 141 l-43 23 -545 2 c-300 1 -556 -2 -570
-6z m1063 -122 c39 -11 110 -67 128 -101 9 -17 2 -28 -48 -73 -62 -56 -122
-150 -188 -292 l-38 -83 -614 0 c-337 0 -613 3 -613 7 0 3 52 108 116 232 123
242 159 290 232 309 52 14 976 15 1025 1z m2564 -16 c23 -13 53 -37 66 -55 21
-30 247 -461 247 -473 0 -3 -238 -5 -530 -5 l-530 0 -74 148 c-41 81 -92 168
-114 193 -46 52 -138 105 -200 115 -36 6 -40 9 -32 24 12 23 73 61 114 71 17
4 252 7 521 6 487 -2 490 -2 532 -24z m-1138 -209 c88 -26 119 -67 269 -361
72 -143 132 -263 132 -267 0 -3 -447 -6 -994 -6 l-993 0 127 255 c70 140 139
270 154 290 33 43 93 85 138 95 18 4 276 8 574 9 463 1 548 -1 593 -15z
m-1666 -496 c-77 -120 -100 -145 -140 -151 -21 -4 -60 -20 -86 -37 l-48 -30
-278 0 -278 0 -7 32 c-9 43 -85 115 -131 124 -70 13 -150 0 -190 -30 -32 -25
-67 -69 -79 -101 -6 -16 -109 42 -150 84 l-38 39 18 32 c11 17 37 43 59 56
l40 24 668 0 667 0 -27 -42z m3316 28 c29 -15 91 -80 91 -95 0 -15 -86 -89
-129 -110 -50 -26 -58 -26 -66 0 -4 12 -23 39 -42 60 -99 109 -290 74 -348
-64 l-15 -37 -200 0 c-123 0 -201 4 -205 10 -11 18 -69 44 -125 55 l-55 11
-47 85 c-26 46 -48 87 -48 92 0 4 261 7 580 7 488 0 585 -2 609 -14z m-4302
-221 c73 -51 37 -185 -50 -185 -33 0 -73 36 -83 74 -21 84 67 157 133 111z
m4049 0 c51 -35 55 -127 7 -165 -50 -39 -112 -18 -133 45 -29 89 56 170 126
120z m-4406 -98 c41 -20 80 -37 86 -37 6 0 19 -20 28 -45 65 -168 323 -171
390 -5 l16 40 235 0 c228 0 235 -1 226 -19 -8 -14 -27 -20 -86 -26 -89 -8
-182 -50 -219 -98 -35 -46 -96 -193 -96 -232 0 -18 6 -38 13 -44 9 -6 85 -12
207 -13 l194 -3 7 -33 7 -33 -469 3 -468 3 -30 29 c-16 15 -34 40 -40 55 -5
14 -26 125 -46 246 -20 121 -39 228 -42 239 -3 10 -1 17 3 14 5 -2 43 -20 84
-41z m4720 -198 c-26 -152 -47 -249 -61 -276 -37 -73 -37 -73 -456 -73 l-370
0 5 30 4 30 105 0 c97 0 106 2 128 25 14 13 25 29 25 35 0 6 -19 57 -42 113
-46 110 -91 166 -151 188 -26 9 -37 21 -45 46 l-10 33 148 0 149 0 19 -42 c49
-112 178 -158 288 -103 54 27 84 60 104 116 10 29 20 38 54 48 23 7 64 25 92
41 27 15 50 27 51 26 1 -1 -15 -108 -37 -237z m-1100 207 c45 -23 88 -64 106
-98 13 -25 12 -28 -26 -62 -47 -42 -136 -102 -167 -111 -18 -5 -25 0 -36 27
-34 81 -118 132 -217 133 -53 0 -74 -5 -111 -27 -48 -28 -93 -85 -104 -130
l-7 -28 -638 0 -637 0 -17 43 c-30 78 -97 132 -180 143 -99 14 -202 -40 -241
-125 -10 -23 -22 -41 -27 -41 -40 0 -218 127 -218 156 0 41 88 119 152 134 18
5 551 7 1183 7 1101 -2 1151 -3 1185 -21z m-2666 -253 c3 -16 8 -47 11 -70 l7
-43 -116 0 c-129 0 -132 2 -93 61 27 41 98 79 148 79 33 0 38 -3 43 -27z m654
1 c75 -52 65 -176 -18 -219 -25 -13 -38 -14 -65 -5 -88 29 -111 142 -43 210
34 34 88 41 126 14z m1744 -13 c30 -27 33 -34 33 -90 0 -52 -4 -63 -29 -90
-36 -38 -67 -45 -111 -27 -50 21 -80 89 -65 145 23 86 110 117 172 62z m346
-326 c-28 -165 -57 -305 -67 -325 -10 -19 -33 -45 -51 -58 l-33 -22 -1127 0
-1127 0 -33 23 c-59 39 -68 68 -121 374 -27 157 -47 288 -45 290 2 2 25 -10
51 -28 25 -17 77 -42 113 -55 51 -17 68 -28 73 -46 26 -100 114 -168 215 -168
105 0 176 45 215 134 l24 56 638 0 c567 0 637 -2 637 -15 0 -29 39 -93 75
-123 83 -67 205 -70 293 -5 31 23 82 107 82 136 0 7 21 18 48 26 49 13 166 74
178 92 3 6 7 9 9 7 2 -2 -19 -133 -47 -293z"/>
<path d="M2367 959 c-109 -26 -170 -86 -231 -231 -50 -116 -54 -138 -30 -162
14 -14 77 -16 543 -16 396 0 530 3 539 12 22 22 12 77 -34 183 -56 128 -101
174 -202 205 -57 18 -91 20 -306 19 -132 -1 -258 -5 -279 -10z m566 -137 c46
-23 84 -72 102 -129 l6 -23 -395 0 -396 0 15 38 c30 73 77 115 148 133 18 4
131 7 252 6 209 -2 222 -3 268 -25z"/>
</g>
</svg>
