<svg version="1.0" xmlns="http://www.w3.org/2000/svg"
  viewBox="0 0 536.000000 582.000000"
 preserveAspectRatio="xMidYMid meet">

<g transform="translate(0.000000,582.000000) scale(0.100000,-0.100000)"
 stroke="none">
<path d="M3880 5811 c-116 -22 -235 -84 -331 -173 -26 -24 -140 -145 -254
-270 l-207 -228 -338 0 c-376 0 -500 -9 -626 -46 -245 -71 -445 -238 -569
-474 -41 -78 -94 -139 -610 -699 l-565 -615 0 -557 0 -556 -93 -99 c-127 -136
-174 -197 -213 -278 -98 -204 -82 -452 44 -664 27 -46 159 -198 403 -463 538
-587 558 -606 694 -655 176 -64 393 -23 548 105 26 22 207 214 403 428 l356
388 532 6 c588 6 577 5 726 75 100 47 172 104 242 192 58 74 126 200 149 280
7 23 18 42 25 42 6 0 52 20 101 44 102 52 193 129 258 221 46 64 118 206 131
259 4 17 15 31 28 34 12 3 61 26 110 50 155 77 285 232 353 420 54 150 56 163
60 679 l4 482 -77 3 -77 3 69 76 c129 142 182 263 191 431 9 160 -33 308 -124
445 -43 63 -744 838 -862 952 -64 61 -150 115 -224 141 -70 23 -189 33 -257
21z m127 -569 c36 -29 795 -855 814 -887 26 -42 24 -78 -8 -117 -15 -18 -124
-138 -241 -265 l-213 -233 -969 0 -969 0 -3 -332 c-3 -302 -5 -336 -22 -368
-42 -80 -105 -120 -201 -128 -91 -7 -162 17 -212 71 -69 75 -68 63 -68 637 0
468 2 521 18 580 59 207 188 336 371 369 37 7 234 11 526 11 l466 0 295 321
c161 177 308 330 324 340 37 23 64 24 92 1z m-2588 -2242 c87 -343 267 -546
548 -621 109 -30 297 -30 406 0 137 36 262 115 355 223 107 125 185 313 198
478 3 36 7 75 10 88 l4 22 896 0 896 0 -4 -182 c-3 -163 -6 -188 -26 -233 -28
-61 -55 -90 -107 -118 -35 -19 -61 -22 -206 -25 l-167 -4 -4 -176 c-7 -240
-30 -297 -137 -350 -52 -25 -66 -27 -217 -30 l-162 -4 -4 -192 c-3 -163 -6
-196 -22 -226 -26 -49 -55 -79 -101 -103 -39 -22 -49 -22 -650 -27 l-609 -5
-428 -465 c-236 -256 -441 -472 -458 -480 -28 -13 -34 -12 -63 4 -32 18 -811
858 -834 899 -15 27 -16 62 -2 88 5 11 89 106 185 211 l174 191 0 556 0 557
253 275 252 274 6 -290 c4 -161 12 -310 18 -335z"/>
</g>
</svg>
