<svg version="1.0" xmlns="http://www.w3.org/2000/svg" viewBox="0 0 736.000000 697.000000"
 preserveAspectRatio="xMidYMid meet">

<g transform="translate(0.000000,697.000000) scale(0.100000,-0.100000)"
 stroke="none">
<path d="M3573 6860 c-68 -31 -143 -101 -173 -159 -31 -61 -44 -151 -31 -212
33 -153 152 -244 316 -243 84 0 139 22 207 83 93 83 124 207 83 330 -23 70
-104 157 -186 199 -81 42 -132 42 -216 2z"/>
<path d="M3100 6713 c-103 -16 -213 -47 -471 -134 -343 -114 -469 -147 -594
-155 -141 -8 -154 -11 -148 -34 9 -34 -24 -23 -53 18 -32 45 -87 86 -127 96
-60 14 -140 -32 -176 -101 -19 -37 -13 -107 12 -144 50 -75 127 -102 213 -75
47 15 57 23 81 66 35 62 58 67 48 10 -6 -37 -5 -40 22 -46 36 -10 276 11 373
32 74 16 123 30 450 133 152 47 347 92 461 106 l47 6 6 62 c4 34 15 86 25 115
l18 52 -81 -1 c-45 -1 -92 -3 -106 -6z"/>
<path d="M4067 6708 c18 -21 43 -125 43 -178 l0 -46 96 -12 c108 -14 285 -56
419 -101 143 -47 321 -98 445 -126 144 -32 383 -54 411 -37 29 19 49 14 86
-18 29 -26 41 -30 93 -30 91 0 134 22 165 83 14 28 25 65 25 81 -1 44 -32 108
-69 139 -71 60 -152 57 -228 -8 l-41 -35 -114 0 c-172 0 -267 15 -413 66 -71
25 -193 67 -270 94 -212 74 -411 120 -580 136 -69 6 -78 5 -68 -8z"/>
<path d="M3510 5675 l0 -495 80 0 c48 0 116 -9 170 -22 50 -12 91 -19 93 -17
1 2 1 223 -1 491 l-3 487 -82 -6 c-87 -6 -189 13 -234 43 l-23 14 0 -495z"/>
<path d="M5527 6083 c-9 -21 -48 -114 -88 -208 -39 -93 -103 -244 -142 -335
-100 -234 -177 -423 -177 -436 0 -16 162 -25 172 -10 5 6 21 45 38 86 29 74
96 236 183 440 48 114 144 310 152 310 6 0 55 -105 115 -250 44 -106 187 -415
256 -553 23 -47 32 -57 49 -53 11 2 46 8 78 11 31 4 57 11 57 16 0 18 -50 139
-105 254 -68 142 -159 348 -220 496 -74 182 -126 269 -148 251 -7 -6 -30 -13
-53 -16 -37 -7 -71 1 -135 28 -11 5 -20 -3 -32 -31z"/>
<path d="M1535 6003 c-27 -59 -68 -153 -93 -208 -24 -55 -61 -140 -82 -190
-21 -49 -70 -166 -110 -260 -40 -93 -78 -189 -85 -211 l-13 -41 80 -10 80 -9
14 30 c7 17 42 101 78 186 82 198 136 319 222 499 l69 144 44 -104 c24 -57
100 -230 168 -384 69 -154 133 -300 142 -324 l16 -43 59 6 c32 3 72 6 87 6
l28 0 -18 53 c-19 55 -57 143 -191 447 -45 102 -99 229 -121 283 -51 128 -96
217 -113 223 -8 3 -32 0 -54 -6 -38 -10 -67 -7 -138 15 -19 6 -26 -5 -69 -102z"/>
<path d="M810 5979 c0 -5 5 -7 10 -4 6 3 10 8 10 11 0 2 -4 4 -10 4 -5 0 -10
-5 -10 -11z"/>
<path d="M6420 5745 c-7 -8 -59 -49 -116 -91 -57 -41 -104 -77 -104 -80 0 -2
28 -50 61 -106 218 -365 390 -786 453 -1105 49 -248 60 -380 61 -688 0 -262
-3 -319 -23 -451 -28 -191 -89 -440 -150 -614 -52 -151 -177 -411 -274 -571
-75 -123 -267 -395 -307 -433 l-28 -27 -483 10 c-265 6 -485 12 -487 15 -3 2
-7 50 -10 106 l-6 102 -40 25 -39 25 -25 -24 -25 -23 -1255 -2 c-690 -2 -1259
-5 -1264 -8 -5 -4 -9 -53 -9 -111 0 -76 -3 -104 -12 -104 -7 0 -227 -3 -490
-6 l-476 -6 -64 77 c-248 302 -451 667 -570 1028 -216 655 -208 1424 21 2050
61 165 128 334 147 367 8 14 23 46 34 72 25 61 113 208 196 327 47 68 64 101
62 120 -3 24 -8 26 -63 32 -67 6 -91 17 -152 66 -34 28 -45 32 -61 24 -29 -16
-90 -92 -179 -226 -151 -229 -272 -470 -348 -698 -32 -94 -64 -177 -71 -183
-9 -7 -12 -19 -7 -29 4 -12 3 -16 -5 -11 -7 4 -14 -4 -18 -21 -3 -15 -10 -43
-16 -61 -5 -18 -7 -40 -4 -48 4 -10 2 -13 -6 -8 -7 5 -9 0 -6 -14 3 -12 1 -23
-4 -24 -5 -2 -10 -22 -11 -45 -1 -22 -5 -39 -9 -36 -5 2 -8 -9 -8 -26 0 -16
-5 -33 -10 -36 -8 -5 -7 -12 1 -22 10 -11 10 -16 0 -22 -7 -5 -14 -36 -16 -74
-2 -37 -7 -72 -10 -78 -4 -6 -4 -40 0 -76 6 -58 5 -65 -9 -60 -17 7 -22 -8 -6
-18 6 -3 10 -39 9 -78 -1 -51 -3 -65 -9 -47 -4 14 -8 -69 -7 -189 0 -119 4
-205 9 -195 5 11 7 -13 5 -58 -2 -43 0 -75 5 -72 4 3 8 -11 8 -30 0 -20 -4
-36 -10 -36 -14 0 -12 -41 3 -81 7 -19 13 -62 12 -96 0 -35 3 -63 8 -63 4 0 7
-9 7 -21 0 -13 4 -18 12 -13 7 4 8 3 4 -4 -4 -7 -4 -28 0 -48 4 -23 9 -31 14
-24 5 8 15 -19 25 -66 123 -560 471 -1176 926 -1634 466 -470 1156 -825 1861
-960 254 -48 332 -55 628 -55 260 0 301 3 465 28 877 134 1649 552 2186 1182
174 205 281 359 415 602 147 264 220 441 308 738 43 147 59 225 88 430 19 138
22 204 23 485 0 308 -1 334 -28 505 -60 380 -135 629 -292 965 -97 208 -263
486 -377 633 -33 41 -40 44 -58 22z"/>
<path d="M2960 5036 c-231 -85 -295 -106 -383 -126 -53 -12 -109 -32 -124 -43
-14 -11 -40 -52 -58 -91 -48 -105 -122 -212 -204 -293 -59 -60 -90 -82 -174
-123 -108 -52 -234 -90 -301 -90 -87 0 -112 -10 -126 -46 -8 -19 -17 -34 -21
-34 -15 0 -52 -64 -59 -101 -7 -39 -7 -39 59 -88 36 -26 136 -114 221 -195 85
-81 171 -160 191 -176 l37 -30 52 64 c103 127 212 183 339 174 124 -9 234 -93
266 -201 l16 -55 83 5 c74 5 89 3 138 -19 100 -46 162 -131 175 -238 6 -50 6
-50 43 -50 82 0 137 -19 226 -76 91 -59 359 -303 384 -349 18 -34 88 -59 137
-50 52 9 77 27 98 70 23 49 18 58 -113 175 -57 52 -130 120 -161 151 -31 31
-110 100 -176 153 -206 165 -199 157 -192 206 6 47 35 93 61 98 17 4 63 -31
201 -153 187 -164 316 -284 411 -381 94 -98 103 -104 140 -104 78 0 164 78
164 149 0 19 -130 152 -235 241 -27 23 -122 111 -210 194 -88 83 -186 176
-218 206 -33 30 -63 63 -69 73 -9 17 7 43 72 120 9 11 179 -142 518 -467 156
-150 302 -281 327 -294 38 -20 48 -22 83 -13 53 15 86 43 112 95 20 42 20 47
6 75 -9 16 -42 58 -73 92 -81 87 -394 381 -478 448 -101 81 -253 213 -385 335
-165 153 -214 190 -245 182 -14 -4 -71 -59 -142 -139 -258 -290 -320 -337
-462 -345 -141 -8 -242 44 -309 156 -25 43 -27 56 -27 147 0 96 1 103 35 162
36 64 268 323 395 441 73 68 205 162 227 162 9 0 9 3 -2 10 -8 5 -58 10 -110
10 -75 0 -109 -5 -160 -24z"/>
<path d="M1036 4982 c-9 -8 39 -174 66 -231 65 -138 221 -252 390 -286 90 -18
235 -20 310 -4 82 17 192 72 246 123 101 95 212 266 237 368 l7 26 -134 7
c-119 7 -1115 4 -1122 -3z"/>
<path d="M5224 4980 l-141 -5 31 -95 c51 -153 146 -276 270 -349 80 -47 147
-68 261 -83 254 -31 469 63 603 263 43 64 98 192 104 244 l3 30 -495 0 c-272
1 -559 -2 -636 -5z"/>
<path d="M3430 4954 c-167 -57 -240 -111 -449 -335 -190 -202 -251 -286 -251
-343 0 -53 35 -114 80 -137 81 -44 177 -7 271 103 108 128 281 308 316 329 27
17 55 23 127 26 123 6 86 33 532 -371 115 -104 247 -221 294 -260 47 -39 157
-141 245 -228 88 -87 161 -158 162 -158 0 0 -7 21 -17 48 -10 26 -41 133 -68
237 -28 105 -58 210 -67 234 -8 24 -31 108 -51 185 -74 296 -127 481 -144 499
-4 5 -31 1 -61 -7 -119 -36 -231 -10 -459 104 -211 106 -317 123 -460 74z"/>
<path d="M4730 4935 c-94 -28 -136 -46 -138 -57 -4 -20 14 -90 83 -328 57
-200 88 -311 160 -575 25 -93 62 -224 82 -290 20 -66 47 -169 59 -230 29 -135
42 -175 57 -175 37 0 386 105 597 180 158 56 157 55 142 179 -7 54 -24 145
-38 202 -20 81 -24 119 -20 170 9 97 22 129 78 180 l50 46 -64 2 c-175 5 -376
61 -498 139 -80 50 -172 134 -226 205 -54 71 -136 239 -158 323 -8 31 -18 60
-23 64 -4 3 -69 -12 -143 -35z"/>
<path d="M2314 3671 c-27 -12 -73 -55 -140 -130 -114 -129 -123 -143 -123
-191 -1 -75 53 -147 122 -164 75 -18 108 5 263 179 87 98 96 115 96 175 -1 67
-24 107 -75 131 -53 23 -91 24 -143 0z"/>
<path d="M2700 3426 c-22 -12 -164 -165 -272 -294 -45 -52 -49 -93 -17 -158
25 -53 72 -84 128 -84 62 0 90 19 179 122 44 51 106 118 136 148 67 65 83 108
65 173 -12 47 -32 73 -71 93 -34 18 -115 17 -148 0z"/>
<path d="M3033 3117 c-17 -12 -90 -84 -162 -159 -143 -150 -147 -157 -112
-233 25 -55 62 -86 109 -92 73 -10 108 11 234 139 117 120 158 180 158 234 0
98 -147 171 -227 111z"/>
<path d="M3386 2917 c-9 -30 -31 -74 -51 -100 -19 -25 -35 -53 -35 -61 0 -9
34 -45 77 -81 69 -59 80 -65 121 -65 77 0 152 64 154 131 1 35 -3 39 -147 153
-109 86 -101 84 -119 23z"/>
<path d="M3786 2559 c-56 -57 -157 -103 -228 -103 l-58 -1 0 -65 c0 -36 7 -93
15 -128 8 -35 13 -68 9 -73 -3 -5 -140 -9 -319 -9 -362 0 -398 -5 -456 -59
-37 -36 -39 -41 -39 -99 l0 -62 933 0 c512 0 949 3 970 6 l37 7 0 52 c0 63
-28 111 -80 137 -31 16 -67 18 -285 18 -297 0 -442 8 -449 25 -2 6 0 52 6 101
10 88 2 295 -10 293 -4 0 -24 -18 -46 -40z"/>
<path d="M7170 2545 c0 -14 5 -25 10 -25 6 0 10 11 10 25 0 14 -4 25 -10 25
-5 0 -10 -11 -10 -25z"/>
<path d="M242 2360 c0 -14 2 -19 5 -12 2 6 2 18 0 25 -3 6 -5 1 -5 -13z"/>
<path d="M250 2300 c0 -16 5 -30 10 -30 6 0 10 14 10 30 0 17 -4 30 -10 30 -5
0 -10 -13 -10 -30z"/>
<path d="M6930 1736 c0 -2 7 -7 16 -10 8 -3 12 -2 9 4 -6 10 -25 14 -25 6z"/>
<path d="M6920 1603 c0 -19 21 -27 33 -13 9 10 9 11 -2 5 -8 -4 -17 -2 -22 6
-6 9 -9 10 -9 2z"/>
<path d="M6644 1258 c-4 -7 -3 -8 4 -4 7 4 12 2 12 -3 0 -6 4 -11 10 -11 5 0
7 7 4 15 -7 18 -20 19 -30 3z"/>
<path d="M6165 679 c-4 -6 -5 -12 -2 -15 2 -3 7 2 10 11 7 17 1 20 -8 4z"/>
<path d="M5170 200 c0 -5 5 -10 10 -10 6 0 10 5 10 10 0 6 -4 10 -10 10 -5 0
-10 -4 -10 -10z"/>
<path d="M2370 80 c0 -5 5 -10 10 -10 6 0 10 5 10 10 0 6 -4 10 -10 10 -5 0
-10 -4 -10 -10z"/>
</g>
</svg>
