
<svg version="1.0" xmlns="http://www.w3.org/2000/svg"
 width="512.000000pt" height="512.000000pt" viewBox="0 0 512.000000 512.000000"
 preserveAspectRatio="xMidYMid meet">

<g transform="translate(0.000000,512.000000) scale(0.100000,-0.100000)"
 stroke="none">
<path d="M105 5095 l-25 -24 0 -1256 c0 -1125 -2 -1255 -15 -1255 -9 0 -27
-11 -40 -25 -25 -24 -25 -26 -25 -215 0 -189 0 -191 25 -215 l24 -25 398 0
398 0 -83 -45 c-469 -252 -731 -673 -759 -1221 -6 -122 -6 -122 20 -148 26
-26 29 -26 169 -26 l143 0 29 -90 c81 -254 298 -459 556 -524 408 -104 836
131 958 526 l27 88 648 0 647 0 0 -135 c0 -131 1 -137 25 -160 23 -24 30 -25
142 -25 102 0 125 3 168 24 28 12 56 30 64 39 7 10 17 17 21 17 3 0 23 -24 43
-53 54 -78 171 -187 252 -235 259 -153 588 -146 837 17 434 284 493 886 121
1242 -37 36 -79 72 -92 81 l-23 17 37 33 c21 18 49 55 61 83 42 89 27 177 -43
255 -42 46 -107 80 -155 80 -17 0 -18 12 -18 163 l0 162 215 -3 215 -3 25 25
25 25 0 351 0 351 -25 24 c-20 20 -34 25 -78 25 l-55 0 -7 55 c-9 75 -65 183
-121 235 -25 23 -75 56 -112 73 l-67 32 -807 3 -807 3 -3 287 -3 287 -32 67
c-40 85 -114 161 -191 195 -31 14 -59 27 -61 29 -1 1 11 20 28 41 44 55 82
146 95 225 l10 68 118 0 118 0 0 80 0 80 -132 0 -133 0 -33 64 c-60 115 -177
207 -309 241 -340 89 -667 -238 -578 -578 18 -68 54 -142 91 -186 14 -18 25
-33 23 -35 -2 -2 -30 -15 -61 -29 -77 -34 -151 -110 -191 -195 l-32 -67 0
-580 c0 -539 1 -584 19 -635 22 -65 78 -171 101 -190 9 -7 21 -22 26 -32 9
-17 0 -18 -191 -18 l-200 0 0 1255 0 1256 -25 24 -24 25 -671 0 -671 0 -24
-25z m455 -350 c0 -286 -19 -265 240 -265 259 0 240 -21 240 265 l0 215 160 0
160 0 0 -560 0 -560 -560 0 -560 0 0 560 0 560 160 0 160 0 0 -215z m320 55
l0 -160 -80 0 -80 0 0 160 0 160 80 0 80 0 0 -160z m1651 128 c49 -23 139
-100 139 -120 0 -4 -68 -8 -152 -8 l-151 0 -133 -132 c-151 -149 -150 -149
-148 -18 0 57 6 87 25 125 40 85 122 152 214 176 53 14 149 3 206 -23z m184
-335 c-8 -53 -41 -125 -79 -170 -14 -16 -53 -45 -88 -64 -56 -30 -71 -33 -143
-33 -63 -1 -91 4 -132 23 -90 40 -91 38 43 172 l119 119 143 0 144 0 -7 -47z
m-1 -445 c55 -16 138 -99 154 -154 8 -29 12 -138 12 -353 l0 -312 25 -24 24
-25 469 0 470 0 -14 -37 c-7 -21 -13 -58 -13 -83 0 -25 6 -62 13 -82 l14 -38
-511 0 c-371 0 -521 3 -551 12 -55 16 -138 99 -154 154 -8 28 -12 126 -12 298
l0 256 -81 0 -80 0 3 -288 3 -288 37 -76 c45 -91 103 -148 196 -191 l67 -32
216 -5 216 -5 75 -37 c91 -45 147 -103 191 -196 l32 -67 3 -493 3 -494 -54
-66 c-64 -80 -107 -142 -136 -199 -21 -43 -22 -43 -76 -43 l-55 0 0 536 c0
382 -3 548 -12 576 -15 49 -76 120 -125 144 -35 17 -73 19 -439 24 l-400 5
-76 37 c-91 45 -147 103 -191 196 l-32 67 -3 540 c-2 408 0 551 9 585 16 55
97 140 149 157 51 16 580 17 634 1z m-2154 -683 c0 -286 -19 -265 240 -265
259 0 240 -21 240 265 l0 215 160 0 160 0 0 -560 0 -560 -560 0 -560 0 0 560
0 560 160 0 160 0 0 -215z m320 55 l0 -160 -80 0 -80 0 0 160 0 160 80 0 80 0
0 -160z m3324 -279 c26 -27 31 -39 31 -81 0 -43 -5 -54 -33 -82 -28 -28 -39
-33 -82 -33 -43 0 -54 5 -82 33 -28 28 -33 39 -33 81 0 52 25 92 70 112 37 16
96 3 129 -30z m430 27 c55 -16 138 -99 154 -154 21 -72 22 -71 -79 -76 -78 -5
-100 -11 -163 -42 -88 -43 -146 -102 -189 -194 -29 -61 -32 -76 -32 -162 0
-86 3 -101 31 -161 18 -36 52 -88 78 -114 l46 -49 0 -198 0 -198 -107 0 c-60
0 -132 -3 -160 -6 l-53 -7 0 487 c0 455 1 487 18 492 51 16 100 42 130 68 73
64 110 196 79 284 l-15 42 111 0 c60 0 128 -5 151 -12z m-634 -892 l0 -504
-52 -18 c-57 -18 -185 -81 -233 -113 l-30 -21 -5 438 c-6 418 -7 440 -28 495
-25 68 -75 159 -98 178 -8 7 -20 21 -25 31 -9 17 1 18 231 18 l240 0 0 -504z
m960 264 l0 -240 -136 0 c-78 0 -154 5 -178 12 -55 16 -138 99 -154 154 -28
94 -8 169 63 239 27 28 66 56 85 62 19 6 99 11 178 12 l142 1 0 -240z m-3360
-320 l0 -80 -720 0 -720 0 0 80 0 80 720 0 720 0 0 -80z m1415 55 c28 -27 32
-65 13 -129 -16 -55 -99 -138 -154 -154 -30 -9 -181 -12 -553 -12 l-512 0 -24
25 c-24 23 -25 29 -25 160 l0 135 615 0 616 0 24 -25z m-1385 -325 c17 -42 90
-104 138 -118 28 -9 175 -12 496 -12 l456 0 0 -375 0 -376 25 -24 24 -25 239
0 239 0 -18 -76 c-10 -43 -21 -115 -25 -160 l-7 -84 -1519 0 -1519 0 6 63 c25
236 98 448 215 623 67 100 222 256 320 321 241 162 542 253 891 272 21 1 29
-6 39 -29z m1410 -410 l0 -360 -80 0 -80 0 0 323 0 324 38 11 c20 7 55 23 77
37 22 13 41 25 43 25 1 0 2 -162 2 -360z m1655 95 c30 -29 32 -74 6 -106 -19
-24 -22 -24 -268 -30 -180 -4 -263 -10 -303 -22 -213 -61 -368 -171 -480 -344
-97 -147 -121 -243 -129 -506 -6 -204 -7 -209 -30 -228 -16 -14 -39 -19 -78
-19 l-55 0 4 238 c5 259 15 315 77 461 88 206 282 405 482 494 160 70 249 85
527 86 l223 1 24 -25z m-240 -310 c216 -45 409 -223 478 -440 31 -99 31 -271
0 -370 -63 -199 -229 -365 -428 -428 -99 -31 -271 -31 -370 0 -267 85 -455
338 -455 613 0 236 140 463 350 568 137 69 278 88 425 57z m-3676 -830 c33
-62 99 -121 179 -158 61 -29 76 -32 162 -32 86 0 101 3 162 32 80 37 146 96
179 158 l24 45 127 0 127 0 -10 -32 c-23 -84 -85 -184 -159 -258 -251 -252
-650 -252 -899 -1 -75 75 -137 175 -160 259 l-10 32 127 0 127 0 24 -45z m483
16 c-78 -67 -206 -67 -284 0 l-33 28 175 0 175 0 -33 -28z"/>
<path d="M400 4080 l0 -80 160 0 160 0 0 80 0 80 -160 0 -160 0 0 -80z"/>
<path d="M400 2800 l0 -80 160 0 160 0 0 80 0 80 -160 0 -160 0 0 -80z"/>
<path d="M4226 1190 c-63 -16 -153 -70 -197 -117 -22 -24 -55 -74 -72 -111
-29 -61 -32 -76 -32 -163 0 -90 2 -99 37 -171 45 -91 103 -147 196 -191 61
-29 76 -32 162 -32 86 0 101 3 162 32 93 44 151 100 196 191 35 72 37 81 37
172 0 91 -2 100 -37 172 -68 136 -188 217 -336 224 -42 2 -94 -1 -116 -6z
m168 -162 c86 -26 166 -136 166 -228 0 -124 -116 -240 -240 -240 -124 0 -240
116 -240 240 0 63 23 114 75 165 70 71 145 90 239 63z"/>
</g>
</svg>
