<svg version="1.0" xmlns="http://www.w3.org/2000/svg"
 width="707.000000pt" height="761.000000pt" viewBox="0 0 707.000000 761.000000"
 preserveAspectRatio="xMidYMid meet">

<g transform="translate(0.000000,761.000000) scale(0.100000,-0.100000)"
stroke="none">
<path d="M3300 7509 c-142 -17 -251 -96 -313 -226 -30 -63 -32 -75 -32 -173 0
-124 16 -162 92 -230 51 -45 206 -124 313 -159 151 -49 214 -45 275 18 33 34
85 113 85 130 0 4 -33 17 -72 30 -106 34 -207 89 -229 125 -11 17 -19 50 -19
73 0 51 0 51 206 55 l151 3 -9 40 c-46 206 -235 339 -448 314z"/>
<path d="M3810 7395 c0 -4 16 -32 35 -63 26 -43 60 -139 70 -199 0 -1 54 -9
120 -18 541 -74 1069 -314 1522 -693 210 -175 321 -295 484 -524 260 -363 440
-747 543 -1153 31 -125 76 -426 87 -592 32 -483 -79 -1026 -298 -1450 -140
-271 -382 -601 -577 -785 l-71 -68 190 0 190 0 41 48 c73 85 228 297 298 408
278 439 427 877 477 1404 13 141 7 561 -11 700 -55 426 -182 813 -399 1217
-169 317 -352 565 -596 809 -184 184 -286 267 -535 436 -363 245 -824 423
-1290 497 -153 24 -280 36 -280 26z"/>
<path d="M2835 7383 c-58 -8 -304 -83 -471 -144 -177 -63 -519 -224 -639 -300
-123 -77 -248 -167 -313 -224 l-63 -55 138 -1 c76 0 161 -4 188 -8 50 -9 51
-8 175 66 267 159 671 330 885 374 l61 12 12 73 c6 40 25 103 42 140 33 73 33
75 23 73 -5 -1 -21 -4 -38 -6z"/>
<path d="M2955 6756 c-92 -45 -170 -134 -217 -248 -56 -135 -160 -412 -216
-573 -47 -136 -55 -170 -55 -230 1 -187 142 -339 335 -363 44 -6 221 -8 408
-4 l330 5 0 -391 0 -392 185 0 185 0 0 486 c0 539 2 524 -66 584 -79 69 -77
68 -432 71 -177 2 -322 6 -322 10 0 3 25 68 56 144 l56 137 -140 134 c-78 74
-143 143 -147 153 -6 19 21 101 34 101 3 0 12 -12 18 -28 13 -28 397 -405 446
-437 27 -17 45 -18 300 -10 150 5 308 8 352 6 70 -2 85 1 115 21 77 52 103
143 60 213 -38 62 -49 63 -405 56 l-319 -7 -88 87 c-48 48 -137 124 -198 170
-60 45 -110 87 -110 92 0 5 19 7 44 5 33 -4 63 -19 118 -58 40 -29 76 -58 81
-64 9 -15 20 3 53 86 15 37 24 73 21 81 -3 8 -21 18 -39 22 -43 9 -203 77
-298 126 -42 21 -80 39 -85 39 -6 0 -32 -11 -60 -24z"/>
<path d="M445 6590 c-15 -17 -16 -20 -3 -20 9 0 19 7 22 16 10 25 1 27 -19 4z"/>
<path d="M405 6525 c-19 -24 -13 -60 18 -93 l21 -22 1065 2 1064 3 12 50 c6
28 15 56 19 63 9 15 23 14 -1236 16 -935 1 -946 1 -963 -19z"/>
<path d="M523 6331 c-13 -32 -23 -61 -23 -65 0 -4 17 -6 37 -4 36 3 38 5 45
48 5 28 16 51 30 62 23 17 23 18 -22 18 l-45 0 -22 -59z"/>
<path d="M4435 6329 c-73 -10 -160 -32 -185 -48 -12 -8 -8 -16 23 -44 132
-121 89 -342 -78 -400 l-35 -12 86 -150 c47 -83 111 -199 142 -258 48 -95 56
-116 60 -181 6 -99 -9 -162 -72 -285 -121 -242 -229 -382 -331 -430 -44 -21
-72 -24 -275 -33 -124 -5 -283 -8 -355 -6 -119 3 -135 6 -185 31 -67 34 -113
77 -148 137 -58 98 -19 232 102 353 l63 63 -748 -2 -748 -2 -38 -23 c-118 -71
-238 -188 -321 -312 -71 -106 -71 -104 1 -111 34 -3 136 -8 227 -12 205 -7
408 -36 524 -75 85 -28 209 -90 222 -110 3 -5 37 -25 75 -44 93 -47 176 -100
225 -145 22 -20 62 -50 88 -65 l48 -28 637 2 c698 2 718 4 832 62 76 38 157
119 214 213 22 37 85 131 141 210 203 287 251 371 279 491 23 97 19 150 -15
211 -77 137 -280 413 -336 457 -13 10 -24 27 -24 38 0 16 7 19 43 20 52 0 130
10 137 16 8 8 5 425 -3 456 l-7 27 -98 -1 c-53 -1 -128 -6 -167 -10z"/>
<path d="M453 6242 l-153 -3 0 -44 c0 -32 6 -51 20 -65 20 -20 33 -20 1073
-20 l1052 0 20 64 20 64 -640 7 c-575 6 -934 6 -1392 -3z"/>
<path d="M353 6068 c-25 -28 -56 -88 -49 -95 11 -11 47 10 60 35 20 37 56 69
86 75 14 2 2 5 -26 6 -41 1 -54 -3 -71 -21z"/>
<path d="M349 5950 c-60 -3 -102 -10 -113 -19 -22 -18 -20 -61 5 -91 l21 -25
1046 0 1046 0 17 68 17 67 -712 2 c-1159 3 -1227 3 -1327 -2z"/>
<path d="M529 5619 c-167 -293 -292 -645 -358 -1009 -45 -244 -55 -362 -55
-600 2 -539 81 -913 294 -1380 181 -398 532 -881 845 -1164 195 -176 339 -281
590 -433 104 -63 325 -177 331 -171 1 2 4 63 5 136 l1 133 -143 83 c-294 168
-486 312 -694 521 -273 273 -535 643 -691 973 -130 277 -201 514 -261 877 -25
155 -25 594 0 779 60 432 172 789 355 1131 32 61 70 128 83 150 14 22 29 46
33 53 7 11 -19 13 -139 10 l-146 -3 -50 -86z"/>
<path d="M1808 5288 c-2 -72 1 -132 5 -135 5 -3 322 -3 705 -2 383 2 707 0
720 -4 21 -8 22 -6 22 45 l0 53 -257 0 c-245 0 -262 1 -326 23 -73 26 -156 77
-197 121 l-26 28 -321 0 -322 0 -3 -129z"/>
<path d="M957 5362 c-22 -24 -21 -54 2 -83 19 -24 19 -24 274 -27 140 -2 289
-1 330 3 l75 7 5 41 c11 81 28 77 -342 77 -305 0 -329 -1 -344 -18z"/>
<path d="M1070 5091 c-15 -29 -12 -56 9 -82 19 -24 21 -24 223 -24 l203 0 24
48 c38 77 37 77 -225 77 -211 0 -224 -1 -234 -19z"/>
<path d="M4965 5014 c-39 -98 -55 -126 -129 -229 -217 -303 -238 -336 -249
-402 -20 -114 18 -234 110 -347 67 -83 154 -140 264 -173 49 -15 89 -31 89
-35 0 -10 -64 -4 -145 14 -102 22 -923 19 -909 -3 3 -5 23 -18 45 -30 22 -11
57 -36 79 -55 l38 -35 479 -5 c263 -3 489 -5 503 -6 14 -1 228 4 475 10 441
11 630 23 667 43 19 10 35 55 23 67 -11 11 -458 23 -748 20 -147 -2 -266 1
-264 5 1 5 27 18 57 31 201 81 334 293 317 506 -7 83 -39 208 -65 253 -17 28
-19 28 -82 23 -36 -3 -107 -8 -158 -12 l-93 -6 51 -54 c61 -64 90 -126 97
-204 11 -122 -50 -228 -163 -285 -184 -92 -407 40 -422 249 -9 124 39 223 141
291 99 65 139 74 416 86 182 8 255 7 270 -1 46 -24 20 24 -51 94 -142 141
-300 208 -529 223 l-99 6 -15 -39z"/>
<path d="M905 4600 c-116 -3 -216 -9 -222 -13 -18 -12 -16 -73 3 -91 13 -14
48 -16 227 -16 117 0 222 3 235 6 20 6 22 13 22 65 0 58 0 59 -27 57 -16 -1
-122 -5 -238 -8z"/>
<path d="M5096 4529 c-39 -11 -65 -37 -87 -84 -24 -52 -24 -96 0 -143 45 -87
166 -99 221 -22 30 43 36 100 16 153 -29 77 -88 114 -150 96z"/>
<path d="M1546 4499 c-11 -58 -6 -190 10 -253 49 -190 191 -334 387 -391 31
-9 57 -21 57 -26 0 -12 -18 -12 -127 7 -80 14 -169 16 -597 13 -532 -4 -536
-5 -536 -50 0 -11 8 -27 18 -37 28 -28 240 -41 819 -51 271 -5 496 -11 500
-14 4 -3 96 1 203 9 133 10 343 14 657 13 l462 -2 35 31 c19 17 64 47 100 67
36 20 66 38 66 39 0 2 -640 -2 -1097 -7 -145 -1 -263 1 -263 5 0 5 12 13 28
19 114 42 229 140 282 240 l33 62 -29 24 c-16 13 -64 45 -107 73 l-77 49 -28
-62 c-54 -117 -148 -181 -267 -181 -113 0 -206 57 -256 159 -26 52 -31 75 -30
132 0 37 5 83 10 102 6 19 10 36 8 37 -3 3 -214 24 -237 24 -12 0 -20 -11 -24
-31z"/>
<path d="M1984 4473 c-18 -13 -44 -70 -44 -98 0 -58 61 -137 117 -151 60 -16
147 60 160 138 l5 36 -74 37 c-75 37 -143 53 -164 38z"/>
<path d="M720 4329 c-16 -28 -5 -65 24 -84 19 -13 67 -15 317 -13 l294 3 3 58
3 57 -315 0 c-310 0 -315 0 -326 -21z"/>
<path d="M3694 3729 c-139 -72 -194 -146 -202 -266 l-5 -75 -166 7 -166 7 0
-204 0 -203 632 -1 631 -1 0 205 1 205 -163 -6 -163 -7 -5 78 c-4 69 -9 86
-42 140 -42 70 -100 116 -170 137 -75 22 -117 19 -182 -16z"/>
<path d="M2805 3330 c-211 -4 -244 -7 -275 -24 -59 -32 -100 -67 -131 -113
-63 -91 -59 0 -62 -1467 l-2 -1341 29 -58 c33 -65 101 -133 167 -169 l44 -23
1215 -3 c1369 -3 1264 -9 1360 75 34 31 61 68 87 121 l38 76 0 1345 0 1346
-34 63 c-19 35 -56 82 -82 106 -75 68 -115 76 -364 76 -117 0 -227 -3 -244 -6
l-31 -6 0 -108 0 -107 255 -5 c140 -2 258 -8 262 -12 9 -9 17 -2658 8 -2693
-3 -15 -17 -25 -43 -32 -51 -15 -2343 -15 -2394 0 -26 7 -40 17 -43 32 -3 12
-5 615 -3 1339 l3 1317 23 23 c22 22 29 23 248 26 l225 3 -7 112 c-4 62 -7
112 -8 112 0 0 -109 -2 -241 -5z"/>
<path d="M3344 2878 c-148 -114 -326 -294 -347 -350 -4 -10 -8 -10 -23 -1 -54
36 -77 44 -87 34 -18 -18 -29 -13 -17 8 5 11 10 31 10 45 0 25 1 26 71 26 l70
0 55 52 c52 49 54 53 32 58 -13 3 -96 4 -186 2 l-162 -4 2 -246 3 -247 248 1
c137 0 252 5 257 10 5 5 12 92 16 194 l6 185 -57 -56 c-59 -58 -74 -93 -75
-179 l0 -35 -55 3 c-47 3 -61 0 -88 -21 -30 -23 -34 -23 -57 -9 -32 21 -174
142 -178 153 -2 5 5 12 15 15 10 3 26 10 36 15 24 13 34 4 18 -15 -10 -12 1
-25 59 -73 39 -32 74 -59 78 -60 4 -1 39 34 77 77 39 44 114 128 168 187 148
163 197 223 197 239 0 22 -53 17 -86 -8z"/>
<path d="M3483 2490 l-1 -80 141 -2 c78 -1 377 -2 664 -3 l523 0 0 76 c0 61
-3 78 -16 83 -9 3 -307 6 -662 6 l-647 0 -2 -80z"/>
<path d="M3384 2291 c-63 -46 -360 -344 -368 -369 -6 -17 -13 -22 -24 -17 -67
28 -75 28 -89 10 -25 -35 -15 -59 44 -110 l56 -49 31 38 c30 38 82 95 291 321
115 124 135 151 135 183 0 31 -28 29 -76 -7z"/>
<path d="M2760 1859 l0 -251 252 6 c138 3 256 10 261 15 5 5 11 94 14 197 l5
189 -58 -57 -58 -57 -6 -83 -5 -83 -35 3 c-19 1 -58 -3 -87 -11 -42 -11 -55
-11 -75 -1 -12 7 -37 13 -53 14 -28 0 -32 5 -44 47 -8 25 -22 54 -33 65 -14
14 -15 18 -3 18 19 0 33 27 41 79 l7 41 68 0 c62 0 71 3 104 31 19 17 45 44
56 60 l20 29 -185 0 -186 0 0 -251z"/>
<path d="M3760 1999 c-102 -4 -206 -7 -232 -8 l-47 -1 2 -80 2 -80 663 0 663
0 -3 77 -3 78 -40 6 c-60 10 -792 15 -1005 8z"/>
<path d="M3423 1673 c-31 -6 -369 -328 -400 -380 -14 -24 -29 -43 -34 -43 -5
0 -29 16 -55 35 -25 19 -51 35 -58 35 -9 0 -12 9 -8 26 4 25 7 26 48 20 24 -3
55 -8 69 -12 20 -5 35 4 85 52 33 31 60 61 60 66 0 4 -83 8 -185 8 l-185 0 0
-105 c0 -58 1 -105 3 -105 2 0 21 9 43 19 21 11 40 18 42 17 1 -2 -2 -14 -7
-28 -8 -22 -1 -32 70 -103 l80 -78 26 24 c14 13 37 43 52 66 14 23 94 113 177
200 167 175 214 235 214 270 0 12 -3 22 -7 22 -5 -1 -18 -4 -30 -6z"/>
<path d="M3653 1413 l-173 -3 0 -83 0 -82 665 3 665 2 0 74 c0 55 -4 75 -14
79 -19 7 -916 15 -1143 10z"/>
<path d="M3228 1312 c-61 -63 -68 -79 -68 -156 l0 -66 -57 0 c-41 0 -65 -6
-82 -19 -24 -18 -25 -18 -65 10 -23 15 -70 57 -105 93 -36 36 -68 66 -71 66
-13 0 -20 -59 -20 -155 l0 -92 256 -7 c142 -3 259 -4 262 -2 4 5 3 368 -2 373
-1 1 -23 -19 -48 -45z"/>
</g>
</svg>
