
<svg version="1.0" xmlns="http://www.w3.org/2000/svg"
 width="574.000000pt" height="739.000000pt" viewBox="0 0 574.000000 739.000000"
 preserveAspectRatio="xMidYMid meet">

<g transform="translate(0.000000,739.000000) scale(0.100000,-0.100000)"
 stroke="none">
<path d="M2750 7003 c-335 -23 -615 -84 -866 -188 -437 -183 -764 -437 -1046
-812 -256 -341 -411 -724 -470 -1163 -7 -55 -12 -190 -12 -320 1 -360 50 -618
182 -956 192 -494 553 -1111 990 -1692 85 -114 172 -227 192 -252 255 -315
362 -441 493 -580 202 -216 462 -477 560 -564 l77 -68 107 98 c359 331 678
667 912 958 322 402 570 749 767 1073 191 316 241 406 356 648 241 507 333
850 345 1275 12 445 -93 899 -289 1245 -325 574 -787 959 -1403 1172 -160 55
-418 104 -648 122 -124 11 -150 11 -247 4z m318 -363 c309 -33 640 -143 881
-293 501 -312 845 -831 947 -1432 28 -163 23 -451 -10 -638 -30 -172 -87 -354
-151 -486 -101 -207 -341 -531 -481 -647 -136 -114 -350 -257 -470 -315 -402
-191 -739 -263 -1084 -230 -182 18 -264 36 -461 101 -280 93 -433 172 -661
342 -206 153 -346 301 -487 510 -134 200 -225 418 -277 662 -35 163 -45 520
-20 691 20 140 67 327 107 430 45 115 143 307 203 400 102 157 280 349 441
477 265 210 653 368 1045 423 117 16 348 18 478 5z"/>
<path d="M2741 6278 c1 -84 2 -183 1 -220 l-2 -68 -242 0 c-134 0 -319 -5
-412 -10 l-170 -11 -43 43 c-24 24 -54 58 -66 75 -12 18 -25 32 -29 30 -17 -5
-208 -190 -208 -201 0 -7 20 -31 44 -55 44 -43 44 -44 24 -60 -19 -16 -20 -28
-21 -401 l-2 -385 -291 3 -290 3 -13 -121 c-7 -67 -10 -124 -6 -128 4 -4 139
-8 300 -10 l293 -3 4 -30 c3 -16 2 -148 0 -294 l-5 -265 -278 0 c-175 0 -279
-4 -279 -10 0 -5 12 -45 26 -87 31 -94 69 -157 90 -149 30 12 233 18 337 11
l107 -7 0 -258 c0 -280 2 -270 -56 -270 -28 0 -31 -19 -6 -49 21 -25 284 -231
295 -231 4 0 12 11 16 23 9 23 15 24 147 30 174 9 385 9 587 0 l157 -6 0 -174
0 -173 125 0 125 0 0 558 c0 307 -3 561 -6 564 -3 3 -34 -9 -68 -27 -40 -21
-86 -35 -124 -40 l-62 -7 7 -223 6 -223 -324 -6 c-178 -3 -377 -5 -441 -3
l-118 2 0 350 c0 193 4 356 9 364 6 9 5 21 -1 31 -7 11 -8 76 -2 201 7 137 6
200 -3 246 -11 51 -10 75 2 139 16 85 36 129 89 199 20 26 36 50 36 55 0 13
-37 22 -78 18 l-37 -3 -7 85 c-8 114 -10 439 -2 480 l7 32 187 -187 c180 -180
187 -186 214 -175 52 19 189 12 261 -14 114 -41 91 -8 -194 284 l-220 225 197
3 c108 1 247 -1 307 -5 l110 -8 3 -269 2 -269 36 -48 36 -49 46 32 c25 18 70
56 100 83 l55 51 -11 51 c-8 35 -9 200 -5 534 3 266 3 505 -1 532 l-7 47 -131
0 -131 0 4 -152z"/>
<path d="M3446 6323 c-9 -9 -7 -566 2 -581 6 -9 17 -8 48 7 50 24 143 42 186
34 l34 -5 13 138 c9 105 10 156 1 209 -18 118 -15 114 -132 146 -39 11 -87 28
-108 39 -21 10 -40 16 -44 13z"/>
<path d="M3635 5544 c-16 -9 -210 -198 -430 -420 -221 -222 -406 -404 -413
-404 -7 0 -12 4 -12 9 0 5 -28 36 -62 69 -35 32 -104 98 -155 145 -91 87 -91
87 -145 87 -34 0 -64 -7 -83 -19 -49 -30 -229 -206 -249 -243 -18 -33 -18 -36
-1 -71 9 -20 67 -90 129 -154 129 -136 466 -439 513 -461 54 -26 98 2 258 164
77 78 237 233 355 345 387 368 605 581 633 622 37 54 37 108 -1 168 -36 56
-117 131 -170 158 -49 25 -124 27 -167 5z"/>
<path d="M4083 4994 c-34 -49 -103 -125 -155 -170 -29 -26 -57 -50 -62 -55 -6
-5 -6 -13 0 -21 11 -15 7 -668 -4 -668 -4 0 -85 77 -180 170 -96 94 -178 170
-183 170 -4 0 -16 -15 -25 -32 -9 -18 -48 -64 -87 -101 l-69 -68 30 -23 c46
-33 604 -585 718 -708 l98 -107 71 67 c39 37 87 79 106 94 l34 27 -55 54 c-30
29 -88 88 -129 130 l-73 77 7 471 8 472 275 -6 275 -6 -8 82 c-5 45 -9 102
-11 127 l-2 45 -280 3 -281 2 -18 -26z"/>
</g>
</svg>
