<svg width="25" height="25" viewBox="0 0 25 25" fill="none" xmlns="http://www.w3.org/2000/svg">
<path d="M21.4844 2.73438H3.51562C3.0835 2.73438 2.73438 3.0835 2.73438 3.51562V21.4844C2.73438 21.9165 3.0835 22.2656 3.51562 22.2656H21.4844C21.9165 22.2656 22.2656 21.9165 22.2656 21.4844V3.51562C22.2656 3.0835 21.9165 2.73438 21.4844 2.73438ZM8.52783 19.3774H5.62988V10.0562H8.52783V19.3774ZM7.08008 8.78174C6.74787 8.78174 6.42312 8.68323 6.14689 8.49866C5.87067 8.31409 5.65538 8.05176 5.52825 7.74484C5.40112 7.43792 5.36785 7.10019 5.43267 6.77436C5.49748 6.44853 5.65745 6.14924 5.89236 5.91433C6.12727 5.67942 6.42656 5.51945 6.75239 5.45464C7.07822 5.38983 7.41594 5.42309 7.72287 5.55022C8.02979 5.67735 8.29212 5.89264 8.47669 6.16887C8.66125 6.44509 8.75977 6.76984 8.75977 7.10205C8.75732 8.02979 8.00537 8.78174 7.08008 8.78174ZM19.3774 19.3774H16.4819V14.8438C16.4819 13.7622 16.4624 12.373 14.9756 12.373C13.4692 12.373 13.2373 13.5498 13.2373 14.7656V19.3774H10.3442V10.0562H13.1226V11.3306H13.1616C13.5474 10.5981 14.4922 9.82422 15.9033 9.82422C18.8379 9.82422 19.3774 11.7554 19.3774 14.2651V19.3774Z"/>
</svg>
