<svg width="27" height="28" viewBox="0 0 27 28" fill="none" xmlns="http://www.w3.org/2000/svg">
<path d="M1 7.5L6.47576 1.767C6.70678 1.52368 6.98151 1.33064 7.28412 1.199C7.58673 1.06736 7.91124 0.999729 8.23893 1H18.5944C18.9221 0.999729 19.2466 1.06736 19.5492 1.199C19.8519 1.33064 20.1266 1.52368 20.3576 1.767L25.8334 7.5M3.48334 14V24.4C3.48334 25.0896 3.74497 25.7509 4.21069 26.2385C4.67641 26.7261 5.30805 27 5.96667 27H20.8667C21.5253 27 22.157 26.7261 22.6227 26.2385C23.0884 25.7509 23.35 25.0896 23.35 24.4V14" stroke="#EC6131" stroke-width="2" stroke-linecap="round" stroke-linejoin="round"/>
<path d="M17.1417 26.9995V21.7995C17.1417 21.1099 16.8801 20.4486 16.4143 19.961C15.9486 19.4734 15.317 19.1995 14.6584 19.1995H12.175C11.5164 19.1995 10.8848 19.4734 10.419 19.961C9.95332 20.4486 9.69168 21.1099 9.69168 21.7995V26.9995M1 7.49951H25.8334V11.3995C25.8334 12.0891 25.5717 12.7504 25.106 13.238C24.6403 13.7256 24.0087 13.9995 23.35 13.9995C22.6246 13.9577 21.9317 13.6703 21.3758 13.1805C21.2276 13.0684 21.0495 13.0081 20.8667 13.0081C20.6839 13.0081 20.5058 13.0684 20.3576 13.1805C19.8017 13.6703 19.1088 13.9577 18.3834 13.9995C17.6579 13.9577 16.965 13.6703 16.4091 13.1805C16.261 13.0684 16.0828 13.0081 15.9 13.0081C15.7172 13.0081 15.5391 13.0684 15.3909 13.1805C14.835 13.6703 14.1422 13.9577 13.4167 13.9995C12.6912 13.9577 11.9984 13.6703 11.4424 13.1805C11.2943 13.0684 11.1161 13.0081 10.9333 13.0081C10.7506 13.0081 10.5724 13.0684 10.4243 13.1805C9.86833 13.6703 9.17548 13.9577 8.45001 13.9995C7.72455 13.9577 7.03169 13.6703 6.47576 13.1805C6.3276 13.0684 6.14947 13.0081 5.96667 13.0081C5.78388 13.0081 5.60575 13.0684 5.45759 13.1805C4.90166 13.6703 4.2088 13.9577 3.48334 13.9995C2.82472 13.9995 2.19307 13.7256 1.72735 13.238C1.26164 12.7504 1 12.0891 1 11.3995V7.49951Z" stroke="#EC6131" stroke-width="2" stroke-linecap="round" stroke-linejoin="round"/>
</svg>
