<svg width="27" height="29" viewBox="0 0 27 29" fill="none" xmlns="http://www.w3.org/2000/svg">
<path d="M25.9589 27.6953L25.9645 27.7061L25.9704 27.7167C25.9822 27.7383 25.9926 27.7672 25.9974 27.8019C26.0021 27.8366 26.0004 27.872 25.993 27.9047C25.9857 27.9368 25.9739 27.9616 25.9625 27.9787C25.9585 27.9727 25.9543 27.9655 25.9502 27.957L25.9446 27.9455L25.9388 27.9342C23.3468 22.9309 18.7106 19.8621 13.5 19.8621C8.28945 19.8621 3.65319 22.9309 1.06125 27.9342L1.05539 27.9455L1.04983 27.957C1.04569 27.9655 1.04147 27.9727 1.03746 27.9787C1.02604 27.9616 1.0143 27.9368 1.00702 27.9047C0.999599 27.872 0.997927 27.8366 1.00265 27.8019C1.00737 27.7672 1.01777 27.7383 1.02963 27.7167L1.03551 27.706L1.04114 27.6951C2.91268 24.0798 5.77282 21.5306 9.06631 20.3299L10.9242 19.6526L9.27749 18.5577C7.71153 17.5165 6.475 15.9156 5.779 13.9843C5.08285 12.0526 4.97275 9.91374 5.46834 7.90175C5.96387 5.89 7.03239 4.13514 8.48884 2.89548C9.94308 1.6577 11.704 1 13.5 1C15.296 1 17.0569 1.6577 18.5112 2.89548C19.9676 4.13514 21.0361 5.89 21.5317 7.90175C22.0273 9.91374 21.9172 12.0526 21.221 13.9843C20.525 15.9156 19.2885 17.5165 17.7225 18.5577L16.0766 19.6521L17.9334 20.3298C21.2272 21.532 24.0874 24.0814 25.9589 27.6953ZM5.23778 10.433L5.23778 10.434C5.24006 12.816 6.08726 15.1189 7.62208 16.8332C9.16012 18.5511 11.2707 19.5418 13.4988 19.5445H13.5C15.1604 19.5445 16.7727 18.9939 18.1328 17.9789C19.4912 16.9651 20.5346 15.5363 21.147 13.8849C21.7593 12.2337 21.9183 10.4221 21.6072 8.67521C21.2961 6.92827 20.5261 5.31019 19.3802 4.03029C18.2333 2.74927 16.7581 1.86207 15.1337 1.50117C13.5079 1.13996 11.8241 1.3267 10.301 2.03139C8.77983 2.73515 7.4978 3.91822 6.60352 5.41313C5.70964 6.90736 5.23778 8.654 5.23778 10.433Z" stroke="#EC6131" stroke-width="2"/>
</svg>
