<svg width="31" height="30" viewBox="0 0 31 30" fill="none" xmlns="http://www.w3.org/2000/svg">
<path d="M2.64946 1.9751L26.4992 24.7961C26.9517 25.2292 27.2059 25.8165 27.2059 26.4289C27.2059 27.0413 26.9517 27.6286 26.4992 28.0617C26.0465 28.4945 25.4328 28.7377 24.7928 28.7377C24.1529 28.7377 23.5391 28.4945 23.0864 28.0617L17.2604 22.3909C16.8792 22.0205 16.6653 21.5215 16.6649 21.0016V20.6591C16.6649 20.3965 16.6105 20.1366 16.5047 19.8944C16.3989 19.6522 16.2439 19.4325 16.0486 19.248L15.2964 18.5834C15.0411 18.358 14.7306 18.1976 14.3935 18.1171C14.0564 18.0365 13.7035 18.0384 13.3674 18.1226C12.8373 18.2549 12.2803 18.2524 11.7516 18.1152C11.2229 17.9779 10.7409 17.7108 10.3534 17.3403L4.8232 12.048C1.54252 8.9088 0.33524 4.16844 2.64946 1.9751Z" stroke="#EC6131" stroke-width="2" stroke-linejoin="round"/>
<path d="M24.8213 1L19.8207 5.78496C19.4359 6.15309 19.1306 6.59015 18.9224 7.07117C18.7141 7.55219 18.6069 8.06776 18.6069 8.58843V9.50887C18.6069 9.6391 18.5801 9.76806 18.5281 9.88837C18.476 10.0087 18.3996 10.118 18.3033 10.21L17.5712 10.9106M19.6427 12.8927L20.3748 12.1922C20.471 12.1001 20.5852 12.027 20.711 11.9771C20.8367 11.9273 20.9715 11.9016 21.1076 11.9017H22.0695C22.6136 11.9017 23.1525 11.7991 23.6552 11.5998C24.1579 11.4006 24.6146 11.1085 24.9993 10.7403L30 5.9553M27.4107 3.47765L22.232 8.43295M11.8747 21.8123L5.41944 28.0237C4.93387 28.4882 4.27538 28.7492 3.58878 28.7492C2.90218 28.7492 2.24369 28.4882 1.75812 28.0237C1.2727 27.5591 1 26.929 1 26.272C1 25.6151 1.2727 24.985 1.75812 24.5203L7.21385 19.3346" stroke="#EC6131" stroke-width="2" stroke-linecap="round" stroke-linejoin="round"/>
</svg>
