<svg width="25" height="25" viewBox="0 0 25 25" fill="none" xmlns="http://www.w3.org/2000/svg">
<path d="M8.12516 2.08325H16.8752C20.2085 2.08325 22.9168 4.79159 22.9168 8.12492V16.8749C22.9168 18.4773 22.2803 20.014 21.1473 21.147C20.0142 22.2801 18.4775 22.9166 16.8752 22.9166H8.12516C4.79183 22.9166 2.0835 20.2083 2.0835 16.8749V8.12492C2.0835 6.52257 2.72003 4.98585 3.85306 3.85282C4.98609 2.71978 6.52281 2.08325 8.12516 2.08325ZM7.91683 4.16659C6.92227 4.16659 5.96844 4.56167 5.26518 5.26494C4.56192 5.9682 4.16683 6.92202 4.16683 7.91659V17.0833C4.16683 19.1562 5.84391 20.8333 7.91683 20.8333H17.0835C18.0781 20.8333 19.0319 20.4382 19.7351 19.7349C20.4384 19.0316 20.8335 18.0778 20.8335 17.0833V7.91659C20.8335 5.84367 19.1564 4.16659 17.0835 4.16659H7.91683ZM17.9689 5.72909C18.3142 5.72909 18.6454 5.86627 18.8896 6.11046C19.1338 6.35464 19.271 6.68583 19.271 7.03117C19.271 7.3765 19.1338 7.70769 18.8896 7.95188C18.6454 8.19607 18.3142 8.33325 17.9689 8.33325C17.6236 8.33325 17.2924 8.19607 17.0482 7.95188C16.804 7.70769 16.6668 7.3765 16.6668 7.03117C16.6668 6.68583 16.804 6.35464 17.0482 6.11046C17.2924 5.86627 17.6236 5.72909 17.9689 5.72909ZM12.5002 7.29159C13.8815 7.29159 15.2063 7.84032 16.183 8.81707C17.1598 9.79382 17.7085 11.1186 17.7085 12.4999C17.7085 13.8813 17.1598 15.206 16.183 16.1828C15.2063 17.1595 13.8815 17.7083 12.5002 17.7083C11.1188 17.7083 9.79407 17.1595 8.81731 16.1828C7.84056 15.206 7.29183 13.8813 7.29183 12.4999C7.29183 11.1186 7.84056 9.79382 8.81731 8.81707C9.79407 7.84032 11.1188 7.29159 12.5002 7.29159ZM12.5002 9.37492C11.6714 9.37492 10.8765 9.70416 10.2905 10.2902C9.7044 10.8763 9.37516 11.6711 9.37516 12.4999C9.37516 13.3287 9.7044 14.1236 10.2905 14.7096C10.8765 15.2957 11.6714 15.6249 12.5002 15.6249C13.329 15.6249 14.1238 15.2957 14.7099 14.7096C15.2959 14.1236 15.6252 13.3287 15.6252 12.4999C15.6252 11.6711 15.2959 10.8763 14.7099 10.2902C14.1238 9.70416 13.329 9.37492 12.5002 9.37492Z" fill="white"/>
</svg>
