<svg width="167" height="165" viewBox="0 0 167 165" fill="none" xmlns="http://www.w3.org/2000/svg">
<path d="M29.6364 81.0235V74.5235H23.1364H16.0637L83.0449 6.75567L83.0469 6.75357C83.1702 6.62872 83.2774 6.5662 83.348 6.5358C83.4172 6.50602 83.4663 6.5 83.5 6.5C83.5337 6.5 83.5828 6.50602 83.652 6.5358C83.7226 6.5662 83.8298 6.62872 83.9531 6.75357L83.9551 6.75567L150.936 74.5235H143.864H137.364V81.0235V156.602C137.364 157.317 137.102 157.88 136.819 158.196C136.684 158.346 136.564 158.421 136.484 158.458C136.407 158.493 136.353 158.5 136.318 158.5H30.6818C30.6466 158.5 30.5928 158.493 30.5155 158.458C30.4364 158.421 30.3159 158.346 30.1813 158.196C29.8977 157.88 29.6364 157.317 29.6364 156.602V81.0235ZM31.7273 148.205V154.705H38.2273H128.773H135.273V148.205V65.5466V62.8763L133.395 60.9772L88.1228 15.1764L83.5 10.4997L78.8772 15.1764L33.6045 60.9772L31.7273 62.8763V65.5466V148.205ZM61.2906 110.081L65.0749 107.65L64.1336 103.252C63.3672 99.6712 63.3672 95.9328 64.1336 92.3519L65.0749 87.9537L61.2906 85.5227L58.7984 83.9217L60.3291 80.9711L61.8056 81.9212L66.3327 84.8345L70.0382 80.9292C72.34 78.5032 75.066 76.7698 77.969 75.8038L82.4168 74.3238V69.6363V66.5294H84.5077V69.6363V74.3244L88.9562 75.8041C91.8917 76.7805 94.603 78.5299 96.893 80.9362L100.599 84.8301L105.119 81.9212L106.597 80.9702L108.127 83.9183L105.63 85.5255L101.85 87.9574L102.791 92.3519C103.557 95.9328 103.557 99.6712 102.791 103.252L101.85 107.65L105.634 110.081L108.125 111.682L106.594 114.631L105.115 113.68L100.592 110.774L96.889 114.672C94.5868 117.095 91.8611 118.827 88.9586 119.791L84.5077 121.269V125.959V129.075H82.4168V125.951V121.261L77.966 119.782C75.0635 118.818 72.3378 117.087 70.0355 114.664L66.3329 110.766L61.8099 113.672L60.3288 114.623L58.8007 111.681L61.2906 110.081ZM83.1982 116.885C85.6962 116.986 88.1707 116.524 90.4646 115.548C92.7558 114.573 94.7968 113.115 96.4863 111.302C98.1744 109.49 99.4825 107.357 100.365 105.047C101.246 102.737 101.694 100.275 101.694 97.802C101.694 95.3288 101.246 92.8666 100.365 90.5569C99.4825 88.2468 98.1744 86.1136 96.4863 84.3023C94.7969 82.4894 92.7558 81.0314 90.4646 80.0561C88.1707 79.0796 85.6962 78.6177 83.1982 78.7193C78.361 78.916 73.944 81.1907 70.8147 84.8031C67.7029 88.3951 66.0573 93.0625 66.0573 97.802C66.0573 102.542 67.7029 107.209 70.8147 110.801C73.944 114.413 78.361 116.688 83.1982 116.885Z" stroke="black" stroke-width="13"/>
</svg>
