<svg width="256" height="256" viewBox="0 0 256 256"  xmlns="http://www.w3.org/2000/svg">
<path d="M142 176C142 177.591 141.368 179.117 140.243 180.243C139.117 181.368 137.591 182 136 182C132.287 182 128.726 180.525 126.101 177.899C123.475 175.274 122 171.713 122 168V128C122 127.47 121.789 126.961 121.414 126.586C121.039 126.211 120.53 126 120 126C118.409 126 116.883 125.368 115.757 124.243C114.632 123.117 114 121.591 114 120C114 118.409 114.632 116.883 115.757 115.757C116.883 114.632 118.409 114 120 114C123.713 114 127.274 115.475 129.9 118.101C132.525 120.726 134 124.287 134 128V168C134 168.53 134.211 169.039 134.586 169.414C134.961 169.789 135.47 170 136 170C137.591 170 139.117 170.632 140.243 171.757C141.368 172.883 142 174.409 142 176ZM124 94C125.978 94 127.911 93.4135 129.556 92.3147C131.2 91.2159 132.482 89.6541 133.239 87.8268C133.996 85.9996 134.194 83.9889 133.808 82.0491C133.422 80.1093 132.47 78.3275 131.071 76.9289C129.673 75.5304 127.891 74.578 125.951 74.1921C124.011 73.8063 122 74.0043 120.173 74.7612C118.346 75.5181 116.784 76.7998 115.685 78.4443C114.587 80.0888 114 82.0222 114 84C114 86.6522 115.054 89.1957 116.929 91.0711C118.804 92.9464 121.348 94 124 94ZM230 128C230 148.174 224.018 167.894 212.81 184.668C201.602 201.442 185.672 214.516 167.034 222.236C148.396 229.956 127.887 231.976 108.101 228.04C88.3148 224.104 70.1401 214.39 55.8752 200.125C41.6102 185.86 31.8956 167.685 27.9599 147.899C24.0243 128.113 26.0442 107.604 33.7643 88.9663C41.4845 70.3282 54.5581 54.398 71.3319 43.1901C88.1057 31.9822 107.826 26 128 26C155.042 26.0318 180.968 36.7884 200.09 55.9102C219.212 75.032 229.968 100.958 230 128ZM218 128C218 110.2 212.722 92.7991 202.832 77.9987C192.943 63.1983 178.887 51.6627 162.442 44.8508C145.996 38.039 127.9 36.2567 110.442 39.7293C92.9836 43.202 76.9472 51.7737 64.3604 64.3604C51.7737 76.9471 43.202 92.9836 39.7294 110.442C36.2567 127.9 38.039 145.996 44.8509 162.442C51.6628 178.887 63.1983 192.943 77.9987 202.832C92.7991 212.722 110.2 218 128 218C151.861 217.974 174.738 208.483 191.61 191.61C208.483 174.738 217.974 151.861 218 128Z" />
</svg>
