<svg width="175" height="170" viewBox="0 0 175 170" fill="none" xmlns="http://www.w3.org/2000/svg">
<mask id="path-1-inside-1_7551_3" fill="white">
<path d="M87.5625 0.624516C89.266 0.643852 89.266 0.643852 91.0039 0.663578C94 0.999516 94 0.999516 97 2.99952C98.168 5.09327 98.168 5.09327 99.1875 7.49952C99.5317 8.29358 99.8759 9.08764 100.23 9.90577C101 11.9995 101 11.9995 101 13.9995C108.103 14.676 111.388 13.6877 116.957 9.21436C119 7.99952 119 7.99952 120.938 8.18311C121.618 8.45252 122.299 8.72194 123 8.99952C123.839 9.29084 124.678 9.58217 125.543 9.88233C128.604 11.3201 130.676 12.5182 133 14.9995C133.825 19.0567 133.883 22.4006 133.742 26.5386C133.726 30.0015 133.726 30.0015 135.582 32.4878C138.909 34.5675 140.961 34.0335 144.812 33.562C151.256 33.3401 151.256 33.3401 154.508 36.2222C157.209 40.285 159.101 43.1799 158.824 48.1597C158.014 50.9526 157.311 52.219 155.375 54.312C153.009 57.3355 152.74 59.1336 153.188 62.937C153.43 64.2965 153.692 65.6534 154 66.9995C154.615 67.1929 155.23 67.3862 155.863 67.5855C156.672 67.8458 157.48 68.1062 158.312 68.3745C159.113 68.6298 159.914 68.885 160.738 69.148C163 69.9995 163 69.9995 166 71.9995C166.221 74.788 166.281 77.3461 166.188 80.1245C166.174 80.8786 166.16 81.6327 166.146 82.4097C166.111 84.2733 166.057 86.1365 166 87.9995C164.378 88.8377 162.752 89.6699 161.125 90.4995C160.22 90.9636 159.315 91.4276 158.383 91.9058C156 92.9995 156 92.9995 154 92.9995C154 93.6595 154 94.3195 154 94.9995C155.05 95.5448 155.05 95.5448 156.121 96.1011C160.197 98.7887 162.368 102.362 165.062 106.375C166.094 107.883 167.126 109.391 168.16 110.898C168.644 111.61 169.127 112.323 169.625 113.057C171.096 115.195 171.096 115.195 173.371 117.789C175 120 175 120 175 124C173.085 124.816 171.168 125.627 169.25 126.437C168.183 126.889 167.115 127.342 166.016 127.808C163 129 163 129 159 130C158.67 135.61 158.34 141.22 158 147C147.042 150.768 136.08 154.521 125.105 158.241C120.192 159.908 115.285 161.592 110.388 163.308C108.458 163.981 106.526 164.643 104.591 165.301C102.306 166.077 100.028 166.87 97.7568 167.685C90.6959 170.041 86.0588 170.285 79 168C78.3799 167.801 77.7597 167.603 77.1208 167.399C71.6746 165.645 66.2752 163.764 60.875 161.875C58.331 160.992 55.7862 160.113 53.2414 159.233C51.5541 158.649 49.867 158.065 48.1802 157.48C41.0126 154.996 33.8255 152.574 26.625 150.187C25.6284 149.856 24.6318 149.525 23.605 149.185C21.4038 148.455 19.202 147.727 17 147C17 141.39 17 135.78 17 130C15.4944 129.566 13.9887 129.133 12.4375 128.687C8.1257 127.399 4.0906 125.867 0 124C0.552835 120.059 1.64728 117.672 4.01953 114.496C4.6299 113.673 5.24027 112.849 5.86914 112.001C6.51045 111.155 7.15176 110.309 7.8125 109.437C8.44221 108.587 9.07191 107.737 9.7207 106.861C15.4247 99.2296 15.4247 99.2296 19 95.9995C19.66 95.9995 20.32 95.9995 21 95.9995C21 95.0095 21 94.0195 21 92.9995C20.0777 92.7095 20.0777 92.7095 19.1367 92.4136C18.3285 92.1532 17.5202 91.8928 16.6875 91.6245C15.887 91.3693 15.0865 91.1141 14.2617 90.8511C12 89.9995 12 89.9995 9 87.9995C8.77892 85.211 8.71892 82.653 8.8125 79.8745C8.82604 79.1204 8.83957 78.3663 8.85352 77.5894C8.8889 75.7258 8.94271 73.8626 9 71.9995C10.6225 71.1613 12.2481 70.3291 13.875 69.4995C15.2324 68.8034 15.2324 68.8034 16.6172 68.0933C19 66.9995 19 66.9995 21 66.9995C22.0755 62.8637 22.8089 59.4816 20.6953 55.6089C19.5735 54.089 18.4511 52.5694 17.3281 51.0503C16 48.9995 16 48.9995 15.75 45.9995C16.1625 45.0095 16.575 44.0195 17 42.9995C17.3081 42.2183 17.6162 41.4372 17.9336 40.6323C19.3633 37.773 20.493 36.006 23 33.9995C26.6636 33.6006 30.0869 33.8135 33.7617 34.0308C37.5495 34.0102 37.5495 34.0102 40.375 31.812C42.5156 28.4573 41.9268 25.414 41.625 21.562C41.4648 18.1519 41.4648 18.1519 42 14.9995C45.1602 11.5874 48.5993 9.48423 53 7.99952C56.6315 8.23949 58.5653 9.18239 61.25 11.562C65.3349 14.7001 69.031 14.5066 74 13.9995C74.1702 13.3962 74.3403 12.793 74.5156 12.1714C74.8791 10.9726 74.8791 10.9726 75.25 9.74952C75.482 8.96061 75.7141 8.1717 75.9531 7.35889C78.5104 1.59538 81.4262 0.470934 87.5625 0.624516ZM84 7.99952C83.5243 9.1384 83.5243 9.1384 83.0391 10.3003C79.3237 18.2134 79.3237 18.2134 75.5859 20.4331C70.9306 21.9028 66.6865 22.6658 62 20.9995C60.7953 20.127 59.6085 19.2293 58.4375 18.312C56.745 16.9353 56.745 16.9353 55 15.9995C52.3435 16.577 50.915 17.0846 49 18.9995C48.9733 21.187 48.9537 23.3745 48.9375 25.562C48.5808 30.6226 48.0989 33.978 44.75 37.8745C40.9577 41.1369 38.115 41.3706 33.1875 41.2495C32.0879 41.1309 30.9884 41.0123 29.8555 40.8901C26.9036 40.6849 26.9036 40.6849 25.1094 42.8315C23.8045 44.9555 23.8045 44.9555 24.0625 47.437C24.8819 50.1485 24.8819 50.1485 27.0625 52.3745C30.0456 56.4161 29.3681 59.4793 28.668 64.273C27.774 68.1445 27.0311 70.3341 23.6094 72.5425C20.875 73.812 20.875 73.812 18.1797 74.8316C15.8671 75.7885 15.8671 75.7885 15.1328 77.8862C14.9804 80.3108 14.9809 81.7769 16 83.9995C18.1851 85.213 18.1851 85.213 20.8125 86.1245C24.0371 87.5856 25.6372 88.3472 27.375 91.4722C28.3125 94.187 28.3125 94.187 28.9883 96.7925C29.8403 99.2213 29.8403 99.2213 32.418 100.363C35.0912 101.266 35.0912 101.266 38 99.9995C37.7834 99.4143 37.5669 98.8291 37.3438 98.2261C32.6149 83.6456 33.7826 68.0838 40.625 54.437C43.9902 48.5605 48.7905 41.1043 55 37.9995C55 37.3395 55 36.6795 55 35.9995C56.077 35.5819 56.077 35.5819 57.1758 35.1558C59.9072 34.0375 62.5321 32.786 65.1875 31.4995C78.5206 25.4649 93.1505 25.3259 107 29.9995C110.052 31.4676 112.954 33.0467 115.855 34.7925C117.88 36.163 117.88 36.163 120 35.9995C120 36.6595 120 37.3195 120 37.9995C121.166 39.0681 122.385 40.0798 123.625 41.062C128.085 44.8598 131.066 48.9603 134 53.9995C134.588 55.0069 134.588 55.0069 135.188 56.0347C142.153 68.916 141.683 85.2483 137.656 99.0073C137.44 99.6648 137.223 100.322 137 101C140.735 100.502 142.812 100.125 146 97.9995C146.644 95.9722 146.644 95.9722 147.062 93.687C148.013 90.4507 148.62 89.2679 151.414 87.2964C153.911 86.0725 156.396 84.9719 159 83.9995C159 81.3595 159 78.7195 159 75.9995C158.313 75.743 157.626 75.4865 156.918 75.2222C149.75 72.1767 149.75 72.1767 147.668 68.9097C146.085 64.3484 145.29 59.7951 146 54.9995C147.21 53.1097 148.549 51.3914 149.945 49.6362C151.261 47.9298 151.261 47.9298 150.938 45.187C150.095 42.8467 150.095 42.8467 148 40.9995C145.956 41.0632 143.913 41.1996 141.875 41.3745C136.957 41.4181 134.033 41.1214 130.25 37.8745C126.123 33.0859 126.196 28.1878 126.328 22.0737C126.308 18.9242 126.308 18.9242 124.133 17.0464C122.02 15.729 122.02 15.729 119.625 16.562C116.869 17.9867 116.869 17.9867 114.125 20.187C110.098 22.5226 108.456 22.152 104 20.9995C103.325 20.868 102.649 20.7365 101.953 20.6011C98.3074 19.6554 96.516 18.7722 94.3828 15.5776C93.1362 13.0844 92.0131 10.5956 91 7.99952C88.69 7.99952 86.38 7.99952 84 7.99952ZM56 44.9995C55.389 45.4984 54.778 45.9972 54.1484 46.5112C46.9613 52.7961 41.5481 63.3542 40.8652 72.8794C40.3526 83.3976 39.879 94.987 47.0938 103.458C50.5344 106.467 53.5855 107.713 57.8633 109.148C58.6141 109.41 59.3649 109.671 60.1385 109.941C61.7203 110.487 63.3046 111.027 64.8914 111.559C67.3028 112.371 69.7008 113.217 72.0996 114.066C73.6451 114.595 75.1913 115.123 76.7383 115.648C77.8012 116.026 77.8012 116.026 78.8856 116.411C86.6898 118.969 93.0096 117.269 100.641 114.636C101.675 114.286 101.675 114.286 102.73 113.929C104.173 113.438 105.615 112.943 107.056 112.444C109.254 111.686 111.458 110.949 113.664 110.212C115.073 109.73 116.482 109.246 117.891 108.761C118.872 108.436 118.872 108.436 119.873 108.104C124.734 106.39 127.723 104.302 130.23 99.7808C130.546 99.028 130.862 98.2751 131.188 97.4995C131.511 96.7467 131.835 95.9939 132.168 95.2183C135.572 86.1417 135.71 73.0054 132 64.0347C131.67 63.3631 131.34 62.6915 131 61.9995C130.567 61.0907 130.134 60.1819 129.688 59.2456C128.495 56.809 127.267 54.3982 126 51.9995C125.34 51.9995 124.68 51.9995 124 51.9995C123.751 51.4207 123.502 50.8419 123.246 50.2456C118.226 41.1968 107.961 36.9387 98.6016 33.894C83.2471 30.0804 67.4919 34.2346 56 44.9995ZM19.5361 105.376C19.0962 106.005 18.6563 106.633 18.2031 107.281C17.7197 107.958 17.2363 108.634 16.7383 109.332C16.2471 110.047 15.756 110.762 15.25 111.5C14.7434 112.215 14.2368 112.93 13.7148 113.667C12.4647 115.437 11.2308 117.217 10 119C11.3654 121.73 13.1413 121.924 15.913 122.877C16.6069 123.107 17.3007 123.337 18.0156 123.574C18.7351 123.819 19.4545 124.064 20.1957 124.316C22.5447 125.114 24.8971 125.901 27.25 126.687C28.8544 127.228 30.4587 127.769 32.0627 128.311C35.242 129.383 38.4226 130.452 41.604 131.518C45.3635 132.781 49.1115 134.074 52.8555 135.382C53.8187 135.715 54.782 136.048 55.7744 136.391C57.5042 136.989 59.2316 137.594 60.9561 138.207C65.9759 139.973 65.9759 139.973 71 139C72.4353 137.65 72.4353 137.65 73.5781 135.91C74.0164 135.29 74.4547 134.671 74.9062 134.033C75.3497 133.382 75.7931 132.732 76.25 132.062C76.7089 131.416 77.1678 130.769 77.6406 130.103C80.1463 126.858 80.1463 126.858 81 123C75.4359 121.097 69.8715 119.194 64.3069 117.293C62.4207 116.648 60.5347 116.003 58.6487 115.358C53.2614 113.516 47.8724 111.678 42.4816 109.846C40.1367 109.046 37.7949 108.238 35.4536 107.427C34.1059 106.965 32.758 106.504 31.4102 106.042C30.2578 105.644 29.1055 105.246 27.9182 104.836C23.4507 103.435 23.4507 103.435 19.5361 105.376ZM142.473 106.378C141.735 106.626 140.997 106.874 140.237 107.129C137.844 107.935 135.453 108.748 133.062 109.562C131.428 110.114 129.793 110.665 128.157 111.215C124.925 112.304 121.694 113.396 118.463 114.49C112.732 116.43 106.992 118.342 101.25 120.25C99.6093 120.796 97.9687 121.343 96.3281 121.89C95.2298 122.256 94.1316 122.622 93 123C97.5327 129.889 97.5327 129.889 102.375 136.562C103.25 137.708 104.125 138.854 105 140C110.892 138.79 116.568 137.287 122.262 135.355C123.015 135.103 123.768 134.852 124.544 134.592C126.127 134.062 127.709 133.53 129.291 132.996C131.663 132.195 134.037 131.4 136.412 130.607C140.222 129.331 144.027 128.041 147.829 126.741C149.268 126.25 150.707 125.76 152.148 125.274C154.128 124.602 156.106 123.922 158.082 123.238C159.205 122.853 160.327 122.468 161.484 122.071C164.139 121.261 164.139 121.261 165 119C163.265 116.487 161.514 113.991 159.75 111.5C159.013 110.426 159.013 110.426 158.262 109.332C157.778 108.655 157.295 107.978 156.797 107.281C156.357 106.652 155.917 106.024 155.464 105.376C151.903 102.027 146.51 104.993 142.473 106.378ZM24 132C24 135.3 24 138.6 24 142C29.9724 144.047 35.9457 146.091 41.9199 148.134C43.9449 148.826 45.9697 149.519 47.9941 150.214C59.9486 154.312 71.9171 158.296 84 162C84 152.43 84 142.86 84 133C79.9389 137.061 77.0932 140.315 74 145C74 145.66 74 146.32 74 147C62.6593 144.925 52.0083 141.536 41.125 137.812C39.4547 137.247 37.7841 136.682 36.1133 136.119C32.0727 134.754 28.0355 133.379 24 132ZM142.238 134.554C141.455 134.816 140.671 135.077 139.864 135.347C137.347 136.188 134.83 137.031 132.312 137.875C130.634 138.436 128.954 138.997 127.275 139.558C124.173 140.595 121.071 141.632 117.97 142.671C117.292 142.897 116.614 143.123 115.915 143.357C114.163 143.945 112.415 144.546 110.668 145.149C107.51 146.156 105.29 146.485 102 146C99.7695 143.917 99.7695 143.917 97.8125 141.187C95.6274 138.2 93.6298 135.629 91 133C91 142.57 91 152.14 91 162C93.3203 161.226 95.6406 160.453 98.0312 159.656C115.688 153.77 133.344 147.885 151 142C151 138.7 151 135.4 151 132C148.152 132 144.955 133.643 142.238 134.554Z"/>
</mask>
<path d="M87.5625 0.624516C89.266 0.643852 89.266 0.643852 91.0039 0.663578C94 0.999516 94 0.999516 97 2.99952C98.168 5.09327 98.168 5.09327 99.1875 7.49952C99.5317 8.29358 99.8759 9.08764 100.23 9.90577C101 11.9995 101 11.9995 101 13.9995C108.103 14.676 111.388 13.6877 116.957 9.21436C119 7.99952 119 7.99952 120.938 8.18311C121.618 8.45252 122.299 8.72194 123 8.99952C123.839 9.29084 124.678 9.58217 125.543 9.88233C128.604 11.3201 130.676 12.5182 133 14.9995C133.825 19.0567 133.883 22.4006 133.742 26.5386C133.726 30.0015 133.726 30.0015 135.582 32.4878C138.909 34.5675 140.961 34.0335 144.812 33.562C151.256 33.3401 151.256 33.3401 154.508 36.2222C157.209 40.285 159.101 43.1799 158.824 48.1597C158.014 50.9526 157.311 52.219 155.375 54.312C153.009 57.3355 152.74 59.1336 153.188 62.937C153.43 64.2965 153.692 65.6534 154 66.9995C154.615 67.1929 155.23 67.3862 155.863 67.5855C156.672 67.8458 157.48 68.1062 158.312 68.3745C159.113 68.6298 159.914 68.885 160.738 69.148C163 69.9995 163 69.9995 166 71.9995C166.221 74.788 166.281 77.3461 166.188 80.1245C166.174 80.8786 166.16 81.6327 166.146 82.4097C166.111 84.2733 166.057 86.1365 166 87.9995C164.378 88.8377 162.752 89.6699 161.125 90.4995C160.22 90.9636 159.315 91.4276 158.383 91.9058C156 92.9995 156 92.9995 154 92.9995C154 93.6595 154 94.3195 154 94.9995C155.05 95.5448 155.05 95.5448 156.121 96.1011C160.197 98.7887 162.368 102.362 165.062 106.375C166.094 107.883 167.126 109.391 168.16 110.898C168.644 111.61 169.127 112.323 169.625 113.057C171.096 115.195 171.096 115.195 173.371 117.789C175 120 175 120 175 124C173.085 124.816 171.168 125.627 169.25 126.437C168.183 126.889 167.115 127.342 166.016 127.808C163 129 163 129 159 130C158.67 135.61 158.34 141.22 158 147C147.042 150.768 136.08 154.521 125.105 158.241C120.192 159.908 115.285 161.592 110.388 163.308C108.458 163.981 106.526 164.643 104.591 165.301C102.306 166.077 100.028 166.87 97.7568 167.685C90.6959 170.041 86.0588 170.285 79 168C78.3799 167.801 77.7597 167.603 77.1208 167.399C71.6746 165.645 66.2752 163.764 60.875 161.875C58.331 160.992 55.7862 160.113 53.2414 159.233C51.5541 158.649 49.867 158.065 48.1802 157.48C41.0126 154.996 33.8255 152.574 26.625 150.187C25.6284 149.856 24.6318 149.525 23.605 149.185C21.4038 148.455 19.202 147.727 17 147C17 141.39 17 135.78 17 130C15.4944 129.566 13.9887 129.133 12.4375 128.687C8.1257 127.399 4.0906 125.867 0 124C0.552835 120.059 1.64728 117.672 4.01953 114.496C4.6299 113.673 5.24027 112.849 5.86914 112.001C6.51045 111.155 7.15176 110.309 7.8125 109.437C8.44221 108.587 9.07191 107.737 9.7207 106.861C15.4247 99.2296 15.4247 99.2296 19 95.9995C19.66 95.9995 20.32 95.9995 21 95.9995C21 95.0095 21 94.0195 21 92.9995C20.0777 92.7095 20.0777 92.7095 19.1367 92.4136C18.3285 92.1532 17.5202 91.8928 16.6875 91.6245C15.887 91.3693 15.0865 91.1141 14.2617 90.8511C12 89.9995 12 89.9995 9 87.9995C8.77892 85.211 8.71892 82.653 8.8125 79.8745C8.82604 79.1204 8.83957 78.3663 8.85352 77.5894C8.8889 75.7258 8.94271 73.8626 9 71.9995C10.6225 71.1613 12.2481 70.3291 13.875 69.4995C15.2324 68.8034 15.2324 68.8034 16.6172 68.0933C19 66.9995 19 66.9995 21 66.9995C22.0755 62.8637 22.8089 59.4816 20.6953 55.6089C19.5735 54.089 18.4511 52.5694 17.3281 51.0503C16 48.9995 16 48.9995 15.75 45.9995C16.1625 45.0095 16.575 44.0195 17 42.9995C17.3081 42.2183 17.6162 41.4372 17.9336 40.6323C19.3633 37.773 20.493 36.006 23 33.9995C26.6636 33.6006 30.0869 33.8135 33.7617 34.0308C37.5495 34.0102 37.5495 34.0102 40.375 31.812C42.5156 28.4573 41.9268 25.414 41.625 21.562C41.4648 18.1519 41.4648 18.1519 42 14.9995C45.1602 11.5874 48.5993 9.48423 53 7.99952C56.6315 8.23949 58.5653 9.18239 61.25 11.562C65.3349 14.7001 69.031 14.5066 74 13.9995C74.1702 13.3962 74.3403 12.793 74.5156 12.1714C74.8791 10.9726 74.8791 10.9726 75.25 9.74952C75.482 8.96061 75.7141 8.1717 75.9531 7.35889C78.5104 1.59538 81.4262 0.470934 87.5625 0.624516ZM84 7.99952C83.5243 9.1384 83.5243 9.1384 83.0391 10.3003C79.3237 18.2134 79.3237 18.2134 75.5859 20.4331C70.9306 21.9028 66.6865 22.6658 62 20.9995C60.7953 20.127 59.6085 19.2293 58.4375 18.312C56.745 16.9353 56.745 16.9353 55 15.9995C52.3435 16.577 50.915 17.0846 49 18.9995C48.9733 21.187 48.9537 23.3745 48.9375 25.562C48.5808 30.6226 48.0989 33.978 44.75 37.8745C40.9577 41.1369 38.115 41.3706 33.1875 41.2495C32.0879 41.1309 30.9884 41.0123 29.8555 40.8901C26.9036 40.6849 26.9036 40.6849 25.1094 42.8315C23.8045 44.9555 23.8045 44.9555 24.0625 47.437C24.8819 50.1485 24.8819 50.1485 27.0625 52.3745C30.0456 56.4161 29.3681 59.4793 28.668 64.273C27.774 68.1445 27.0311 70.3341 23.6094 72.5425C20.875 73.812 20.875 73.812 18.1797 74.8316C15.8671 75.7885 15.8671 75.7885 15.1328 77.8862C14.9804 80.3108 14.9809 81.7769 16 83.9995C18.1851 85.213 18.1851 85.213 20.8125 86.1245C24.0371 87.5856 25.6372 88.3472 27.375 91.4722C28.3125 94.187 28.3125 94.187 28.9883 96.7925C29.8403 99.2213 29.8403 99.2213 32.418 100.363C35.0912 101.266 35.0912 101.266 38 99.9995C37.7834 99.4143 37.5669 98.8291 37.3438 98.2261C32.6149 83.6456 33.7826 68.0838 40.625 54.437C43.9902 48.5605 48.7905 41.1043 55 37.9995C55 37.3395 55 36.6795 55 35.9995C56.077 35.5819 56.077 35.5819 57.1758 35.1558C59.9072 34.0375 62.5321 32.786 65.1875 31.4995C78.5206 25.4649 93.1505 25.3259 107 29.9995C110.052 31.4676 112.954 33.0467 115.855 34.7925C117.88 36.163 117.88 36.163 120 35.9995C120 36.6595 120 37.3195 120 37.9995C121.166 39.0681 122.385 40.0798 123.625 41.062C128.085 44.8598 131.066 48.9603 134 53.9995C134.588 55.0069 134.588 55.0069 135.188 56.0347C142.153 68.916 141.683 85.2483 137.656 99.0073C137.44 99.6648 137.223 100.322 137 101C140.735 100.502 142.812 100.125 146 97.9995C146.644 95.9722 146.644 95.9722 147.062 93.687C148.013 90.4507 148.62 89.2679 151.414 87.2964C153.911 86.0725 156.396 84.9719 159 83.9995C159 81.3595 159 78.7195 159 75.9995C158.313 75.743 157.626 75.4865 156.918 75.2222C149.75 72.1767 149.75 72.1767 147.668 68.9097C146.085 64.3484 145.29 59.7951 146 54.9995C147.21 53.1097 148.549 51.3914 149.945 49.6362C151.261 47.9298 151.261 47.9298 150.938 45.187C150.095 42.8467 150.095 42.8467 148 40.9995C145.956 41.0632 143.913 41.1996 141.875 41.3745C136.957 41.4181 134.033 41.1214 130.25 37.8745C126.123 33.0859 126.196 28.1878 126.328 22.0737C126.308 18.9242 126.308 18.9242 124.133 17.0464C122.02 15.729 122.02 15.729 119.625 16.562C116.869 17.9867 116.869 17.9867 114.125 20.187C110.098 22.5226 108.456 22.152 104 20.9995C103.325 20.868 102.649 20.7365 101.953 20.6011C98.3074 19.6554 96.516 18.7722 94.3828 15.5776C93.1362 13.0844 92.0131 10.5956 91 7.99952C88.69 7.99952 86.38 7.99952 84 7.99952ZM56 44.9995C55.389 45.4984 54.778 45.9972 54.1484 46.5112C46.9613 52.7961 41.5481 63.3542 40.8652 72.8794C40.3526 83.3976 39.879 94.987 47.0938 103.458C50.5344 106.467 53.5855 107.713 57.8633 109.148C58.6141 109.41 59.3649 109.671 60.1385 109.941C61.7203 110.487 63.3046 111.027 64.8914 111.559C67.3028 112.371 69.7008 113.217 72.0996 114.066C73.6451 114.595 75.1913 115.123 76.7383 115.648C77.8012 116.026 77.8012 116.026 78.8856 116.411C86.6898 118.969 93.0096 117.269 100.641 114.636C101.675 114.286 101.675 114.286 102.73 113.929C104.173 113.438 105.615 112.943 107.056 112.444C109.254 111.686 111.458 110.949 113.664 110.212C115.073 109.73 116.482 109.246 117.891 108.761C118.872 108.436 118.872 108.436 119.873 108.104C124.734 106.39 127.723 104.302 130.23 99.7808C130.546 99.028 130.862 98.2751 131.188 97.4995C131.511 96.7467 131.835 95.9939 132.168 95.2183C135.572 86.1417 135.71 73.0054 132 64.0347C131.67 63.3631 131.34 62.6915 131 61.9995C130.567 61.0907 130.134 60.1819 129.688 59.2456C128.495 56.809 127.267 54.3982 126 51.9995C125.34 51.9995 124.68 51.9995 124 51.9995C123.751 51.4207 123.502 50.8419 123.246 50.2456C118.226 41.1968 107.961 36.9387 98.6016 33.894C83.2471 30.0804 67.4919 34.2346 56 44.9995ZM19.5361 105.376C19.0962 106.005 18.6563 106.633 18.2031 107.281C17.7197 107.958 17.2363 108.634 16.7383 109.332C16.2471 110.047 15.756 110.762 15.25 111.5C14.7434 112.215 14.2368 112.93 13.7148 113.667C12.4647 115.437 11.2308 117.217 10 119C11.3654 121.73 13.1413 121.924 15.913 122.877C16.6069 123.107 17.3007 123.337 18.0156 123.574C18.7351 123.819 19.4545 124.064 20.1957 124.316C22.5447 125.114 24.8971 125.901 27.25 126.687C28.8544 127.228 30.4587 127.769 32.0627 128.311C35.242 129.383 38.4226 130.452 41.604 131.518C45.3635 132.781 49.1115 134.074 52.8555 135.382C53.8187 135.715 54.782 136.048 55.7744 136.391C57.5042 136.989 59.2316 137.594 60.9561 138.207C65.9759 139.973 65.9759 139.973 71 139C72.4353 137.65 72.4353 137.65 73.5781 135.91C74.0164 135.29 74.4547 134.671 74.9062 134.033C75.3497 133.382 75.7931 132.732 76.25 132.062C76.7089 131.416 77.1678 130.769 77.6406 130.103C80.1463 126.858 80.1463 126.858 81 123C75.4359 121.097 69.8715 119.194 64.3069 117.293C62.4207 116.648 60.5347 116.003 58.6487 115.358C53.2614 113.516 47.8724 111.678 42.4816 109.846C40.1367 109.046 37.7949 108.238 35.4536 107.427C34.1059 106.965 32.758 106.504 31.4102 106.042C30.2578 105.644 29.1055 105.246 27.9182 104.836C23.4507 103.435 23.4507 103.435 19.5361 105.376ZM142.473 106.378C141.735 106.626 140.997 106.874 140.237 107.129C137.844 107.935 135.453 108.748 133.062 109.562C131.428 110.114 129.793 110.665 128.157 111.215C124.925 112.304 121.694 113.396 118.463 114.49C112.732 116.43 106.992 118.342 101.25 120.25C99.6093 120.796 97.9687 121.343 96.3281 121.89C95.2298 122.256 94.1316 122.622 93 123C97.5327 129.889 97.5327 129.889 102.375 136.562C103.25 137.708 104.125 138.854 105 140C110.892 138.79 116.568 137.287 122.262 135.355C123.015 135.103 123.768 134.852 124.544 134.592C126.127 134.062 127.709 133.53 129.291 132.996C131.663 132.195 134.037 131.4 136.412 130.607C140.222 129.331 144.027 128.041 147.829 126.741C149.268 126.25 150.707 125.76 152.148 125.274C154.128 124.602 156.106 123.922 158.082 123.238C159.205 122.853 160.327 122.468 161.484 122.071C164.139 121.261 164.139 121.261 165 119C163.265 116.487 161.514 113.991 159.75 111.5C159.013 110.426 159.013 110.426 158.262 109.332C157.778 108.655 157.295 107.978 156.797 107.281C156.357 106.652 155.917 106.024 155.464 105.376C151.903 102.027 146.51 104.993 142.473 106.378ZM24 132C24 135.3 24 138.6 24 142C29.9724 144.047 35.9457 146.091 41.9199 148.134C43.9449 148.826 45.9697 149.519 47.9941 150.214C59.9486 154.312 71.9171 158.296 84 162C84 152.43 84 142.86 84 133C79.9389 137.061 77.0932 140.315 74 145C74 145.66 74 146.32 74 147C62.6593 144.925 52.0083 141.536 41.125 137.812C39.4547 137.247 37.7841 136.682 36.1133 136.119C32.0727 134.754 28.0355 133.379 24 132ZM142.238 134.554C141.455 134.816 140.671 135.077 139.864 135.347C137.347 136.188 134.83 137.031 132.312 137.875C130.634 138.436 128.954 138.997 127.275 139.558C124.173 140.595 121.071 141.632 117.97 142.671C117.292 142.897 116.614 143.123 115.915 143.357C114.163 143.945 112.415 144.546 110.668 145.149C107.51 146.156 105.29 146.485 102 146C99.7695 143.917 99.7695 143.917 97.8125 141.187C95.6274 138.2 93.6298 135.629 91 133C91 142.57 91 152.14 91 162C93.3203 161.226 95.6406 160.453 98.0312 159.656C115.688 153.77 133.344 147.885 151 142C151 138.7 151 135.4 151 132C148.152 132 144.955 133.643 142.238 134.554Z" stroke="black" stroke-width="14" mask="url(#path-1-inside-1_7551_3)"/>
</svg>
