<svg xmlns="http://www.w3.org/2000/svg" xmlns:xlink="http://www.w3.org/1999/xlink" viewBox="0 0 1171 146"><defs><path id="a" d="M0 0h53.279v321.065H0z"/><path id="c" d="M0 0h38.479v269.222H0z"/><path id="e" d="M0 0h23.68v212.831H0z"/><path id="g" d="M0 0h403.293v935H0z"/><path id="i" d="M0 0h369.254v928.633H0z"/><path id="k" d="M0 0h335.954v919.538H0z"/><path id="m" d="M0 0h316.715v910.443H0z"/><path id="o" d="M0 0h304.135v901.347H0z"/><path id="q" d="M0 0h291.555v892.252H0z"/><path id="s" d="M0 0h278.235v882.247H0z"/><path id="u" d="M0 0h264.916v872.242H0z"/><path id="w" d="M0 0h251.596v862.237H0z"/><path id="y" d="M0 0h224.956v839.499H0z"/><path id="A" d="M0 0h210.896v827.675H0z"/><path id="C" d="M0 0h197.577v814.942H0z"/><path id="E" d="M0 0h183.517v801.299H0z"/><path id="G" d="M0 0h169.457v787.656H0z"/><path id="I" d="M0 0h154.657v760.37H0z"/><path id="K" d="M0 0h111.738v545.72H0z"/><path id="M" d="M0 0h96.938v485.691H0z"/><path id="O" d="M0 0h68.079v373.818H0z"/><path id="Q" d="M0 0h658.589v454.767H0z"/><path id="S" d="M0 0h674.869v485.691H0z"/><path id="U" d="M0 0h689.669v516.615H0z"/><path id="W" d="M0 0h703.728v552.996H0z"/><path id="Y" d="M0 0h734.808v628.487H0z"/><path id="aa" d="M0 0h751.827v666.688H0z"/><path id="ac" d="M0 0h792.527v745.817H0z"/><path id="ae" d="M0 0h842.106v828.585H0z"/><path id="ag" d="M0 0h873.185v871.333H0z"/><path id="ai" d="M0 0h895.385v935H0z"/><path id="ak" d="M0 0h798.447v935H0z"/><path id="am" d="M0 0h577.93v935H0z"/><path id="ao" d="M0 0h520.951v935H0z"/><path id="aq" d="M0 0h480.992v935H0z"/><path id="as" d="M0 0h451.392v935H0z"/><path id="au" d="M0 0h115.438v7.276H0z"/><path id="aw" d="M0 0h361.114v71.853H0z"/><path id="ay" d="M0 0h396.633v103.687H0z"/><path id="aA" d="M0 0h459.532v168.264H0z"/><path id="aC" d="M0 0h488.392v201.007H0z"/><path id="aE" d="M0 0h514.291v232.84H0z"/><path id="aG" d="M0 0h562.391v297.417H0z"/><path id="aI" d="M0 0h584.59v329.251H0z"/><path id="aK" d="M0 0h604.57v361.085H0z"/><path id="aM" d="M0 0h641.569v423.842H0z"/></defs><g fill="none" fill-rule="evenodd" opacity=".516"><g transform="translate(1117.72 -421.854)"><mask id="b" fill="#fff"><use xlink:href="#a"/></mask><path d="M36.529 29.38c-2.587 4.602-5.32 9.105-7.745 13.857-1.274 2.328-2.444 4.736-3.612 7.145-.58 1.206-1.19 2.393-1.748 3.616l-1.651 3.683C12.989 77.336 6.588 98.618 3.118 120.633c-3.482 22.006-4.051 44.698-1.69 66.935C3.784 209.81 9.114 231.563 17 251.811a250.31 250.31 0 0 0 13.581 29.224l15.63 27.56 7.068 12.47v-3.477l-5.766-10.124-15.653-27.472a247.737 247.737 0 0 1-13.527-28.955c-7.86-20.065-13.186-41.625-15.564-63.684-2.383-22.056-1.86-44.58 1.556-66.437a248.86 248.86 0 0 1 18.42-62.589l1.635-3.666c.553-1.217 1.155-2.4 1.73-3.6 1.158-2.399 2.317-4.796 3.58-7.115 2.404-4.735 5.112-9.218 7.692-13.827L53.004 2.585l.275-.486V0l-1.077 1.89-15.673 27.49Z" fill="#F2FBFC" mask="url(#b)"/></g><g transform="translate(1132.52 -395.478)"><mask id="d" fill="#fff"><use xlink:href="#c"/></mask><path d="M18.602 39.832a250.314 250.314 0 0 0-16.66 63.731c-2.76 22.141-2.57 44.821.516 66.905 3.078 22.09 9.103 43.54 17.566 63.419a250.628 250.628 0 0 0 14.393 28.62c1.367 2.236 2.71 4.477 4.063 6.715v-3.184c-.938-1.54-1.87-3.093-2.811-4.625a248.441 248.441 0 0 1-14.333-28.358c-8.433-19.7-14.448-40.959-17.543-62.867-3.1-21.901-3.333-44.411-.633-66.401a248.742 248.742 0 0 1 16.436-63.353c4.036-9.98 8.727-19.54 13.854-28.765l5.03-9.389V0l-5.9 10.959c-5.155 9.231-9.9 18.848-13.978 28.873" fill="#F2FBFC" mask="url(#d)"/></g><g transform="translate(1147.32 -365.463)"><mask id="f" fill="#fff"><use xlink:href="#e"/></mask><path d="M1.045 83.178c-2.036 22.196-1.081 44.778 2.732 66.625a249.014 249.014 0 0 0 19.586 62.374c.102.22.213.434.317.654v-3.663A246.96 246.96 0 0 1 5.108 149.46C1.284 127.795.293 105.382 2.274 83.343a246.856 246.856 0 0 1 14.448-63.891 246.862 246.862 0 0 1 6.958-16.78V0a248.375 248.375 0 0 0-7.972 18.896A248.332 248.332 0 0 0 1.045 83.178" fill="#F2FBFC" mask="url(#f)"/></g><path d="M1167.567-207.586A244.214 244.214 0 0 0 1171-193.56v-5.57a240.68 240.68 0 0 1-2.086-8.86 244.97 244.97 0 0 1-5.087-65.847c.9-15.623 3.34-31.108 7.173-46.094v-4.602a244.294 244.294 0 0 0-8.433 50.591c-1.351 22.244.375 44.74 5 66.357" fill="#F2FBFC"/><g transform="translate(766.227 -722)"><mask id="h" fill="#fff"><use xlink:href="#g"/></mask><path d="m39.967 794.23 1.03-35.224 2.062-70.45 4.12-140.9L51.3 406.758l2.05-70.443c.396-23.404 4.097-46.667 10.764-68.586 6.649-21.936 16.236-42.474 27.914-60.969 11.674-18.516 25.447-35 40.642-49.151 15.188-14.183 31.827-25.958 49.27-35.455l52.32-28.867L403.293 0h-1.429L233.867 92.186 181.49 120.92c-17.52 9.485-34.266 21.274-49.557 35.491-15.3 14.186-29.183 30.73-40.966 49.337-11.787 18.582-21.483 39.247-28.226 61.349-6.761 22.075-10.54 45.57-10.978 69.157l-2.172 70.452-4.366 140.892-4.365 140.89-2.183 70.445-1.091 35.223c-.433 11.759-.436 23.458-1.684 35.026-2.321 23.157-7.92 45.782-16.267 66.736A249.745 249.745 0 0 1 0 935h3.312a253.43 253.43 0 0 0 18.63-37.702c8.428-21.272 14.07-44.245 16.384-67.749 1.246-11.756 1.23-23.614 1.641-35.319" fill="#F2FBFC" mask="url(#h)"/></g><g transform="translate(801.746 -715.633)"><mask id="j" fill="#fff"><use xlink:href="#i"/></mask><path d="m203.94 96.296-51.688 30.1c-17.28 9.974-33.733 22.247-48.68 36.904-14.947 14.64-28.414 31.618-39.71 50.601-11.3 18.96-20.437 39.94-26.573 62.247-6.155 22.28-9.278 45.861-9.078 69.394l-.436 70.326-.886 140.64-.886 140.641-.444 70.32-.222 35.161c-.15 11.74.143 23.413-.779 34.993-1.693 23.18-6.655 45.964-14.419 67.188A248.356 248.356 0 0 1 0 928.633h3.033a252.148 252.148 0 0 0 9.448-22.533c7.837-21.547 12.834-44.684 14.51-68.21.915-11.774.597-23.586.729-35.274l.16-35.16.322-70.32.642-140.64.642-140.642.313-70.314c-.238-23.35 2.814-46.696 8.88-68.816 6.045-22.135 15.075-42.984 26.269-61.848 11.188-18.887 24.544-35.8 39.385-50.402 14.845-14.62 31.191-26.875 48.391-36.858l51.629-30.231L369.254.799V0L203.94 96.296Z" fill="#F2FBFC" mask="url(#j)"/></g><g transform="translate(834.306 -706.538)"><mask id="l" fill="#fff"><use xlink:href="#k"/></mask><path d="M125.506 129.833a244.578 244.578 0 0 0-47.737 38.28c-14.57 15.082-27.595 32.471-38.38 51.801-10.79 19.307-19.346 40.572-24.856 63.039-5.531 22.442-7.989 46.062-7.149 69.49l1.29 70.063 2.572 140.124 2.572 140.123 1.285 70.06.643 35.031.33 17.498.09 4.356-.041 4.348-.059 4.347-.191 4.341c-1.057 23.156-5.377 46.052-12.553 67.498A246.972 246.972 0 0 1 0 919.538h2.85a250.55 250.55 0 0 0 2.845-8.112c7.24-21.773 11.587-45.025 12.618-68.524l.186-4.406.052-4.41.034-4.411-.098-4.402-.362-17.532-.703-35.028-1.408-70.056-2.815-140.113-2.816-140.113-1.413-70.055c-.873-23.25 1.52-46.627 6.965-68.904 5.426-22.292 13.878-43.417 24.562-62.624 10.679-19.23 23.593-36.548 38.058-51.586a243.688 243.688 0 0 1 47.448-38.223l50.882-31.552L335.955.817V0L176.451 98.411l-50.946 31.422Z" fill="#F2FBFC" mask="url(#l)"/></g><g transform="translate(854.285 -697.443)"><mask id="n" fill="#fff"><use xlink:href="#m"/></mask><path d="M112.725 132.925a245.259 245.259 0 0 0-46.816 39.68c-14.223 15.491-26.792 33.316-37.068 52.983-10.278 19.649-18.248 41.185-23.128 63.797-4.903 22.589-6.69 46.227-5.207 69.53l3.006 69.762 6.012 139.52 6.012 139.519 3.006 69.76 1.503 34.88.758 17.425c.132 2.892.289 5.783.287 8.671l.057 4.334c.006 1.445-.047 2.89-.068 4.334a249.544 249.544 0 0 1-9.375 63.323h2.698a253.363 253.363 0 0 0 9.12-63.258c.02-1.466.069-2.932.061-4.397l-.064-4.397c-.005-2.936-.168-5.855-.306-8.775l-.79-17.45-1.564-34.877-3.128-69.75-6.256-139.501L5.22 428.536l-3.13-69.75c-1.51-23.13.22-46.52 5.041-68.94 4.8-22.433 12.667-43.824 22.843-63.367 10.172-19.56 22.63-37.31 36.748-52.753a244.375 244.375 0 0 1 46.524-39.61l50.19-32.866L316.715.84V0L162.981 100.185l-50.257 32.74Z" fill="#F2FBFC" mask="url(#n)"/></g><g transform="translate(866.865 -688.347)"><mask id="p" fill="#fff"><use xlink:href="#o"/></mask><path d="M107.071 135.652a245.583 245.583 0 0 0-45.794 41.094c-13.825 15.927-25.942 34.142-35.664 54.155-9.737 19.987-17.092 41.783-21.325 64.524-4.256 22.719-5.358 46.36-3.242 69.515l4.71 69.42 9.42 138.84 9.42 138.838 4.71 69.42 2.355 34.71 1.181 17.344c.442 5.754.723 11.508.756 17.27a249.996 249.996 0 0 1-4.683 50.565h2.602c3.172-16.561 4.724-33.592 4.525-50.605-.044-5.845-.34-11.691-.796-17.493l-1.213-17.36-2.416-34.704-4.832-69.405-9.663-138.811-9.664-138.812-4.832-69.405c-2.14-22.999-1.087-46.376 3.093-68.926 4.156-22.557 11.414-44.204 21.048-64.079 9.621-19.9 21.627-38.035 35.349-53.91a244.69 244.69 0 0 1 45.499-41.01l49.414-34.179L304.135.865V0L156.557 101.598l-49.486 34.054Z" fill="#F2FBFC" mask="url(#p)"/></g><g transform="translate(879.445 -679.252)"><mask id="r" fill="#fff"><use xlink:href="#q"/></mask><path d="M101.501 137.99a246.015 246.015 0 0 0-44.76 42.521 249.201 249.201 0 0 0-34.237 55.323c-9.183 20.318-15.913 42.364-19.488 65.22A253.063 253.063 0 0 0 0 335.713l.004 8.726c.105 2.905.16 5.815.305 8.718.207 2.897.338 5.806.605 8.692l.836 8.647 6.402 69.044 12.805 138.09 12.806 138.088 6.402 69.043 3.2 34.522 1.603 17.255c.59 5.72 1.028 11.447 1.237 17.189a249.839 249.839 0 0 1-1.525 38.525h2.535a253.588 253.588 0 0 0 1.433-38.668c-.222-5.828-.678-11.64-1.282-17.407l-1.635-17.262-3.261-34.512-6.524-69.026-13.048-138.051L9.851 439.275 3.326 370.25l-.847-8.601c-.27-2.866-.404-5.743-.613-8.615-.15-2.876-.21-5.757-.318-8.636l-.02-8.646a250.812 250.812 0 0 1 2.93-34.361c3.504-22.667 10.14-44.555 19.223-64.756a247.879 247.879 0 0 1 33.924-55.062 245.11 245.11 0 0 1 44.464-42.424l48.652-35.488L291.555.89V0L150.23 102.623l-48.73 35.368Z" fill="#F2FBFC" mask="url(#r)"/></g><g transform="translate(892.025 -669.247)"><mask id="t" fill="#fff"><use xlink:href="#s"/></mask><path d="M95.823 139.775a246.17 246.17 0 0 0-43.583 43.917c-12.947 16.815-24.064 35.808-32.676 56.432A254.181 254.181 0 0 0 1.99 305.93 250.964 250.964 0 0 0 .02 340.6c.09 2.897.092 5.8.254 8.692.19 2.89.27 5.793.552 8.672l.388 4.324.195 2.162.264 2.147 1.039 8.585 8.061 68.566 16.122 137.134 16.123 137.132 8.062 68.567 4.03 34.284 2.016 17.14c.33 2.842.703 5.681 1.001 8.526.234 2.85.533 5.694.711 8.55.601 9.037.695 18.118.308 27.167h2.494a253.2 253.2 0 0 0-.368-27.413c-.186-2.9-.495-5.784-.736-8.675-.308-2.879-.688-5.741-1.028-8.612l-2.045-17.139-4.092-34.27-8.182-68.545-16.363-137.087L12.46 443.418l-8.18-68.544-1.05-8.544-.265-2.132-.198-2.142-.391-4.283c-.286-2.853-.368-5.727-.562-8.59-.167-2.867-.173-5.743-.268-8.614a248.608 248.608 0 0 1 1.892-34.365c2.838-22.734 8.81-44.84 17.323-65.328 8.515-20.502 19.526-39.401 32.368-56.155a245.33 245.33 0 0 1 43.286-43.807l47.762-36.76L278.236.918V0L143.663 103.13l-47.84 36.645Z" fill="#F2FBFC" mask="url(#t)"/></g><g transform="translate(905.344 -659.242)"><mask id="v" fill="#fff"><use xlink:href="#u"/></mask><path d="M90.242 141.115a246.518 246.518 0 0 0-42.388 45.322c-12.48 17.25-23.056 36.632-31.061 57.551-8.024 20.895-13.43 43.361-15.63 66.345a252.948 252.948 0 0 0-.949 34.643c.16 2.885.226 5.78.505 8.653.244 2.877.429 5.763.798 8.62.563 5.747 1.557 11.408 2.326 17.086l9.7 68.062L32.947 583.52l19.402 136.125 9.701 68.063 4.85 34.031 2.427 17.016 1.225 8.463.96 8.495a248.88 248.88 0 0 1 1.013 16.528h2.472a251.462 251.462 0 0 0-1.062-16.881l-.989-8.614-1.251-8.54-2.455-17.009-4.911-34.017-9.821-68.035-19.643-136.07-19.642-136.07L5.4 378.97c-.78-5.681-1.775-11.285-2.343-16.979-.371-2.83-.558-5.69-.805-8.54-.283-2.846-.35-5.714-.515-8.572a250.813 250.813 0 0 1 .879-34.336c2.14-22.789 7.461-45.088 15.39-65.854 7.912-20.791 18.382-40.073 30.759-57.256a245.632 245.632 0 0 1 42.09-45.2l46.878-38.036L264.916.95V0L137.203 103.19l-46.961 37.925Z" fill="#F2FBFC" mask="url(#v)"/></g><g transform="translate(918.664 -649.237)"><mask id="x" fill="#fff"><use xlink:href="#w"/></mask><path d="M84.79 141.989c-15.226 13.383-29.17 29.035-41.174 46.733-12.004 17.687-22.023 37.455-29.412 58.66C6.8 268.565 2.071 291.213.556 314.231a253.47 253.47 0 0 0 .07 34.59l.317 4.313c.114 1.436.292 2.862.437 4.295l.456 4.292.586 4.27.599 4.267.73 4.228 1.434 8.45L16.51 450.47l22.645 135.073L61.8 720.618l11.322 67.536 5.662 33.767 2.83 16.884 1.426 8.404c.471 2.8.794 5.623 1.2 8.432.276 2.193.514 4.393.73 6.596h2.472c-.234-2.356-.491-4.71-.792-7.054-.415-2.847-.75-5.718-1.23-8.545l-1.453-8.467-2.86-16.877-5.72-33.753-11.443-67.504-22.884-135.01-22.883-135.009-11.443-67.503-1.446-8.422-.733-4.202-.6-4.225-.589-4.23-.459-4.251c-.145-1.42-.326-2.833-.44-4.256l-.321-4.272a251.14 251.14 0 0 1-.13-34.28c1.46-22.821 6.107-45.296 13.422-66.345 7.298-21.07 17.215-40.735 29.115-58.348 11.901-17.624 25.743-33.234 40.876-46.596l45.99-39.324L251.596.984V0L130.87 102.77l-46.08 39.219Z" fill="#F2FBFC" mask="url(#x)"/></g><path d="M1011.464-495.342c-14.9 13.828-28.436 29.936-39.947 48.038-11.515 18.085-20.967 38.196-27.724 59.634-6.778 21.417-10.816 44.185-11.641 67.172a253.054 253.054 0 0 0 1.093 34.44c.15 1.427.26 2.859.442 4.28l.56 4.258c.335 2.848.82 5.662 1.287 8.481.426 2.831 1.018 5.608 1.567 8.4l1.63 8.361 12.927 66.851 25.857 133.702 25.855 133.701 12.927 66.851 6.464 33.425 3.232 16.713c.9 4.694 1.856 9.342 2.633 14.035h2.485c-.813-4.962-1.832-9.866-2.78-14.756l-3.261-16.704-6.523-33.408-13.046-66.814-26.093-133.63-26.093-133.628-13.046-66.816-1.641-8.34c-.55-2.772-1.145-5.534-1.57-8.335-.469-2.792-.953-5.58-1.291-8.4l-.563-4.219c-.183-1.407-.295-2.826-.445-4.24a250.677 250.677 0 0 1-1.143-34.129c.777-22.788 4.74-45.378 11.429-66.655 6.67-21.3 16.02-41.3 27.434-59.307 11.409-18.022 24.844-34.082 39.649-47.886l45.094-40.554 113.038-101.572v-1.02l-113.606 101.616-45.19 40.455Z" fill="#F2FBFC"/><g transform="translate(946.044 -626.499)"><mask id="z" fill="#fff"><use xlink:href="#y"/></mask><path d="M74.307 141.751c-14.531 14.346-27.692 30.873-38.697 49.406-11.014 18.505-19.884 38.977-25.999 60.662C3.474 273.484.136 296.381.005 319.347a252.98 252.98 0 0 0 4.9 51.18c.51 2.803 1.21 5.538 1.805 8.31l1.823 8.28 14.518 66.227 29.037 132.45 29.037 132.452 14.519 66.225 7.26 33.112 3.63 16.557 1.181 5.36h2.513l-1.372-6.166-3.66-16.547-7.317-33.092-14.637-66.186L53.97 585.14 24.696 452.77 10.06 386.584l-1.835-8.266c-.597-2.752-1.298-5.476-1.808-8.25a250.747 250.747 0 0 1-4.946-50.71c.09-22.763 3.358-45.477 9.41-67 6.032-21.54 14.802-41.895 25.717-60.316C47.5 173.594 60.56 157.12 74.996 142.804c14.655-14.007 29.473-27.887 44.2-41.836l105.76-99.907V0L118.609 100.01c-14.765 13.92-29.566 27.72-44.301 41.741" fill="#F2FBFC" mask="url(#z)"/></g><g transform="translate(959.364 -614.675)"><mask id="B" fill="#fff"><use xlink:href="#A"/></mask><path d="M90.65 119.134 79.824 129.86l-5.423 5.36-2.715 2.68-2.65 2.783a247.84 247.84 0 0 0-37.268 50.751c-10.494 18.884-18.733 39.7-24.174 61.599-5.466 21.882-8.084 44.87-7.519 67.776a253.68 253.68 0 0 0 3.137 34.111c.446 2.811.998 5.596 1.493 8.393.55 2.783 1.181 5.54 1.768 8.312l4.042 16.399 16.042 65.524 32.085 131.048 32.085 131.047 16.042 65.524 8.022 32.762 3.366 13.746h2.513l-3.61-14.626-8.079-32.74-16.16-65.48-32.317-130.957-32.318-130.959-16.159-65.478L7.969 371.1c-.585-2.745-1.216-5.477-1.766-8.232-.495-2.773-1.048-5.53-1.495-8.315a251.313 251.313 0 0 1-3.17-33.8c-.6-22.704 1.955-45.505 7.34-67.237 5.36-21.75 13.504-42.442 23.898-61.237A246.783 246.783 0 0 1 69.75 141.71l2.632-2.777 2.702-2.676 5.403-5.367 10.807-10.755 21.614-21.51 97.989-97.52V0l-98.595 97.683-21.652 21.451Z" fill="#F2FBFC" mask="url(#B)"/></g><g transform="translate(973.423 -601.942)"><mask id="D" fill="#fff"><use xlink:href="#C"/></mask><path d="m85.32 116.632-10.61 11.024c-3.523 3.695-7.144 7.273-10.55 11.154a248.2 248.2 0 0 0-35.927 52.07c-9.957 19.272-17.61 40.372-22.416 62.445-4.8 22.068-6.702 45.107-5.435 67.915a250.757 250.757 0 0 0 4.177 33.86c.584 2.766 1.132 5.544 1.746 8.299.674 2.733 1.304 5.488 2.015 8.205l4.442 16.195 17.606 64.753 35.214 129.504 63.273 232.886h2.528L67.43 581.266 31.986 451.859l-17.723-64.704-4.459-16.14c-.71-2.695-1.338-5.42-2.011-8.128-.614-2.73-1.162-5.481-1.746-8.22a248.559 248.559 0 0 1-4.2-33.55c-1.296-22.606.546-45.455 5.27-67.368 4.732-21.92 12.291-42.89 22.15-62.067a247.174 247.174 0 0 1 35.634-51.872c3.381-3.872 6.979-7.44 10.494-11.144l10.59-11.054 21.183-22.105 90.409-94.352V0L106.54 94.584l-21.22 22.048Z" fill="#F2FBFC" mask="url(#D)"/></g><g transform="translate(987.483 -588.299)"><mask id="F" fill="#fff"><use xlink:href="#E"/></mask><path d="m79.81 113.281-10.358 11.315-5.196 5.654c-1.742 1.873-3.38 3.887-5.076 5.825a248.59 248.59 0 0 0-34.428 53.345c-9.381 19.634-16.376 41.012-20.49 63.23-4.134 22.205-5.3 45.262-3.326 67.928a252.218 252.218 0 0 0 9.422 49.83l4.807 15.983 19.096 63.92 38.193 127.835 66.652 223.153h2.54l-67.363-224.01-38.422-127.73-19.21-63.864-4.826-15.937a250.033 250.033 0 0 1-9.429-49.37C.4 297.92 1.513 275.06 5.574 253.012c4.043-22.058 10.949-43.303 20.235-62.835a247.437 247.437 0 0 1 34.135-53.131c1.686-1.933 3.31-3.94 5.043-5.812l5.17-5.65 10.337-11.344 20.676-22.685 82.348-90.349V0l-82.993 90.653L79.81 113.28Z" fill="#F2FBFC" mask="url(#F)"/></g><g transform="translate(1001.543 -574.656)"><mask id="H" fill="#fff"><use xlink:href="#G"/></mask><path d="m74.452 109.144-10.107 11.61-5.072 5.803-4.918 6.008a249.073 249.073 0 0 0-32.899 54.64c-8.793 19.998-15.12 41.65-18.531 64.006-3.43 22.347-3.862 45.398-1.196 67.915a252.313 252.313 0 0 0 6.194 33.232c2.722 10.892 6.506 21.298 9.858 31.83l20.57 63.103 41.14 126.203 69.83 214.162h2.558L81.3 572.572 39.934 446.483 19.251 383.44c-3.382-10.551-7.155-20.867-9.87-31.647a250.161 250.161 0 0 1-6.199-32.925C.5 296.553.885 273.697 4.25 251.513c3.345-22.191 9.586-43.706 18.285-63.597a247.99 247.99 0 0 1 32.61-54.409l4.884-5.99 5.044-5.797 10.085-11.638L95.33 86.806l74.129-85.538V0L94.665 85.922l-20.213 23.222Z" fill="#F2FBFC" mask="url(#H)"/></g><g transform="translate(1015.603 -559.194)"><mask id="J" fill="#fff"><use xlink:href="#I"/></mask><path d="m68.94 103.87-9.813 11.886c-1.63 1.995-3.31 3.926-4.897 5.975-1.578 2.058-3.194 4.074-4.741 6.168-12.435 16.688-23.062 35.467-31.206 55.798-8.154 20.317-13.774 42.19-16.46 64.623-2.708 22.426-2.402 45.408.938 67.715a252.437 252.437 0 0 0 7.153 32.826c.392 1.333.746 2.684 1.168 4.003l1.273 3.954c.433 1.314.828 2.648 1.293 3.943l1.393 3.886 5.499 15.54 21.925 62.158 43.85 124.312 68.343 193.713v-7.17L88.095 565.673l-44.073-124.19-22.036-62.095-5.52-15.507-1.392-3.86c-.465-1.286-.857-2.605-1.29-3.907l-1.269-3.917c-.42-1.306-.774-2.644-1.164-3.965a250.22 250.22 0 0 1-7.15-32.522C.849 293.602.505 270.817 3.15 248.559c2.626-22.265 8.164-43.996 16.227-64.2 8.054-20.217 18.583-38.915 30.923-55.55 1.535-2.088 3.14-4.097 4.706-6.15 1.576-2.041 3.247-3.972 4.867-5.964l9.788-11.909L89.236 80.96l65.422-79.627V0L88.556 80.1 68.94 103.87Z" fill="#F2FBFC" mask="url(#J)"/></g><path d="m1094.336-446.065-9.563 12.171c-1.596 2.032-3.218 4.033-4.737 6.157-1.533 2.107-3.118 4.159-4.574 6.348a249.404 249.404 0 0 0-29.625 56.989c-7.566 20.63-12.478 42.74-14.453 65.248-1.99 22.509-.949 45.421 3.075 67.522a252.223 252.223 0 0 0 13.713 47.956l5.85 15.316 23.36 61.264L1124.1 15.433l46.9 122.985v-6.342l-45.14-117.69-46.939-122.398-23.47-61.198-5.873-15.289a249.998 249.998 0 0 1-13.687-47.525c-4.03-21.902-5.104-44.616-3.171-66.952 1.92-22.339 6.754-44.3 14.233-64.811a248.209 248.209 0 0 1 29.346-56.725c1.444-2.182 3.017-4.226 4.538-6.326 1.507-2.117 3.12-4.116 4.706-6.144l9.535-12.19 19.066-24.398L1171-542.323v-1.409l-57.554 73.32-19.11 24.347Z" fill="#F2FBFC"/><path d="M1103.237-436.229c-6.121 8.334-12.508 16.44-18.187 25.304a250.182 250.182 0 0 0-27.81 58.137c-6.885 20.93-11.112 43.203-12.382 65.754-1.265 22.55.51 45.354 5.188 67.215a252.66 252.66 0 0 0 9.06 31.983c.935 2.579 1.921 5.13 2.88 7.696 1.012 2.533 2.075 5.033 3.11 7.55l6.164 15.078 24.645 60.313 49.292 120.627 25.063 61.328V79.1l-23.333-56.78-49.508-120.49-24.754-60.245-6.19-15.058c-1.034-2.5-2.096-4.983-3.105-7.496-.955-2.542-1.938-5.07-2.87-7.625a250.236 250.236 0 0 1-9.041-31.687c-4.677-21.662-6.479-44.267-5.264-66.643 1.22-22.376 5.374-44.497 12.174-65.303a248.921 248.921 0 0 1 27.539-57.857c5.63-8.828 11.97-16.912 18.086-25.276l18.455-24.951 47.811-64.65v-1.49l-48.526 65.32-18.497 24.901Z" fill="#F2FBFC"/><g transform="translate(1059.262 -508.26)"><mask id="L" fill="#fff"><use xlink:href="#K"/></mask><path d="m54.124 81.377-9.017 12.712a246.144 246.144 0 0 0-8.589 13.185 249.94 249.94 0 0 0-26.14 59.19C4.132 187.65.618 210.057.076 232.593c-.555 22.535 1.95 45.175 7.303 66.747A251.617 251.617 0 0 0 17.4 330.813c1.037 2.515 2.028 5.062 3.103 7.549l3.298 7.407 6.518 14.822 26.072 59.282 52.144 118.566 3.203 7.28v-5.071l-1.492-3.376-52.359-118.42-26.179-59.21-6.545-14.803-3.294-7.362c-1.073-2.468-2.059-4.989-3.093-7.48a249.423 249.423 0 0 1-9.994-31.182C3.436 277.439.91 254.998 1.42 232.639c.498-22.36 3.943-44.61 10.108-65.667a248.582 248.582 0 0 1 25.873-58.891c2.71-4.505 5.566-8.872 8.52-13.14l8.98-12.719 17.956-25.475 38.88-55.164V0L72.125 55.952l-18 25.425Z" fill="#F2FBFC" mask="url(#L)"/></g><g transform="translate(1073.322 -489.16)"><mask id="N" fill="#fff"><use xlink:href="#M"/></mask><path d="m49.311 71.173-8.713 12.99-4.188 6.68c-1.356 2.261-2.665 4.568-4 6.85a250.92 250.92 0 0 0-24.265 60.285C2.588 179.43-.181 201.98.009 224.505c.178 22.53 3.396 45.007 9.379 66.299a252.07 252.07 0 0 0 10.907 30.979c2.093 5.013 4.475 9.824 6.748 14.69l6.83 14.58 27.318 58.32 35.748 76.318v-4.587l-34.28-72.805-27.421-58.244-6.856-14.561c-2.28-4.854-4.654-9.62-6.737-14.586a249.928 249.928 0 0 1-10.872-30.694c-5.972-21.099-9.204-43.378-9.421-65.728-.23-22.346 2.477-44.736 7.957-66.053a249.535 249.535 0 0 1 24.004-59.97c1.324-2.274 2.622-4.571 3.967-6.825l4.153-6.654 8.673-12.992 17.34-26.028L96.938 1.69V0L66.696 45.193l-17.385 25.98Z" fill="#F2FBFC" mask="url(#N)"/></g><path d="M1132.817-409.963c-2.772 4.428-5.629 8.796-8.368 13.278-1.326 2.279-2.709 4.512-3.99 6.832-1.263 2.335-2.57 4.634-3.795 7a250.313 250.313 0 0 0-22.368 61.215c-4.858 21.66-6.878 44.287-5.959 66.738.906 22.457 4.827 44.708 11.424 65.667a252.152 252.152 0 0 0 11.765 30.41l1.697 3.659 1.798 3.579 3.588 7.153 7.13 14.311 28.52 57.242 16.001 32.12v-4.164L1155.7-74l-28.623-57.164-7.156-14.29-3.59-7.121-1.793-3.555-1.691-3.626a249.65 249.65 0 0 1-11.724-30.129c-6.58-20.767-10.508-42.822-11.448-65.099-.952-22.27 1.011-44.734 5.795-66.256a249.006 249.006 0 0 1 22.116-60.883c1.214-2.355 2.51-4.645 3.762-6.97 1.27-2.31 2.641-4.536 3.957-6.808 2.716-4.467 5.555-8.825 8.323-13.267l16.708-26.533 19.924-31.64v-1.808l-20.687 32.702-16.756 26.485Z" fill="#F2FBFC"/><g transform="translate(1102.921 -446.411)"><mask id="P" fill="#fff"><use xlink:href="#O"/></mask><path d="m40.718 45.346-4.08 6.747c-1.368 2.247-2.741 4.487-4.014 6.821-1.297 2.31-2.618 4.601-3.819 6.99-1.222 2.37-2.489 4.708-3.615 7.152-9.368 19.27-16.439 40.25-20.625 62.102C.37 157-.975 179.674.7 202.031c1.648 22.363 6.304 44.368 13.576 64.978a250.252 250.252 0 0 0 12.728 29.824c1.165 2.422 2.461 4.732 3.72 7.074l3.764 7.018 7.5 14.04 26.091 48.853v-3.796L43.314 323.88l-7.525-14.02-3.77-6.994c-1.256-2.327-2.552-4.624-3.71-7.02a248.348 248.348 0 0 1-12.68-29.55C8.38 245.873 3.722 224.061 2.046 201.881c-1.703-22.176-.41-44.686 3.714-66.382a248.69 248.69 0 0 1 20.381-61.755c1.115-2.433 2.37-4.76 3.582-7.121 1.189-2.379 2.5-4.66 3.786-6.962 1.26-2.323 2.624-4.558 3.983-6.8l4.06-6.749L57.788 19.08 68.08 1.944V0L57.002 18.358 40.718 45.346Z" fill="#F2FBFC" mask="url(#P)"/></g><g transform="translate(-30 -722)"><mask id="R" fill="#fff"><use xlink:href="#Q"/></mask><path d="M220.587 454.487c17.837.84 35.748-.196 53.417-3.353 35.325-6.238 69.82-20.438 100.623-42.727 15.422-11.073 29.82-24.32 42.781-39.44a250.201 250.201 0 0 0 18.24-24.12l16.578-25.675 66.286-102.524L651.086 11.603 658.59 0h-2.465l-6.58 10.128-132.957 204.675-66.48 102.337-16.586 25.567a246.279 246.279 0 0 1-18.046 23.755c-12.823 14.89-27.069 27.939-42.331 38.837-30.484 21.946-64.642 35.903-99.586 41.97-17.484 3.075-35.195 4.049-52.838 3.169l-53.183-3.183L0 437.363v4.68l167.351 9.41 53.236 3.034Z" fill="#F2FBFC" mask="url(#R)"/></g><g transform="translate(-30 -722)"><mask id="T" fill="#fff"><use xlink:href="#S"/></mask><path d="m222.725 485.196 13.437.458c4.494.042 8.991.088 13.485-.109 8.986-.327 17.966-1.079 26.894-2.422 35.7-5.269 70.637-18.796 102.099-40.258 15.676-10.825 30.506-23.584 43.844-38.443a250.77 250.77 0 0 0 18.826-23.747c5.913-8.355 11.11-17.4 16.515-26.118l64.497-105.36L651.315 38.478 674.87 0h-2.338l-22.79 37.054-129.386 210.361-64.692 105.181c-5.444 8.742-10.592 17.658-16.437 25.876a247.37 247.37 0 0 1-18.626 23.389c-13.197 14.634-27.871 27.2-43.386 37.857-31.145 21.13-65.73 34.419-101.05 39.53-8.831 1.304-17.716 2.022-26.604 2.322-4.445.183-8.89.123-13.339.07l-13.38-.494-53.638-1.816L0 473.6v4.677l169.089 5.253 53.636 1.666Z" fill="#F2FBFC" mask="url(#T)"/></g><g transform="translate(-30 -722)"><mask id="V" fill="#fff"><use xlink:href="#U"/></mask><path d="m224.098 516.423 27.046.192c9.052-.029 18.11-.551 27.128-1.566 36.045-4.171 71.564-16.508 103.659-37.235 16.081-10.254 31.217-22.764 45.03-37.186 13.809-14.42 26.182-30.997 36.51-49.3l62.608-108.32 125.215-216.62 31.303-54.153L689.669 0h-2.217l-6.36 10.95-31.402 54.067-125.614 216.274-62.798 108.13C451.033 407.488 438.81 423.787 425.14 438c-13.669 14.205-28.645 26.527-44.565 36.622-31.775 20.408-66.933 32.514-102.595 36.541a247.259 247.259 0 0 1-26.838 1.475l-26.997-.268-54.045-.466L0 510.433v4.677l170.057.996 54.041.317Z" fill="#F2FBFC" mask="url(#V)"/></g><g transform="translate(-30 -722)"><mask id="X" fill="#fff"><use xlink:href="#W"/></mask><path d="m226.702 548.343 27.207-.56 13.628-.24c4.553-.16 9.116-.337 13.662-.765 36.39-2.968 72.36-14.49 105.116-34.291 16.335-9.966 31.943-21.861 46.118-36.028a249.386 249.386 0 0 0 37.912-48.39c1.324-2.29 2.69-4.544 3.977-6.86l3.79-6.997 7.576-13.907 15.152-27.815 30.304-55.63L652.357 94.344l30.304-55.63 15.151-27.815L703.728 0h-2.103l-5.294 9.704-15.202 27.774-30.405 55.547-121.622 222.186-30.405 55.547-15.203 27.773-7.602 13.888-3.77 6.922c-1.275 2.288-2.626 4.505-3.936 6.76a245.926 245.926 0 0 1-37.514 47.666c-14.026 13.955-29.476 25.671-45.649 35.483-32.43 19.494-68.031 30.794-104.036 33.63-4.5.41-9.006.574-13.52.72l-13.58.203-27.21.483-54.42.966L0 548.312v4.684l172.288-3.536 54.414-1.117Z" fill="#F2FBFC" mask="url(#X)"/></g><path d="M254.845-144.684c18.351-1.002 36.66-3.953 54.538-9.21 8.94-2.608 17.787-5.71 26.483-9.367a253.766 253.766 0 0 0 25.573-12.629c2.074-1.217 4.176-2.36 6.226-3.637l6.147-3.835 6.05-4.063c2.029-1.327 3.972-2.84 5.963-4.252a252.31 252.31 0 0 0 22.855-18.947c14.64-13.678 27.93-29.582 39.31-47.36l2.132-3.337 2.04-3.422 2.039-3.422 1.94-3.508 1.938-3.51 1.838-3.582 3.661-7.153 14.636-28.508 29.273-57.015 117.09-228.064 29.274-57.015 14.636-28.508 7.312-14.254c1.217-2.366 2.384-4.776 3.643-7.107 1.282-2.31 2.525-4.654 3.84-6.937a239.6 239.6 0 0 1 5.246-8.674h-2.154a240.539 240.539 0 0 0-4.488 7.458c-1.33 2.3-2.589 4.66-3.887 6.988-1.273 2.346-2.449 4.763-3.68 7.142l-7.34 14.241-14.688 28.469-29.377 56.936L505.41-373.02l-29.377 56.936-14.69 28.467-3.652 7.105-1.826 3.541-1.918 3.458-1.92 3.456-2.019 3.371-2.018 3.37-2.11 3.287c-11.262 17.513-24.41 33.181-38.9 46.654a249.172 249.172 0 0 1-22.622 18.665c-1.97 1.39-3.895 2.88-5.904 4.188l-5.99 4.001-6.085 3.776c-2.03 1.259-4.11 2.382-6.164 3.58a250.696 250.696 0 0 1-25.315 12.422c-8.608 3.594-17.366 6.638-26.215 9.193-17.696 5.153-35.808 8.021-53.973 8.965l-109.596 4.668L-30-136.402v4.689l175.217-8 109.628-4.97Z" fill="#F2FBFC"/><g transform="translate(-30 -722)"><mask id="Z" fill="#fff"><use xlink:href="#Y"/></mask><path d="M286.334 608.005c9.195-.724 18.464-1.096 27.7-2.268 9.234-1.107 18.417-2.836 27.513-5.065a248.037 248.037 0 0 0 26.994-8.278 247.518 247.518 0 0 0 26.169-11.613c17.133-8.76 33.485-19.822 48.689-32.907 15.212-13.071 29.131-28.453 41.218-45.786a250.47 250.47 0 0 0 16.611-27.46l1.878-3.606 1.767-3.68 3.532-7.34 7.061-14.629 28.246-58.52 112.982-234.078 56.449-117.04A246.762 246.762 0 0 1 734.808 0H732.6a248.62 248.62 0 0 0-20.92 34.64L655 151.57 541.596 385.346l-28.351 58.444-7.088 14.611-3.526 7.293-1.758 3.639-1.857 3.552a246.767 246.767 0 0 1-16.44 27.051c-11.962 17.076-25.735 32.233-40.793 45.111-15.05 12.891-31.244 23.791-48.206 32.407a244.63 244.63 0 0 1-25.904 11.418 245.453 245.453 0 0 1-26.72 8.118c-9.004 2.18-18.092 3.866-27.23 4.936-9.128 1.135-18.32 1.477-27.543 2.18l-110.568 7.607L0 623.797v4.69l175.788-12.575 110.546-7.907Z" fill="#F2FBFC" mask="url(#Z)"/></g><g transform="translate(-30 -722)"><mask id="ab" fill="#fff"><use xlink:href="#aa"/></mask><path d="m288.059 638.842 27.838-2.685c9.315-.7 18.635-2.057 27.865-3.886a246.478 246.478 0 0 0 27.447-7.147c9.045-2.944 17.962-6.48 26.718-10.529 8.75-4.065 17.352-8.636 25.71-13.81a257.038 257.038 0 0 0 24.34-17.164c15.725-12.472 30.279-27.236 43.04-44.094a249.51 249.51 0 0 0 17.698-26.79l2.017-3.535 1.92-3.617 1.914-3.621 1.81-3.702 1.805-3.705 1.696-3.773 3.392-7.52L550.4 423.28l108.531-239.938 54.265-119.968 3.358-7.499c1.09-2.52 2.35-4.908 3.515-7.369a249.707 249.707 0 0 1 7.673-14.24 246.363 246.363 0 0 1 17.684-26.341 250.956 250.956 0 0 1 6.4-7.925h-2.268c-1.79 2.16-3.556 4.35-5.285 6.584a247.916 247.916 0 0 0-17.872 26.502 251.44 251.44 0 0 0-7.763 14.342c-1.18 2.478-2.459 4.891-3.558 7.42l-3.387 7.525-54.48 119.825-108.958 239.648-27.24 59.913-3.39 7.477-1.686 3.731-1.788 3.65-1.792 3.647-1.895 3.567-1.9 3.565-1.997 3.481a246.064 246.064 0 0 1-17.516 26.397c-12.628 16.61-27.032 31.16-42.602 43.448a254.187 254.187 0 0 1-24.1 16.909c-8.275 5.095-16.79 9.593-25.454 13.592-8.67 3.982-17.496 7.457-26.45 10.345a243.904 243.904 0 0 1-27.17 6.998c-9.145 1.786-18.335 3.102-27.601 3.773l-27.836 2.61-111.358 10.463L0 661.994v4.694l176.726-17.084 111.333-10.762Z" fill="#F2FBFC" mask="url(#ab)"/></g><path d="m261.116-51.172 28.026-3.454 14.013-1.727c4.681-.572 9.38-1.048 14.058-1.831 18.722-2.93 37.235-8.035 55.11-15.513a247.719 247.719 0 0 0 26.316-12.822c8.584-4.834 16.931-10.298 25.03-16.261 16.19-11.93 31.356-26.066 44.752-42.468 13.41-16.36 25.096-34.92 34.305-55.234 1.194-2.513 2.25-5.106 3.333-7.684l3.246-7.701 6.494-15.37 12.987-30.742 103.9-245.927 51.95-122.964c4.393-10.22 8.402-20.632 13.377-30.373a247.362 247.362 0 0 1 16.394-27.957c8.062-11.889 17.032-22.819 26.66-32.8h-2.352a248.049 248.049 0 0 0-25.526 31.547 248.89 248.89 0 0 0-16.578 28.144c-5.04 9.82-9.102 20.311-13.501 30.49l-52.168 122.828-104.335 245.653-13.04 30.706-6.522 15.354-3.25 7.668c-1.076 2.549-2.127 5.117-3.308 7.588a246.677 246.677 0 0 1-33.956 54.426c-13.258 16.162-28.27 30.094-44.304 41.85-8.02 5.878-16.285 11.258-24.784 16.018a245.363 245.363 0 0 1-26.055 12.614c-17.697 7.35-36.026 12.353-54.556 15.204-4.628.763-9.29 1.222-13.953 1.78l-14.017 1.688-28.033 3.38-112.134 13.518L-30-20v4.707l179.013-22.062 112.103-13.817Z" fill="#F2FBFC"/><g transform="translate(-30 -722)"><mask id="ad" fill="#fff"><use xlink:href="#ac"/></mask><path d="m293.052 702.232 56.508-8.404c4.7-.728 9.44-1.337 14.161-2.101l7.077-1.27 7.047-1.504a244.613 244.613 0 0 0 27.814-8.162 244.034 244.034 0 0 0 27.005-11.566 248.688 248.688 0 0 0 25.824-15.1 254.808 254.808 0 0 0 24.33-18.471 249.936 249.936 0 0 0 22.366-21.91 248.988 248.988 0 0 0 36.833-53.588l1.899-3.73 1.788-3.812 1.782-3.815 1.671-3.892c.552-1.299 1.126-2.587 1.66-3.897l1.549-3.957 3.099-7.887 12.4-31.465 99.206-251.713 49.604-125.857 6.2-15.732 3.086-7.865c1.026-2.615 2.002-5.265 3.133-7.81A247.26 247.26 0 0 1 782.99 8.881 250.477 250.477 0 0 1 792.527 0h-2.448c-2.706 2.431-5.385 4.907-8.007 7.476a248.695 248.695 0 0 0-39.418 50.495 250.267 250.267 0 0 0-15.025 29.82c-1.146 2.569-2.131 5.228-3.17 7.858l-3.105 7.872-6.228 15.716-49.824 125.728-99.647 251.455-12.455 31.432-3.101 7.846-1.54 3.916c-.53 1.293-1.098 2.56-1.645 3.842l-1.655 3.835-1.765 3.759-1.77 3.757-1.88 3.674a245.557 245.557 0 0 1-36.46 52.81 246.922 246.922 0 0 1-22.143 21.598 251.642 251.642 0 0 1-24.093 18.203 245.686 245.686 0 0 1-25.57 14.869 242.211 242.211 0 0 1-54.276 19.377l-6.976 1.468-7.006 1.24c-4.685.745-9.384 1.336-14.097 2.052l-56.526 8.256-113.05 16.512L0 741.103v4.714l180.037-26.777 113.015-16.808Z" fill="#F2FBFC" mask="url(#ad)"/></g><path d="m265.63 13.16 56.932-9.934 28.49-4.945a244.455 244.455 0 0 0 28.347-6.808c18.71-5.655 36.927-13.784 54.232-24.201A250.63 250.63 0 0 0 458.83-50.1a254.77 254.77 0 0 0 23.357-20.906 248.78 248.78 0 0 0 39.286-51.888 251.18 251.18 0 0 0 14.733-30.568l1.596-3.99 1.474-4.051 2.944-8.08 5.89-16.112 94.26-257.8 47.131-128.9 11.782-32.225a250.48 250.48 0 0 1 13.124-31.234 247.258 247.258 0 0 1 36.624-53.832A250.186 250.186 0 0 1 786.206-722h-2.612a252.816 252.816 0 0 0-33.548 30.98c-14.251 15.857-26.843 34.034-36.99 54.14a252.234 252.234 0 0 0-13.285 31.45l-11.838 32.195-47.354 128.779L545.872-186.9l-5.92 16.097-2.944 8.035-1.465 4.009-1.582 3.932a247.822 247.822 0 0 1-14.59 30.124 245.424 245.424 0 0 1-38.892 51.144 251.65 251.65 0 0 1-23.13 20.61 247.609 247.609 0 0 1-24.953 17.116c-17.136 10.26-35.175 18.259-53.702 23.807A241.583 241.583 0 0 1 350.62-5.36L322.16-.496 265.208 9.29 151.303 28.863-30 60.016v4.73L151.765 33.03 265.63 13.16Z" fill="#F2FBFC"/><g transform="translate(-30 -722)"><mask id="af" fill="#fff"><use xlink:href="#ae"/></mask><path d="m298.548 768.32 57.282-11.563 28.641-5.782 14.33-2.88c2.395-.492 4.797-.896 7.186-1.458 2.388-.562 4.781-1.087 7.164-1.681 19.053-4.802 37.705-12.03 55.526-21.618 17.828-9.566 34.777-21.642 50.324-36.031 15.55-14.366 29.709-31.097 41.65-50.022a249.68 249.68 0 0 0 16.135-29.9c1.168-2.627 2.383-5.223 3.442-7.92 1.097-2.674 2.208-5.338 3.186-8.083l1.517-4.085c.49-1.368.934-2.76 1.403-4.137l2.778-8.265 89.014-263.68 44.507-131.839 11.126-32.96 5.531-16.475c1.856-5.47 3.915-10.823 6.107-16.098 8.827-21.065 20.361-40.374 33.792-57.379 13.434-17.02 28.731-31.768 45.15-44.219A237.453 237.453 0 0 1 842.105 0h-2.83c-5.313 3.388-10.54 6.98-15.64 10.837-16.529 12.476-31.943 27.269-45.5 44.372-13.55 17.086-25.21 36.513-34.15 57.737-2.218 5.311-4.307 10.715-6.186 16.217l-5.571 16.498-11.183 32.93-44.733 131.727-89.466 263.453-2.78 8.217c-.467 1.364-.907 2.743-1.395 4.093l-1.504 4.027c-.97 2.703-2.07 5.33-3.157 7.964-1.049 2.66-2.252 5.218-3.408 7.806a246.458 246.458 0 0 1-15.977 29.471c-11.82 18.654-25.838 35.15-41.238 49.315-15.397 14.188-32.181 26.09-49.837 35.51-17.647 9.44-36.119 16.546-54.986 21.25-2.359.581-4.73 1.094-7.093 1.646-2.364.551-4.758.946-7.136 1.427l-14.32 2.842-28.652 5.708-57.305 11.415-114.61 22.83-183.45 36.543v4.75l183.984-37.14 114.565-23.125Z" fill="#F2FBFC" mask="url(#af)"/></g><g transform="translate(-30 -722)"><mask id="ah" fill="#fff"><use xlink:href="#ag"/></mask><path d="m423.293 774.393 3.625-.809 3.61-.93c2.408-.618 4.818-1.228 7.204-1.967 2.389-.721 4.793-1.367 7.159-2.193 9.514-3.083 18.906-6.748 28.098-11.07 18.378-8.649 36.002-19.768 52.32-33.306a248.821 248.821 0 0 0 44.292-47.742c12.944-18.241 23.818-38.784 31.686-61.012l1.438-4.185c.488-1.391.96-2.789 1.38-4.21l2.61-8.467 5.234-16.864 10.466-33.728 20.934-67.455 41.867-134.912 41.867-134.912 20.96-67.4c7.444-22.151 17.845-42.757 30.403-61.095 12.559-18.36 27.249-34.463 43.241-48.212A240.608 240.608 0 0 1 873.185 0h-3.216c-17.238 8.638-33.772 19.463-49.05 32.567-16.104 13.785-30.914 29.948-43.594 48.407-12.68 18.438-23.202 39.181-30.749 61.51l-21.098 67.418-42.096 134.808-42.096 134.806-21.048 67.404-10.524 33.702-5.262 16.85-2.608 8.404a85.808 85.808 0 0 1-1.37 4.157l-1.426 4.124c-7.799 21.909-18.564 42.159-31.38 60.143a245.604 245.604 0 0 1-43.861 47.077c-16.163 13.35-33.616 24.305-51.817 32.818-9.104 4.253-18.406 7.857-27.829 10.883-2.343.814-4.724 1.446-7.09 2.154-2.362.726-4.749 1.324-7.133 1.929l-3.577.913-3.6.793-7.21 1.607L0 866.566v4.767l416.057-95.308 7.236-1.632Z" fill="#F2FBFC" mask="url(#ah)"/></g><path d="M417.918 77.746a242.515 242.515 0 0 0 28.811-9.487 243.246 243.246 0 0 0 54.251-30.262c17.035-12.651 32.873-27.79 46.812-45.281 13.932-17.484 25.904-37.402 35.03-59.192a255.7 255.7 0 0 0 11.477-33.875l9.77-34.48 19.536-68.96 39.077-137.918 39.076-137.92 19.537-68.96c5.945-23.155 14.999-44.997 26.543-64.665 11.525-19.69 25.456-37.194 40.909-52.283 15.446-15.125 32.492-27.73 50.429-37.871A240.76 240.76 0 0 1 880.925-722h-4.121c-13.033 4.583-25.803 10.3-38.136 17.226-18.038 10.143-35.195 22.77-50.755 37.942-15.566 15.135-29.62 32.715-41.264 52.524-11.659 19.768-20.842 41.822-26.859 65.098l-19.653 68.912-39.308 137.822-39.307 137.823-19.653 68.91-9.828 34.457a251.868 251.868 0 0 1-11.39 33.433c-9.042 21.481-20.894 41.118-34.69 58.36-13.804 17.248-29.494 32.186-46.365 44.656a240.378 240.378 0 0 1-53.734 29.81 239.864 239.864 0 0 1-28.541 9.321l-29.071 7.313L-30 187.297v4.784L388.818 85.143l29.1-7.397Z" fill="#F2FBFC"/><g transform="translate(35.119 -722)"><mask id="aj" fill="#fff"><use xlink:href="#ai"/></mask><path d="m400.747 826.302 7.195-2.006 7.16-2.247a242.988 242.988 0 0 0 28.073-11.318c18.366-8.768 35.968-20.017 52.236-33.714 16.252-13.707 31.157-29.886 44.007-48.29 12.838-18.398 23.546-39.111 31.282-61.446.952-2.798 1.84-5.63 2.763-8.443.817-2.861 1.673-5.708 2.458-8.581l4.42-17.28 8.853-34.475 17.709-68.952 35.417-137.901 35.416-137.903 17.682-68.944c5.824-22.917 14.798-44.567 26.189-64.07 11.384-19.527 25.152-36.894 40.42-51.887 15.27-15.009 32.062-27.648 49.782-37.816 17.719-10.195 36.387-17.837 55.48-23.1L895.385 0h-4.688l-23.654 6.614c-19.164 5.231-37.931 12.858-55.748 23.055-17.821 10.17-34.722 22.831-50.106 37.887-15.38 15.038-29.27 32.481-40.772 52.124-11.507 19.615-20.6 41.436-26.511 64.527l-17.806 68.93-35.65 137.814-35.65 137.813-17.825 68.908-8.912 34.453-4.43 17.197c-.781 2.837-1.63 5.64-2.44 8.461-.916 2.773-1.797 5.563-2.74 8.321-7.669 22.013-18.269 42.43-30.98 60.57-12.722 18.144-27.485 34.103-43.58 47.619-16.11 13.503-33.543 24.587-51.733 33.218a240.272 240.272 0 0 1-27.802 11.13l-7.09 2.207-7.149 1.974-14.333 4.013L0 935h16.726l369.69-104.646 14.331-4.052Z" fill="#F2FBFC" mask="url(#aj)"/></g><g transform="translate(176.457 -722)"><mask id="al" fill="#fff"><use xlink:href="#ak"/></mask><path d="m283.849 851.232 7.141-2.179 7.1-2.43a243.405 243.405 0 0 0 27.808-12c18.165-9.22 35.524-20.908 51.49-35.028 15.944-14.14 30.495-30.713 42.918-49.478 12.415-18.755 22.628-39.775 29.815-62.319.881-2.824 1.702-5.677 2.553-8.514.747-2.883 1.534-5.753 2.247-8.645l3.992-17.386 8.001-34.689 16.004-69.378 32.008-138.755 32.008-138.755 15.978-69.37c5.256-23.055 13.703-44.958 24.636-64.776 10.926-19.84 24.295-37.593 39.232-52.983 14.937-15.41 31.453-28.476 48.947-39.08 17.492-10.63 35.976-18.742 54.934-24.455l56.88-17.63L798.448 0h-3.933l-7.204 2.214L730.394 19.7c-19.03 5.684-37.615 13.784-55.206 24.419-17.594 10.609-34.221 23.7-49.271 39.16-15.05 15.442-28.54 33.275-39.582 53.237-11.048 19.935-19.609 42.014-24.948 65.249l-16.103 69.359L513.04 409.8l-32.243 138.675-16.122 69.337-8.06 34.67-4.005 17.304c-.709 2.856-1.49 5.68-2.23 8.523-.846 2.796-1.66 5.608-2.534 8.392-7.126 22.218-17.238 42.934-29.53 61.423-12.298 18.498-26.708 34.846-42.497 48.788-15.811 13.921-33 25.44-50.99 34.516a240.775 240.775 0 0 1-27.539 11.805l-7.032 2.387-7.096 2.147-14.225 4.379L0 935h14.314l255.313-79.352 14.222-4.416Z" fill="#F2FBFC" mask="url(#al)"/></g><path d="m484.154 153.53 7.082-2.358 7.036-2.605a243.692 243.692 0 0 0 27.513-12.687c17.949-9.672 35.042-21.803 50.688-36.345a252.966 252.966 0 0 0 41.768-50.654c11.97-19.103 21.668-40.42 28.289-63.154.805-2.85 1.564-5.72 2.338-8.583.674-2.9 1.395-5.788 2.028-8.7l3.56-17.475 7.14-34.87 14.28-69.741 28.559-139.48 28.559-139.48 14.254-69.732c4.676-23.175 12.576-45.313 23.03-65.439 10.446-20.146 23.4-38.273 37.983-54.063 14.583-15.81 30.805-29.302 48.053-40.345a237.719 237.719 0 0 1 54.333-25.816l56.394-19.075L1011.163-722h-3.349l-41.025 13.768-56.43 18.931a238.575 238.575 0 0 0-54.608 25.786c-17.35 11.052-33.682 24.573-48.378 40.44-14.696 15.844-27.769 34.058-38.33 54.33-10.567 20.249-18.578 42.57-23.334 65.927l-14.378 69.726-28.796 139.409-28.796 139.409L659.34-84.57l-7.198 34.852-3.576 17.395c-.631 2.876-1.346 5.717-2.014 8.577-.77 2.822-1.523 5.65-2.32 8.46-6.57 22.403-16.172 43.409-28.022 62.242a249.627 249.627 0 0 1-41.358 49.942c-15.491 14.337-32.417 26.293-50.191 35.815a240.848 240.848 0 0 1-27.246 12.485l-6.97 2.561-7.036 2.324-14.104 4.74L296.335 213h12.432l161.29-54.692 14.097-4.777Z" fill="#F2FBFC"/><path d="m509.81 177.177 7.022-2.539 6.975-2.78a244.091 244.091 0 0 0 27.221-13.377c17.732-10.125 34.56-22.7 49.88-37.665a253.41 253.41 0 0 0 40.601-51.814c11.517-19.446 20.69-41.044 26.74-63.95l2.116-8.645c.6-2.917 1.257-5.82 1.808-8.748L675.3-29.89l6.276-35.019 12.553-70.039 25.106-140.075L744.342-415.1l12.527-70.03c4.09-23.274 11.436-45.632 21.399-66.054 9.954-20.445 22.489-38.936 36.712-55.126 14.222-16.208 30.147-30.128 47.149-41.612a241.633 241.633 0 0 1 26.249-15.425 241.85 241.85 0 0 1 27.49-11.756l55.916-20.508 71.938-26.39h-2.888l-69.323 25.236-55.955 20.366a242.554 242.554 0 0 0-27.618 11.731 242.388 242.388 0 0 0-26.396 15.43c-17.104 11.495-33.14 25.448-47.475 41.718-14.335 16.248-26.989 34.83-37.056 55.407-10.075 20.551-17.527 43.098-21.69 66.557l-12.654 70.027-25.345 140.013L691.977-135.5l-12.672 70.006-6.337 35.004-3.144 17.47c-.55 2.893-1.202 5.749-1.798 8.624l-2.102 8.52c-6.003 22.572-15.087 43.855-26.489 63.022a250.037 250.037 0 0 1-40.2 51.084c-15.168 14.752-31.83 27.145-49.388 37.117a241.163 241.163 0 0 1-26.956 13.167l-6.908 2.734-6.978 2.503-13.985 5.1L401.413 213h10.945l83.474-30.686 13.978-5.137Z" fill="#F2FBFC"/><g transform="translate(493.171 -722)"><mask id="an" fill="#fff"><use xlink:href="#am"/></mask><path d="M131.9 863.42c14.946-15.406 28.325-33.167 39.371-52.958 11.042-19.779 19.671-41.647 25.132-64.707.633-2.897 1.286-5.79 1.888-8.698.524-2.93 1.119-5.846 1.583-8.786l2.691-17.607 5.407-35.135 10.81-70.271 21.623-140.542 21.623-140.54 10.788-70.263c3.492-23.352 10.263-45.91 19.717-66.619 9.443-20.73 21.534-39.58 35.375-56.167 13.84-16.603 29.446-30.952 46.183-42.878a242.51 242.51 0 0 1 25.886-16.103 242.093 242.093 0 0 1 27.2-12.449l55.388-21.93L577.93 0h-2.517l-93.14 36.621-55.43 21.789a243.04 243.04 0 0 0-27.33 12.428 243.532 243.532 0 0 0-26.034 16.111c-16.838 11.94-32.556 26.327-46.51 42.996-13.951 16.649-26.161 35.598-35.714 56.466-9.563 20.84-16.437 43.596-20 67.136l-10.912 70.262-21.862 140.488-21.864 140.488-10.932 70.243-5.465 35.122-2.711 17.53c-.464 2.908-1.056 5.774-1.577 8.663-.597 2.866-1.247 5.717-1.875 8.572-5.424 22.723-13.97 44.268-24.901 63.762a250.23 250.23 0 0 1-38.98 52.208c-14.824 15.167-31.201 28-48.524 38.421a241.472 241.472 0 0 1-26.638 13.852l-6.84 2.908-6.913 2.68-13.853 5.456L0 935h9.74l18.54-7.357 13.846-5.493 6.957-2.717 6.905-2.956a244.225 244.225 0 0 0 26.901-14.07c17.495-10.582 34.04-23.603 49.011-38.987" fill="#F2FBFC" mask="url(#an)"/></g><g transform="translate(574.57 -722)"><mask id="ap" fill="#fff"><use xlink:href="#ao"/></mask><path d="M113.597 829.244a252.407 252.407 0 0 0 23.48-65.418c.551-2.915 1.15-5.817 1.66-8.742.447-2.941.984-5.867 1.355-8.819l2.255-17.646 4.533-35.218 9.066-70.438 18.133-140.876 18.132-140.874 9.045-70.428c2.886-23.41 9.07-46.152 18.003-67.132 8.918-21.002 20.55-40.21 33.996-57.186 13.446-16.996 28.723-31.774 45.184-44.145a243.07 243.07 0 0 1 25.514-16.779 242.63 242.63 0 0 1 26.902-13.146l54.848-23.34L520.95 0h-2.215L405.39 47.918l-54.893 23.2a243.377 243.377 0 0 0-27.032 13.13 243.848 243.848 0 0 0-25.662 16.793c-16.565 12.388-31.954 27.207-45.513 44.274-13.558 17.045-25.305 36.355-34.332 57.502-9.037 21.118-15.322 44.062-18.273 67.659l-9.169 70.432-18.373 140.83-18.374 140.83-9.187 70.417-4.593 35.207-2.277 17.574c-.372 2.92-.907 5.796-1.352 8.695-.506 2.883-1.103 5.742-1.65 8.615a248.716 248.716 0 0 1-23.271 64.458c-10.452 19.82-23.278 37.724-37.725 53.315-14.467 15.579-30.552 28.85-47.632 39.724A241.715 241.715 0 0 1 0 935h7.662a244.744 244.744 0 0 0 19.716-11.361c17.252-11.04 33.5-24.506 48.114-40.31 14.593-15.817 27.547-33.971 38.105-54.085" fill="#F2FBFC" mask="url(#ap)"/></g><g transform="translate(635.989 -722)"><mask id="ar" fill="#fff"><use xlink:href="#aq"/></mask><path d="M98.363 781.25c.472-2.928 1.017-5.837 1.428-8.778l.592-4.417c.203-1.471.4-2.943.532-4.423l1.815-17.669 3.655-35.269 7.308-70.54 14.617-141.077 14.618-141.078 7.288-70.53c2.272-23.442 7.851-46.348 16.235-67.587 8.37-21.26 19.51-40.815 32.533-58.178 13.021-17.386 27.939-32.591 44.095-45.406a238.86 238.86 0 0 1 51.655-31.303l54.225-24.741L480.992 0h-1.965l-130.4 59.124-54.272 24.602a239.685 239.685 0 0 0-51.937 31.31c-16.26 12.836-31.288 28.088-44.422 45.547-13.133 17.439-24.39 37.102-32.863 58.512-8.488 21.381-14.16 44.496-16.49 68.128l-7.414 70.535-14.86 141.043-14.86 141.041-7.43 70.52-3.714 35.261-1.84 17.6c-.131 1.467-.329 2.919-.532 4.367l-.591 4.352c-.41 2.9-.953 5.766-1.422 8.65-4.193 22.973-11.64 44.989-21.57 65.109-9.943 20.124-22.315 38.412-36.385 54.4A243.955 243.955 0 0 1 0 935h5.353a247.52 247.52 0 0 0 34.499-32.479c14.213-16.218 26.708-34.765 36.753-55.19 10.03-20.417 17.544-42.767 21.758-66.082" fill="#F2FBFC" mask="url(#ar)"/></g><g transform="translate(684.828 -722)"><mask id="at" fill="#fff"><use xlink:href="#as"/></mask><path d="M72.302 798.019c.875-5.851 1.608-11.745 2.086-17.657l1.377-17.676 2.78-35.288 5.558-70.573 11.118-141.15 11.118-141.148 5.541-70.565c1.652-23.454 6.619-46.502 14.449-67.984 7.814-21.502 18.458-41.396 31.054-59.142 12.595-17.769 27.152-33.402 43.008-46.662a239.479 239.479 0 0 1 50.916-32.686L304.94 71.36 451.392 0h-1.755L304.589 70.24l-53.685 25.99a240.319 240.319 0 0 0-51.2 32.701c-15.96 13.287-30.628 28.97-43.333 46.819-12.706 17.825-23.465 37.833-31.38 59.49-7.931 21.63-12.987 44.894-14.692 68.536l-5.665 70.573-11.36 141.122-11.361 141.122-5.68 70.562-2.841 35.28-1.404 17.612c-.483 5.845-1.214 11.64-2.087 17.408-3.555 23.067-10.44 45.292-19.85 65.708-9.43 20.415-21.34 39.086-35.038 55.462A245.756 245.756 0 0 1 0 935h4.27c4.343-4.482 8.567-9.138 12.621-14.014 13.839-16.614 25.87-35.55 35.394-56.272 9.503-20.72 16.45-43.285 20.017-66.695" fill="#F2FBFC" mask="url(#at)"/></g><path d="m782.409 74.443.94-17.665 1.904-35.272 3.81-70.545 7.617-141.088 7.618-141.09 3.795-70.536c1.026-23.441 5.366-46.609 12.625-68.318 7.243-21.728 17.372-41.95 29.523-60.073 12.148-18.145 26.327-34.206 41.866-47.911 15.535-13.735 32.448-25.063 50.132-34.07l53.013-27.504L1153.98-722h-1.58l-157.52 81.26-53.067 27.368c-17.76 8.994-34.78 20.331-50.417 34.095-15.643 13.737-29.933 29.851-42.191 48.082-12.26 18.208-22.501 38.55-29.842 60.438-7.356 21.862-11.78 45.253-12.855 68.88l-3.918 70.546-7.862 141.072-7.861 141.07-3.931 70.536-1.965 35.268-.968 17.607c-.321 5.847-.896 11.65-1.623 17.433-2.938 23.126-9.194 45.56-18.084 66.25-8.644 20.133-19.72 38.663-32.548 55.095h3.697c12.217-16.1 22.79-34.118 31.123-53.628 8.977-21.001 15.286-43.78 18.228-67.25.726-5.864 1.3-11.77 1.614-17.68" fill="#F2FBFC"/><g transform="translate(103.198 -722)"><mask id="av" fill="#fff"><use xlink:href="#au"/></mask><path d="M113.834.42c.536-.132 1.07-.284 1.604-.42H95.517C70.896 4.01 45.88 4.037 21.273 0H0a271.16 271.16 0 0 0 12.672 2.877C46.182 9.51 80.557 8.604 113.834.419" fill="#F2FBFC" mask="url(#av)"/></g><path d="M68.068-700.656c8.052 3.24 16.22 6.117 24.482 8.468a261.632 261.632 0 0 0 25.002 5.752c33.597 5.824 67.987 4.446 101.201-3.926 25.162-6.354 49.68-16.917 72.402-31.638h-6.578c-21.018 12.8-43.46 22.085-66.462 27.826-32.87 8.184-66.89 9.443-100.077 3.589a258.377 258.377 0 0 1-24.69-5.757c-8.162-2.346-16.209-5.207-24.17-8.435L27.41-722H15.88l4.184 1.709 48.004 19.635Z" fill="#F2FBFC"/><g transform="translate(-30 -722)"><mask id="ax" fill="#fff"><use xlink:href="#aw"/></mask><path d="M99.297 55.032c8.063 3.238 16.302 5.94 24.59 8.224 4.137 1.199 8.32 2.13 12.492 3.113l6.289 1.275c2.093.445 4.206.728 6.308 1.101 33.694 5.503 68.133 3.662 101.325-5.233 33.17-8.897 65.204-25.097 93.279-48.792L361.114 0h-5.143l-14.03 11.717c-27.801 23.343-59.485 39.256-92.312 47.96-32.848 8.701-66.916 10.418-100.2 4.88-2.077-.375-4.165-.661-6.232-1.107l-6.212-1.277c-4.12-.985-8.251-1.916-12.335-3.114-8.192-2.284-16.292-4.964-24.29-8.202l-48.367-18.65L0 12.174v4.909l50.883 19.44 48.414 18.509Z" fill="#F2FBFC" mask="url(#ax)"/></g><g transform="translate(-30 -722)"><mask id="az" fill="#fff"><use xlink:href="#ay"/></mask><path d="M100.99 87.9c8.129 2.974 16.37 5.694 24.693 7.898a256.03 256.03 0 0 0 25.182 5.191c33.8 5.113 68.3 2.93 101.492-6.31 33.172-9.247 65.119-25.802 93.071-49.733L396.633 0h-4.798l-48.083 41.992c-27.662 23.56-59.27 39.835-92.096 48.883-32.85 9.044-66.975 11.1-100.368 5.947-8.344-1.322-16.645-3.037-24.87-5.203-8.223-2.204-16.33-4.904-24.417-7.888L53.205 66.46 0 47.634v4.85L52.17 70.78l48.82 17.12Z" fill="#F2FBFC" mask="url(#az)"/></g><path d="m70.75-601.273 12.328 4.02c2.052.704 4.127 1.32 6.208 1.917 2.079.593 4.147 1.255 6.243 1.757 8.34 2.272 16.78 3.938 25.247 5.26 33.892 5.194 68.498 3 101.776-6.351 33.248-9.359 65.324-25.968 93.274-50.231 3.522-2.982 6.892-6.203 10.292-9.358l10.173-9.43 20.347-18.86 40.692-37.723 1.863-1.728h-4.475l-39.788 36.7-20.384 18.801-10.19 9.401c-3.386 3.126-6.73 6.306-10.212 9.238-27.654 23.887-59.394 40.215-92.295 49.373-32.936 9.153-67.163 11.219-100.647 5.987-8.365-1.332-16.702-3.002-24.935-5.272-2.07-.502-4.112-1.16-6.164-1.753-2.053-.594-4.103-1.21-6.139-1.915l-12.28-4.042-49.227-16.089L-30-638.715v4.834l51.5 16.67 49.25 15.938Z" fill="#F2FBFC"/><g transform="translate(-30 -722)"><mask id="aB" fill="#fff"><use xlink:href="#aA"/></mask><path d="m103.113 153.422 12.402 3.66 6.219 1.868c2.075.614 4.177 1.122 6.264 1.689 8.376 2.124 16.814 3.901 25.31 5.104 33.97 4.99 68.631 2.539 101.916-7.071 33.27-9.591 65.248-26.593 93.13-51.009 3.455-3.094 6.904-6.211 10.215-9.519l10.005-9.736 20-19.44 40-38.878L459.533 0h-4.19L426.89 27.518 386.814 66.28l-20.039 19.38c-6.724 6.416-13.237 13.069-20.123 19.07-27.587 24.036-59.226 40.754-92.15 50.142-32.944 9.41-67.225 11.731-100.787 6.7-8.394-1.214-16.729-2.995-24.998-5.118-2.062-.565-4.132-1.072-6.188-1.686l-6.164-1.872-12.392-3.694-49.578-14.767L0 118.235v4.797l53.516 15.772 49.597 14.618Z" fill="#F2FBFC" mask="url(#aB)"/></g><g transform="translate(-30 -722)"><mask id="aD" fill="#fff"><use xlink:href="#aC"/></mask><path d="m104.3 186.502 25.05 6.743a257.398 257.398 0 0 0 25.408 5.193c34.111 5.038 68.924 2.65 102.35-7.03 33.4-9.66 65.557-26.675 93.52-51.315l5.195-4.69 5.075-4.886c3.33-3.33 6.594-6.764 9.88-10.1l19.69-20.16 39.378-40.316L488.392 0h-3.932l-56.352 57.415-39.457 40.202-19.728 20.1c-3.305 3.34-6.538 6.725-9.84 10.01l-5.02 4.813-5.14 4.616c-27.667 24.255-59.483 40.987-92.538 50.444-33.082 9.478-67.512 11.736-101.213 6.658a255.245 255.245 0 0 1-25.102-5.207l-24.983-6.802-50.037-13.547L0 153.798v4.788l54.246 14.519 50.055 13.397Z" fill="#F2FBFC" mask="url(#aD)"/></g><g transform="translate(-30 -722)"><mask id="aF" fill="#fff"><use xlink:href="#aE"/></mask><path d="m104.188 218.463 25.22 6.06c8.404 2.125 16.897 4.046 25.443 5.403 34.188 5.381 69.134 3.302 102.716-6.164 33.548-9.451 65.91-26.228 94.07-50.754 7.053-6.087 13.815-12.716 20.236-19.756l19.344-20.823 38.678-41.618 77.358-83.238L514.29 0h-3.684l-4.978 5.33-77.52 83.013-38.76 41.507-19.367 20.749c-6.38 6.96-13.05 13.467-20.033 19.464-27.863 24.144-59.884 40.64-93.088 49.892-33.233 9.266-67.793 11.219-101.57 5.802-8.45-1.368-16.809-3.283-25.181-5.425l-25.212-6.134-50.423-12.27L0 188.672v4.754l53.75 12.916 50.438 12.121Z" fill="#F2FBFC" mask="url(#aF)"/></g><path d="m75.899-471.113 25.432 5.417c8.472 1.742 16.954 3.812 25.542 5.22 34.318 5.606 69.433 3.729 103.194-5.622 2.113-.571 4.223-1.15 6.314-1.835 2.094-.664 4.197-1.288 6.283-1.989l6.238-2.193c2.084-.713 4.129-1.587 6.194-2.373 8.226-3.285 16.368-6.923 24.297-11.183a256.291 256.291 0 0 0 23.307-14.018 252.247 252.247 0 0 0 21.99-16.932c7.082-6.109 13.925-12.653 20.388-19.73l19.036-21.474 37.99-42.913 75.978-85.829L509.451-722h-3.47l-29.57 33.245-76.144 85.607-38.073 42.804-19.017 21.352c-6.394 6.968-13.164 13.41-20.17 19.423a248.92 248.92 0 0 1-21.757 16.665 253.257 253.257 0 0 1-23.062 13.788c-7.847 4.188-15.904 7.761-24.045 10.987-2.045.77-4.067 1.63-6.13 2.329l-6.174 2.151c-2.065.688-4.146 1.297-6.218 1.95-2.069.672-4.158 1.237-6.248 1.795-33.41 9.152-68.137 10.905-102.043 5.266-8.472-1.414-16.874-3.489-25.37-5.262l-25.425-5.492-50.85-10.986L-30-498.408v4.734l55.035 11.724L75.9-471.113Z" fill="#F2FBFC"/><g transform="translate(-30 -722)"><mask id="aH" fill="#fff"><use xlink:href="#aG"/></mask><path d="M262.648 289.028c33.877-9.206 66.613-25.794 95.141-50.306 7.128-6.113 14.01-12.67 20.54-19.733l4.828-5.39c1.614-1.79 3.125-3.704 4.693-5.55l9.309-11.105 37.222-44.366 74.444-88.732L562.391 0h-3.268l-52.012 61.704-74.616 88.518-37.307 44.258-9.317 11.062c-1.555 1.822-3.06 3.718-4.657 5.482l-4.776 5.306c-6.46 6.953-13.269 13.41-20.32 19.428-28.222 24.13-60.622 40.443-94.15 49.451a237.107 237.107 0 0 1-102.414 4.562L0 259.43v4.732l159.074 29.776a239.822 239.822 0 0 0 103.574-4.91" fill="#F2FBFC" mask="url(#aH)"/></g><g transform="translate(-30 -722)"><mask id="aJ" fill="#fff"><use xlink:href="#aI"/></mask><path d="M264.428 321.744c8.551-2.182 17.033-4.801 25.376-7.984 8.343-3.165 16.611-6.677 24.672-10.823a257.416 257.416 0 0 0 23.717-13.69 254.215 254.215 0 0 0 22.43-16.664c7.237-6.022 14.226-12.509 20.85-19.529 3.302-3.519 6.571-7.091 9.698-10.85l2.362-2.796 2.287-2.88 4.57-5.74 36.51-45.744 73.02-91.488L584.59 0h-3.08l-73.35 91.47-73.196 91.279-36.598 45.638-4.555 5.697-2.271 2.847-2.338 2.753c-3.093 3.702-6.328 7.22-9.595 10.684-6.552 6.912-13.467 13.298-20.628 19.227a250.988 250.988 0 0 1-22.192 16.4 254.607 254.607 0 0 1-23.47 13.466c-7.978 4.076-16.161 7.525-24.42 10.631-8.257 3.125-16.651 5.692-25.113 7.825-33.86 8.56-68.912 9.524-103.098 3.011L0 294.671v4.715l160.209 25.709c34.505 6.473 70.02 5.406 104.219-3.35" fill="#F2FBFC" mask="url(#aJ)"/></g><g transform="translate(-30 -722)"><mask id="aL" fill="#fff"><use xlink:href="#aK"/></mask><path d="M175.482 358.494c2.176.295 4.347.63 6.527.892l6.555.692a254.25 254.25 0 0 0 26.292.98c17.536-.367 35.06-2.528 52.26-6.762 4.312-.989 8.577-2.256 12.849-3.466 4.244-1.36 8.497-2.676 12.691-4.254 8.406-3.07 16.725-6.526 24.852-10.59 8.132-4.035 16.133-8.49 23.917-13.473a254.167 254.167 0 0 0 22.658-16.454c1.81-1.524 3.66-2.98 5.44-4.558l5.338-4.739 5.213-4.946c1.73-1.66 3.396-3.42 5.097-5.124a252.317 252.317 0 0 0 19.126-22.24l35.688-47.145 71.363-94.223L604.57 0h-2.91l-92.114 121.054-71.543 94.02-35.747 47a248.265 248.265 0 0 1-18.927 21.908c-1.683 1.679-3.33 3.412-5.044 5.046l-5.156 4.87-5.281 4.665c-1.761 1.555-3.591 2.987-5.383 4.487a251.12 251.12 0 0 1-22.42 16.195c-7.702 4.903-15.62 9.283-23.67 13.25-8.043 3.997-16.279 7.39-24.596 10.403-4.152 1.55-8.361 2.838-12.56 4.171-4.229 1.183-8.447 2.427-12.713 3.391-17.02 4.14-34.354 6.227-51.694 6.54a251.85 251.85 0 0 1-25.992-1.043l-6.479-.704c-2.158-.267-4.315-.605-6.473-.903l-12.993-1.796L0 330.185v4.707l162.47 21.841 13.012 1.761Z" fill="#F2FBFC" mask="url(#aL)"/></g><path d="M159.835-331.557c8.77 1.003 17.604 1.578 26.425 1.566 8.824.01 17.648-.415 26.44-1.343a256.093 256.093 0 0 0 26.228-4.307c34.705-7.732 68.378-23.172 98.205-46.45a250.901 250.901 0 0 0 41.06-40.901l4.544-5.92 4.38-6.088 8.723-12.117 17.443-24.219 69.772-96.878L593.81-722h-2.75L481.21-570.183 411.254-473.5l-17.488 24.17-8.74 12.082-4.349 6.017-4.495 5.83a247.435 247.435 0 0 1-40.625 40.275c-29.508 22.912-62.852 38.099-97.189 45.645a252.768 252.768 0 0 1-25.946 4.186c-8.697.893-17.423 1.288-26.148 1.253-8.73-.013-17.44-.605-26.14-1.624l-26.204-2.922L-30-356.73v4.689l163.599 17.633 26.236 2.85Z" fill="#F2FBFC"/><g transform="translate(-30 -722)"><mask id="aN" fill="#fff"><use xlink:href="#aM"/></mask><path d="m192.134 421.959 13.222 1.126c2.204.228 4.425.294 6.64.427l3.323.18 3.325.073c4.435.149 8.87.05 13.304-.02l6.648-.322c2.216-.086 4.426-.338 6.64-.5 8.842-.802 17.668-1.999 26.418-3.792a256.151 256.151 0 0 0 26.022-6.775c8.582-2.76 17.046-6.056 25.384-9.768 8.35-3.684 16.508-8.003 24.512-12.705 7.995-4.721 15.82-9.902 23.356-15.667 15.078-11.49 29.257-24.87 41.818-40.323 3.135-3.863 6.214-7.802 9.143-11.908.733-1.023 1.493-2.021 2.205-3.066l2.13-3.138 4.256-6.256 17.007-24.94 68.03-99.752L641.569 0h-2.601L513.632 182.924l-68.218 99.561-17.055 24.89-4.246 6.215-2.115 3.103c-.707 1.03-1.458 2.011-2.185 3.02-2.896 4.043-5.943 7.922-9.045 11.726-12.426 15.22-26.455 28.394-41.375 39.707-7.456 5.675-15.2 10.772-23.115 15.418-7.92 4.626-15.996 8.875-24.261 12.495-8.254 3.648-16.632 6.884-25.124 9.59a253.82 253.82 0 0 1-25.748 6.627c-8.658 1.75-17.389 2.908-26.135 3.676-2.19.153-4.376.398-6.568.476l-6.574.3c-4.386.057-8.77.142-13.156-.019l-3.288-.08-3.286-.188c-2.19-.138-4.38-.208-6.57-.442l-13.175-1.158-26.4-2.262L0 401.359v4.69l165.733 13.724 26.4 2.186Z" fill="#F2FBFC" mask="url(#aN)"/></g></g></svg>